rounded-italic.ufo
<glyph name="exclam" format="2">
  <advance height="1920" width="540"/>
  <unicode hex="0021"/>
  <outline>
    <contour>
      <point x="182.0" y="-30.0" type="curve" smooth="yes"/>
      <point x="172.0" y="-30.0" type="line" smooth="yes"/>
      <point x="95.0" y="-30.0"/>
      <point x="42.0" y="33.0"/>
      <point x="42.0" y="100.0" type="curve" smooth="yes"/>
      <point x="42.0" y="110.0" type="line" smooth="yes"/>
      <point x="42.0" y="177.0"/>
      <point x="95.0" y="240.0"/>
      <point x="172.0" y="240.0" type="curve" smooth="yes"/>
      <point x="182.0" y="240.0" type="line" smooth="yes"/>
      <point x="259.0" y="240.0"/>
      <point x="312.0" y="177.0"/>
      <point x="312.0" y="110.0" type="curve" smooth="yes"/>
      <point x="312.0" y="100.0" type="line" smooth="yes"/>
      <point x="312.0" y="33.0"/>
      <point x="259.0" y="-30.0"/>
    </contour>
    <contour>
      <point x="293.0" y="1030.0" type="curve" smooth="yes"/>
      <point x="371.0" y="1370.0" type="line" smooth="yes"/>
      <point x="389.0" y="1447.0"/>
      <point x="440.0" y="1480.0"/>
      <point x="487.0" y="1480.0" type="curve" smooth="yes"/>
      <point x="497.0" y="1480.0" type="line" smooth="yes"/>
      <point x="544.0" y="1480.0"/>
      <point x="579.0" y="1447.0"/>
      <point x="561.0" y="1370.0" type="curve" smooth="yes"/>
      <point x="483.0" y="1030.0" type="line" smooth="yes"/>
      <point x="472.0" y="983.0"/>
      <point x="451.0" y="906.0"/>
      <point x="435.0" y="860.0" type="curve" smooth="yes"/>
      <point x="302.0" y="480.0" type="line" smooth="yes"/>
      <point x="282.0" y="424.0"/>
      <point x="263.0" y="410.0"/>
      <point x="246.0" y="410.0" type="curve" smooth="yes"/>
      <point x="244.0" y="410.0" type="line" smooth="yes"/>
      <point x="227.0" y="410.0"/>
      <point x="214.0" y="424.0"/>
      <point x="220.0" y="480.0" type="curve" smooth="yes"/>
      <point x="263.0" y="860.0" type="line" smooth="yes"/>
      <point x="268.0" y="906.0"/>
      <point x="282.0" y="983.0"/>
    </contour>
  </outline>
</glyph>
<glyph name="numbersign" format="2">
  <advance height="1920" width="1300"/>
  <unicode hex="0023"/>
  <outline>
    <contour>
      <point x="125.0" y="540.0" type="curve" smooth="yes"/>
      <point x="1105.0" y="540.0" type="line" smooth="yes"/>
      <point x="1162.0" y="540.0"/>
      <point x="1182.0" y="527.0"/>
      <point x="1173.0" y="490.0" type="curve" smooth="yes"/>
      <point x="1171.0" y="480.0" type="line" smooth="yes"/>
      <point x="1162.0" y="443.0"/>
      <point x="1137.0" y="430.0"/>
      <point x="1079.0" y="430.0" type="curve" smooth="yes"/>
      <point x="99.0" y="430.0" type="line" smooth="yes"/>
      <point x="32.0" y="430.0"/>
      <point x="22.0" y="443.0"/>
      <point x="31.0" y="480.0" type="curve" smooth="yes"/>
      <point x="33.0" y="490.0" type="line" smooth="yes"/>
      <point x="42.0" y="527.0"/>
      <point x="58.0" y="540.0"/>
    </contour>
    <contour>
      <point x="332.0" y="1050.0" type="curve" smooth="yes"/>
      <point x="1302.0" y="1050.0" type="line" smooth="yes"/>
      <point x="1359.0" y="1050.0"/>
      <point x="1380.0" y="1037.0"/>
      <point x="1371.0" y="1000.0" type="curve" smooth="yes"/>
      <point x="1369.0" y="990.0" type="line" smooth="yes"/>
      <point x="1360.0" y="953.0"/>
      <point x="1334.0" y="940.0"/>
      <point x="1277.0" y="940.0" type="curve" smooth="yes"/>
      <point x="307.0" y="940.0" type="line" smooth="yes"/>
      <point x="240.0" y="940.0"/>
      <point x="220.0" y="953.0"/>
      <point x="229.0" y="990.0" type="curve" smooth="yes"/>
      <point x="231.0" y="1000.0" type="line" smooth="yes"/>
      <point x="240.0" y="1037.0"/>
      <point x="265.0" y="1050.0"/>
    </contour>
    <contour>
      <point x="1215.0" y="1430.0" type="curve" smooth="yes"/>
      <point x="1220.0" y="1430.0" type="line" smooth="yes"/>
      <point x="1270.0" y="1430.0"/>
      <point x="1286.0" y="1383.0"/>
      <point x="1247.0" y="1300.0" type="curve" smooth="yes"/>
      <point x="676.0" y="80.0" type="line" smooth="yes"/>
      <point x="642.0" y="7.0"/>
      <point x="618.0" y="-30.0"/>
      <point x="568.0" y="-30.0" type="curve" smooth="yes"/>
      <point x="563.0" y="-30.0" type="line" smooth="yes"/>
      <point x="513.0" y="-30.0"/>
      <point x="502.0" y="27.0"/>
      <point x="536.0" y="100.0" type="curve" smooth="yes"/>
      <point x="1107.0" y="1320.0" type="line" smooth="yes"/>
      <point x="1137.0" y="1384.0"/>
      <point x="1165.0" y="1430.0"/>
    </contour>
    <contour>
      <point x="795.0" y="1430.0" type="curve" smooth="yes"/>
      <point x="800.0" y="1430.0" type="line" smooth="yes"/>
      <point x="847.0" y="1430.0"/>
      <point x="866.0" y="1383.0"/>
      <point x="827.0" y="1300.0" type="curve" smooth="yes"/>
      <point x="256.0" y="80.0" type="line" smooth="yes"/>
      <point x="222.0" y="7.0"/>
      <point x="195.0" y="-30.0"/>
      <point x="148.0" y="-30.0" type="curve" smooth="yes"/>
      <point x="143.0" y="-30.0" type="line" smooth="yes"/>
      <point x="96.0" y="-30.0"/>
      <point x="82.0" y="27.0"/>
      <point x="116.0" y="100.0" type="curve" smooth="yes"/>
      <point x="687.0" y="1320.0" type="line" smooth="yes"/>
      <point x="717.0" y="1384.0"/>
      <point x="748.0" y="1430.0"/>
    </contour>
  </outline>
</glyph>
<glyph name="dollar" format="2">
  <advance height="1920" width="1110"/>
  <unicode hex="0024"/>
  <outline>
    <contour>
      <point x="154.0" y="538.0" type="curve" smooth="yes"/>
      <point x="164.0" y="538.0" type="line" smooth="yes"/>
      <point x="207.0" y="538.0"/>
      <point x="235.0" y="497.0"/>
      <point x="217.0" y="420.0" type="curve" smooth="yes"/>
      <point x="215.0" y="410.0" type="line" smooth="yes"/>
      <point x="182.0" y="266.0"/>
      <point x="247.0" y="115.0"/>
      <point x="467.0" y="115.0" type="curve" smooth="yes"/>
      <point x="685.0" y="115.0"/>
      <point x="775.0" y="197.0"/>
      <point x="817.0" y="378.0" type="curve" smooth="yes"/>
      <point x="844.0" y="495.0"/>
      <point x="790.0" y="555.0"/>
      <point x="560.0" y="614.0" type="curve" smooth="yes"/>
      <point x="322.0" y="675.0"/>
      <point x="178.0" y="815.0"/>
      <point x="228.0" y="1033.0" type="curve" smooth="yes"/>
      <point x="283.0" y="1273.0"/>
      <point x="464.0" y="1435.0"/>
      <point x="751.0" y="1435.0" type="curve" smooth="yes"/>
      <point x="1045.0" y="1435.0"/>
      <point x="1140.0" y="1256.0"/>
      <point x="1090.0" y="1041.0" type="curve" smooth="yes"/>
      <point x="1089.0" y="1036.0" type="line" smooth="yes"/>
      <point x="1074.0" y="969.0"/>
      <point x="1030.0" y="933.0"/>
      <point x="985.0" y="933.0" type="curve" smooth="yes"/>
      <point x="975.0" y="933.0" type="line" smooth="yes"/>
      <point x="930.0" y="933.0"/>
      <point x="903.0" y="964.0"/>
      <point x="916.0" y="1021.0" type="curve" smooth="yes"/>
      <point x="918.0" y="1031.0" type="line" smooth="yes"/>
      <point x="949.0" y="1166.0"/>
      <point x="914.0" y="1295.0"/>
      <point x="719.0" y="1295.0" type="curve" smooth="yes"/>
      <point x="542.0" y="1295.0"/>
      <point x="448.0" y="1203.0"/>
      <point x="413.0" y="1053.0" type="curve" smooth="yes"/>
      <point x="378.0" y="902.0"/>
      <point x="462.0" y="830.0"/>
      <point x="621.0" y="792.0" type="curve" smooth="yes"/>
      <point x="932.0" y="717.0"/>
      <point x="1053.0" y="576.0"/>
      <point x="1010.0" y="388.0" type="curve" smooth="yes"/>
      <point x="953.0" y="141.0"/>
      <point x="791.0" y="-35.0"/>
      <point x="432.0" y="-35.0" type="curve" smooth="yes"/>
      <point x="124.0" y="-35.0"/>
      <point x="-14.0" y="153.0"/>
      <point x="38.0" y="379.0" type="curve" smooth="yes"/>
      <point x="48.0" y="419.0" type="line" smooth="yes"/>
      <point x="66.0" y="496.0"/>
      <point x="111.0" y="538.0"/>
    </contour>
    <contour>
      <point x="792.0" y="1590.0" type="curve" smooth="yes"/>
      <point x="802.0" y="1590.0" type="line" smooth="yes"/>
      <point x="819.0" y="1590.0"/>
      <point x="835.0" y="1577.0"/>
      <point x="826.0" y="1540.0" type="curve" smooth="yes"/>
      <point x="438.0" y="-140.0" type="line" smooth="yes"/>
      <point x="429.0" y="-177.0"/>
      <point x="408.0" y="-190.0"/>
      <point x="391.0" y="-190.0" type="curve" smooth="yes"/>
      <point x="381.0" y="-190.0" type="line" smooth="yes"/>
      <point x="364.0" y="-190.0"/>
      <point x="349.0" y="-177.0"/>
      <point x="358.0" y="-140.0" type="curve" smooth="yes"/>
      <point x="746.0" y="1540.0" type="line" smooth="yes"/>
      <point x="755.0" y="1577.0"/>
      <point x="775.0" y="1590.0"/>
    </contour>
  </outline>
</glyph>
<glyph name="ampersand" format="2">
  <advance height="1920" width="1280"/>
  <unicode hex="0026"/>
  <outline>
    <contour>
      <point x="894.0" y="80.0" type="curve" smooth="yes"/>
      <point x="607.0" y="734.0" type="line" smooth="yes"/>
      <point x="526.0" y="919.0"/>
      <point x="457.0" y="1030.0"/>
      <point x="488.0" y="1163.0" type="curve" smooth="yes"/>
      <point x="520.0" y="1303.0"/>
      <point x="649.0" y="1435.0"/>
      <point x="856.0" y="1435.0" type="curve" smooth="yes"/>
      <point x="1043.0" y="1435.0"/>
      <point x="1142.0" y="1353.0"/>
      <point x="1113.0" y="1183.0" type="curve"/>
      <point x="1074.0" y="1015.0"/>
      <point x="948.0" y="878.0"/>
      <point x="696.0" y="776.0" type="curve" smooth="yes"/>
      <point x="416.0" y="663.0"/>
      <point x="252.0" y="592.0"/>
      <point x="219.0" y="448.0" type="curve" smooth="yes"/>
      <point x="205.0" y="389.0"/>
      <point x="209.0" y="341.0"/>
      <point x="231.0" y="286.0" type="curve" smooth="yes"/>
      <point x="259.0" y="213.0" type="line" smooth="yes"/>
      <point x="286.0" y="145.0"/>
      <point x="346.0" y="105.0"/>
      <point x="431.0" y="105.0" type="curve" smooth="yes"/>
      <point x="623.0" y="105.0"/>
      <point x="841.0" y="324.0"/>
      <point x="994.0" y="570.0" type="curve" smooth="yes"/>
      <point x="1038.0" y="640.0"/>
      <point x="1071.0" y="708.0"/>
      <point x="1118.0" y="708.0" type="curve" smooth="yes"/>
      <point x="1123.0" y="708.0" type="line" smooth="yes"/>
      <point x="1180.0" y="708.0"/>
      <point x="1180.0" y="640.0"/>
      <point x="1136.0" y="567.0" type="curve" smooth="yes"/>
      <point x="921.0" y="213.0"/>
      <point x="671.0" y="-35.0"/>
      <point x="403.0" y="-35.0" type="curve" smooth="yes"/>
      <point x="267.0" y="-35.0"/>
      <point x="148.0" y="22.0"/>
      <point x="106.0" y="119.0" type="curve" smooth="yes"/>
      <point x="72.0" y="199.0" type="line" smooth="yes"/>
      <point x="37.0" y="279.0"/>
      <point x="27.0" y="352.0"/>
      <point x="49.0" y="448.0" type="curve" smooth="yes"/>
      <point x="97.0" y="657.0"/>
      <point x="339.0" y="767.0"/>
      <point x="606.0" y="862.0" type="curve" smooth="yes"/>
      <point x="781.0" y="924.0"/>
      <point x="944.0" y="1032.0"/>
      <point x="974.0" y="1163.0" type="curve" smooth="yes"/>
      <point x="992.0" y="1243.0"/>
      <point x="942.0" y="1300.0"/>
      <point x="845.0" y="1300.0" type="curve" smooth="yes"/>
      <point x="748.0" y="1300.0"/>
      <point x="677.0" y="1242.0"/>
      <point x="656.0" y="1153.0" type="curve" smooth="yes"/>
      <point x="629.0" y="1034.0"/>
      <point x="685.0" y="973.0"/>
      <point x="729.0" y="876.0" type="curve" smooth="yes"/>
      <point x="1072.0" y="127.0" type="line" smooth="yes"/>
      <point x="1106.0" y="52.0"/>
      <point x="1070.0" y="-30.0"/>
      <point x="1013.0" y="-30.0" type="curve" smooth="yes"/>
      <point x="1008.0" y="-30.0" type="line" smooth="yes"/>
      <point x="951.0" y="-30.0"/>
      <point x="927.0" y="4.0"/>
    </contour>
  </outline>
</glyph>
<glyph name="quotesingle" format="2">
  <advance height="1920" width="370"/>
  <unicode hex="0027"/>
  <outline>
    <contour>
      <point x="285.0" y="930.0" type="curve" smooth="yes"/>
      <point x="275.0" y="930.0" type="line" smooth="yes"/>
      <point x="258.0" y="930.0"/>
      <point x="254.0" y="945.0"/>
      <point x="254.0" y="980.0" type="curve" smooth="yes"/>
      <point x="252.0" y="1170.0" type="line" smooth="yes"/>
      <point x="251.0" y="1227.0"/>
      <point x="257.0" y="1288.0"/>
      <point x="268.0" y="1335.0" type="curve" smooth="yes"/>
      <point x="269.0" y="1340.0" type="line" smooth="yes"/>
      <point x="282.0" y="1397.0"/>
      <point x="338.0" y="1450.0"/>
      <point x="395.0" y="1450.0" type="curve" smooth="yes"/>
      <point x="405.0" y="1450.0" type="line" smooth="yes"/>
      <point x="462.0" y="1450.0"/>
      <point x="492.0" y="1397.0"/>
      <point x="479.0" y="1340.0" type="curve" smooth="yes"/>
      <point x="478.0" y="1335.0" type="line" smooth="yes"/>
      <point x="467.0" y="1288.0"/>
      <point x="445.0" y="1227.0"/>
      <point x="418.0" y="1170.0" type="curve" smooth="yes"/>
      <point x="328.0" y="980.0" type="line" smooth="yes"/>
      <point x="311.0" y="945.0"/>
      <point x="302.0" y="930.0"/>
    </contour>
  </outline>
</glyph>
<glyph name="parenleft" format="2">
  <advance height="2048" width="535"/>
  <unicode hex="0028"/>
  <outline>
    <contour>
      <point x="143.0" y="838.0" type="line" smooth="yes"/>
      <point x="237.0" y="1243.0"/>
      <point x="444.0" y="1557.0"/>
      <point x="743.0" y="1618.0" type="curve" smooth="yes"/>
      <point x="772.0" y="1624.0"/>
      <point x="781.0" y="1607.0"/>
      <point x="775.0" y="1580.0" type="curve" smooth="yes"/>
      <point x="772.0" y="1570.0" type="line" smooth="yes"/>
      <point x="766.0" y="1543.0"/>
      <point x="750.0" y="1538.0"/>
      <point x="723.0" y="1526.0" type="curve" smooth="yes"/>
      <point x="566.0" y="1459.0"/>
      <point x="416.0" y="1259.0"/>
      <point x="323.0" y="858.0" type="curve" smooth="yes"/>
      <point x="216.0" y="392.0" type="line" smooth="yes"/>
      <point x="123.0" y="-9.0"/>
      <point x="181.0" y="-209.0"/>
      <point x="307.0" y="-276.0" type="curve" smooth="yes"/>
      <point x="329.0" y="-288.0"/>
      <point x="342.0" y="-293.0"/>
      <point x="336.0" y="-320.0" type="curve" smooth="yes"/>
      <point x="334.0" y="-330.0" type="line" smooth="yes"/>
      <point x="328.0" y="-357.0"/>
      <point x="310.0" y="-374.0"/>
      <point x="284.0" y="-368.0" type="curve" smooth="yes"/>
      <point x="13.0" y="-307.0"/>
      <point x="-49.0" y="7.0"/>
      <point x="45.0" y="412.0" type="curve" smooth="yes"/>
    </contour>
  </outline>
</glyph>
<glyph name="parenright" format="2">
  <advance height="2048" width="535"/>
  <unicode hex="0029"/>
  <outline>
    <contour>
      <point x="440.0" y="412.0" type="line" smooth="yes"/>
      <point x="346.0" y="7.0"/>
      <point x="140.0" y="-307.0"/>
      <point x="-159.0" y="-368.0" type="curve" smooth="yes"/>
      <point x="-188.0" y="-374.0"/>
      <point x="-197.0" y="-357.0"/>
      <point x="-191.0" y="-330.0" type="curve" smooth="yes"/>
      <point x="-189.0" y="-320.0" type="line" smooth="yes"/>
      <point x="-183.0" y="-293.0"/>
      <point x="-166.0" y="-288.0"/>
      <point x="-139.0" y="-276.0" type="curve" smooth="yes"/>
      <point x="18.0" y="-209.0"/>
      <point x="167.0" y="-9.0"/>
      <point x="260.0" y="392.0" type="curve" smooth="yes"/>
      <point x="368.0" y="858.0" type="line" smooth="yes"/>
      <point x="461.0" y="1259.0"/>
      <point x="403.0" y="1459.0"/>
      <point x="277.0" y="1526.0" type="curve" smooth="yes"/>
      <point x="255.0" y="1538.0"/>
      <point x="241.0" y="1543.0"/>
      <point x="247.0" y="1570.0" type="curve" smooth="yes"/>
      <point x="250.0" y="1580.0" type="line" smooth="yes"/>
      <point x="256.0" y="1607.0"/>
      <point x="273.0" y="1624.0"/>
      <point x="299.0" y="1618.0" type="curve" smooth="yes"/>
      <point x="570.0" y="1557.0"/>
      <point x="632.0" y="1243.0"/>
      <point x="538.0" y="838.0" type="curve" smooth="yes"/>
    </contour>
  </outline>
</glyph>
<glyph name="asterisk" format="2">
  <advance height="2048" width="914"/>
  <unicode hex="002A"/>
  <outline>
    <contour>
      <point x="576.0" y="986.0" type="line"/>
      <point x="569.0" y="1053.0" type="line"/>
      <point x="872.0" y="1186.0" type="line" smooth="yes"/>
      <point x="919.0" y="1206.0"/>
      <point x="946.0" y="1219.0"/>
      <point x="963.0" y="1224.0" type="curve" smooth="yes"/>
      <point x="964.0" y="1224.0" type="line" smooth="yes"/>
      <point x="1002.0" y="1235.0"/>
      <point x="1037.0" y="1216.0"/>
      <point x="1042.0" y="1167.0" type="curve" smooth="yes"/>
      <point x="1043.0" y="1157.0" type="line" smooth="yes"/>
      <point x="1048.0" y="1108.0"/>
      <point x="1017.0" y="1068.0"/>
      <point x="979.0" y="1057.0" type="curve" smooth="yes"/>
      <point x="978.0" y="1056.0" type="line" smooth="yes"/>
      <point x="950.0" y="1048.0"/>
      <point x="934.0" y="1048.0"/>
      <point x="886.0" y="1039.0" type="curve" smooth="yes"/>
    </contour>
    <contour>
      <point x="539.0" y="1000.0" type="line"/>
      <point x="605.0" y="1041.0" type="line"/>
      <point x="765.0" y="823.0" type="line" smooth="yes"/>
      <point x="789.0" y="789.0"/>
      <point x="804.0" y="772.0"/>
      <point x="811.0" y="758.0" type="curve" smooth="yes"/>
      <point x="812.0" y="757.0" type="line" smooth="yes"/>
      <point x="827.0" y="727.0"/>
      <point x="810.0" y="682.0"/>
      <point x="761.0" y="651.0" type="curve" smooth="yes"/>
      <point x="752.0" y="645.0" type="line" smooth="yes"/>
      <point x="703.0" y="614.0"/>
      <point x="660.0" y="623.0"/>
      <point x="645.0" y="653.0" type="curve" smooth="yes"/>
      <point x="645.0" y="654.0" type="line" smooth="yes"/>
      <point x="634.0" y="676.0"/>
      <point x="632.0" y="692.0"/>
      <point x="619.0" y="733.0" type="curve" smooth="yes"/>
    </contour>
    <contour>
      <point x="549.0" y="1041.0" type="line"/>
      <point x="597.0" y="1000.0" type="line"/>
      <point x="392.0" y="732.0" type="line" smooth="yes"/>
      <point x="361.0" y="691.0"/>
      <point x="344.0" y="668.0"/>
      <point x="331.0" y="654.0" type="curve" smooth="yes"/>
      <point x="330.0" y="653.0" type="line" smooth="yes"/>
      <point x="301.0" y="623.0"/>
      <point x="255.0" y="614.0"/>
      <point x="220.0" y="645.0" type="curve" smooth="yes"/>
      <point x="213.0" y="651.0" type="line" smooth="yes"/>
      <point x="178.0" y="682.0"/>
      <point x="183.0" y="727.0"/>
      <point x="212.0" y="757.0" type="curve" smooth="yes"/>
      <point x="212.0" y="757.0" type="line" smooth="yes"/>
      <point x="233.0" y="779.0"/>
      <point x="249.0" y="789.0"/>
      <point x="289.0" y="823.0" type="curve" smooth="yes"/>
    </contour>
    <contour>
      <point x="591.0" y="1053.0" type="line"/>
      <point x="554.0" y="986.0" type="line"/>
      <point x="268.0" y="1039.0" type="line" smooth="yes"/>
      <point x="224.0" y="1048.0"/>
      <point x="199.0" y="1051.0"/>
      <point x="184.0" y="1056.0" type="curve" smooth="yes"/>
      <point x="183.0" y="1057.0" type="line" smooth="yes"/>
      <point x="151.0" y="1068.0"/>
      <point x="138.0" y="1108.0"/>
      <point x="165.0" y="1157.0" type="curve" smooth="yes"/>
      <point x="170.0" y="1167.0" type="line" smooth="yes"/>
      <point x="197.0" y="1216.0"/>
      <point x="244.0" y="1235.0"/>
      <point x="276.0" y="1224.0" type="curve" smooth="yes"/>
      <point x="277.0" y="1224.0" type="line" smooth="yes"/>
      <point x="301.0" y="1216.0"/>
      <point x="313.0" y="1206.0"/>
      <point x="350.0" y="1186.0" type="curve" smooth="yes"/>
    </contour>
    <contour>
      <point x="607.0" y="1020.0" type="line"/>
      <point x="537.0" y="1020.0" type="line"/>
      <point x="565.0" y="1320.0" type="line" smooth="yes"/>
      <point x="570.0" y="1366.0"/>
      <point x="570.0" y="1392.0"/>
      <point x="574.0" y="1409.0" type="curve" smooth="yes"/>
      <point x="575.0" y="1410.0" type="line" smooth="yes"/>
      <point x="584.0" y="1447.0"/>
      <point x="622.0" y="1480.0"/>
      <point x="674.0" y="1480.0" type="curve" smooth="yes"/>
      <point x="684.0" y="1480.0" type="line" smooth="yes"/>
      <point x="736.0" y="1480.0"/>
      <point x="760.0" y="1447.0"/>
      <point x="751.0" y="1410.0" type="curve" smooth="yes"/>
      <point x="750.0" y="1409.0" type="line" smooth="yes"/>
      <point x="744.0" y="1382.0"/>
      <point x="736.0" y="1366.0"/>
      <point x="719.0" y="1320.0" type="curve" smooth="yes"/>
    </contour>
  </outline>
</glyph>
<glyph name="plus" format="2">
  <advance height="1920" width="1040"/>
  <unicode hex="002B"/>
  <outline>
    <contour>
      <point x="53.0" y="685.0" type="curve" smooth="yes"/>
      <point x="57.0" y="700.0" type="line" smooth="yes"/>
      <point x="66.0" y="737.0"/>
      <point x="106.0" y="770.0"/>
      <point x="173.0" y="770.0" type="curve" smooth="yes"/>
      <point x="983.0" y="770.0" type="line" smooth="yes"/>
      <point x="1050.0" y="770.0"/>
      <point x="1076.0" y="737.0"/>
      <point x="1067.0" y="700.0" type="curve" smooth="yes"/>
      <point x="1063.0" y="685.0" type="line" smooth="yes"/>
      <point x="1054.0" y="648.0"/>
      <point x="1014.0" y="615.0"/>
      <point x="947.0" y="615.0" type="curve" smooth="yes"/>
      <point x="137.0" y="615.0" type="line" smooth="yes"/>
      <point x="70.0" y="615.0"/>
      <point x="44.0" y="648.0"/>
    </contour>
    <contour>
      <point x="677.0" y="1220.0" type="curve" smooth="yes"/>
      <point x="687.0" y="1220.0" type="line" smooth="yes"/>
      <point x="724.0" y="1220.0"/>
      <point x="749.0" y="1187.0"/>
      <point x="734.0" y="1120.0" type="curve" smooth="yes"/>
      <point x="530.0" y="240.0" type="line" smooth="yes"/>
      <point x="515.0" y="173.0"/>
      <point x="474.0" y="140.0"/>
      <point x="437.0" y="140.0" type="curve" smooth="yes"/>
      <point x="427.0" y="140.0" type="line" smooth="yes"/>
      <point x="390.0" y="140.0"/>
      <point x="365.0" y="173.0"/>
      <point x="380.0" y="240.0" type="curve" smooth="yes"/>
      <point x="584.0" y="1120.0" type="line" smooth="yes"/>
      <point x="599.0" y="1187.0"/>
      <point x="640.0" y="1220.0"/>
    </contour>
  </outline>
</glyph>
<glyph name="comma" format="2">
  <advance height="1920" width="540"/>
  <unicode hex="002C"/>
  <outline>
    <contour>
      <point x="-5.0" y="-220.0" type="curve" smooth="yes"/>
      <point x="-6.0" y="-220.0" type="line" smooth="yes"/>
      <point x="-23.0" y="-220.0"/>
      <point x="-27.9584074454" y="-204.666429742"/>
      <point x="-2.0" y="-169.0" type="curve" smooth="yes"/>
      <point x="121.0" y="0.0" type="line"/>
      <point x="119.0" y="0.0" type="line" smooth="yes"/>
      <point x="100.479492188" y="0.0"/>
      <point x="50.0" y="31.404296875"/>
      <point x="50.0" y="90.0" type="curve" smooth="yes"/>
      <point x="50.0" y="100.0" type="line" smooth="yes"/>
      <point x="50.0" y="167.0"/>
      <point x="107.0" y="240.0"/>
      <point x="184.0" y="240.0" type="curve" smooth="yes"/>
      <point x="194.0" y="240.0" type="line" smooth="yes"/>
      <point x="271.0" y="240.0"/>
      <point x="320.0" y="187.0"/>
      <point x="320.0" y="120.0" type="curve" smooth="yes"/>
      <point x="320.0" y="110.0" type="line" smooth="yes"/>
      <point x="320.0" y="63.0"/>
      <point x="278.40573359" y="8.24602495646"/>
      <point x="235.0" y="-28.0" type="curve" smooth="yes"/>
      <point x="138.0" y="-109.0" type="line" smooth="yes"/>
      <point x="42.0758315763" y="-189.101625179"/>
      <point x="13.0" y="-220.0"/>
    </contour>
  </outline>
</glyph>
<glyph name="hyphen" format="2">
  <advance height="1920" width="570"/>
  <unicode hex="002D"/>
  <outline>
    <contour>
      <point x="32.0" y="605.0" type="curve" smooth="yes"/>
      <point x="32.0" y="620.0" type="line" smooth="yes"/>
      <point x="32.0" y="657.0"/>
      <point x="65.0" y="690.0"/>
      <point x="132.0" y="690.0" type="curve" smooth="yes"/>
      <point x="482.0" y="690.0" type="line" smooth="yes"/>
      <point x="549.0" y="690.0"/>
      <point x="582.0" y="657.0"/>
      <point x="582.0" y="620.0" type="curve" smooth="yes"/>
      <point x="582.0" y="605.0" type="line" smooth="yes"/>
      <point x="582.0" y="568.0"/>
      <point x="549.0" y="535.0"/>
      <point x="482.0" y="535.0" type="curve" smooth="yes"/>
      <point x="132.0" y="535.0" type="line" smooth="yes"/>
      <point x="65.0" y="535.0"/>
      <point x="32.0" y="568.0"/>
    </contour>
  </outline>
</glyph>
<glyph name="period" format="2">
  <advance height="1920" width="540"/>
  <unicode hex="002E"/>
  <outline>
    <contour>
      <point x="179.0" y="-30.0" type="curve" smooth="yes"/>
      <point x="169.0" y="-30.0" type="line" smooth="yes"/>
      <point x="91.7412109375" y="-30.0"/>
      <point x="39.0" y="32.7412109375"/>
      <point x="39.0" y="100.0" type="curve" smooth="yes"/>
      <point x="39.0" y="110.0" type="line" smooth="yes"/>
      <point x="39.0" y="177.258789062"/>
      <point x="91.7412109375" y="240.0"/>
      <point x="169.0" y="240.0" type="curve" smooth="yes"/>
      <point x="179.0" y="240.0" type="line" smooth="yes"/>
      <point x="256.258789062" y="240.0"/>
      <point x="309.0" y="177.258789062"/>
      <point x="309.0" y="110.0" type="curve" smooth="yes"/>
      <point x="309.0" y="100.0" type="line" smooth="yes"/>
      <point x="309.0" y="32.7412109375"/>
      <point x="256.258789062" y="-30.0"/>
    </contour>
  </outline>
</glyph>
<glyph name="slash" format="2">
  <advance height="2048" width="840"/>
  <unicode hex="002F"/>
  <outline>
    <contour>
      <point x="919.0" y="1270.0" type="curve" smooth="yes"/>
      <point x="84.0" y="-20.0" type="line" smooth="yes"/>
      <point x="45.0" y="-80.0"/>
      <point x="7.0" y="-130.0"/>
      <point x="-40.0" y="-130.0" type="curve" smooth="yes"/>
      <point x="-50.0" y="-130.0" type="line" smooth="yes"/>
      <point x="-107.0" y="-130.0"/>
      <point x="-99.0" y="-55.0"/>
      <point x="-44.0" y="30.0" type="curve" smooth="yes"/>
      <point x="791.0" y="1320.0" type="line" smooth="yes"/>
      <point x="830.0" y="1380.0"/>
      <point x="869.0" y="1430.0"/>
      <point x="915.0" y="1430.0" type="curve" smooth="yes"/>
      <point x="925.0" y="1430.0" type="line" smooth="yes"/>
      <point x="982.0" y="1430.0"/>
      <point x="974.0" y="1355.0"/>
    </contour>
  </outline>
</glyph>
<glyph name="zero" format="2">
  <advance height="1920" width="1150"/>
  <unicode hex="0030"/>
  <outline>
    <contour>
      <point x="93.0" y="488.0" type="curve" smooth="yes"/>
      <point x="191.0" y="913.0" type="line" smooth="yes"/>
      <point x="266.0" y="1239.0"/>
      <point x="484.0" y="1435.0"/>
      <point x="786.0" y="1435.0" type="curve" smooth="yes"/>
      <point x="1088.0" y="1435.0"/>
      <point x="1216.0" y="1239.0"/>
      <point x="1141.0" y="913.0" type="curve" smooth="yes"/>
      <point x="1043.0" y="488.0" type="line" smooth="yes"/>
      <point x="968.0" y="162.0"/>
      <point x="748.0" y="-35.0"/>
      <point x="447.0" y="-35.0" type="curve" smooth="yes"/>
      <point x="146.0" y="-35.0"/>
      <point x="18.0" y="162.0"/>
    </contour>
    <contour>
      <point x="287.0" y="508.0" type="line" smooth="yes"/>
      <point x="230.0" y="260.0"/>
      <point x="295.0" y="105.0"/>
      <point x="479.0" y="105.0" type="curve" smooth="yes"/>
      <point x="663.0" y="105.0"/>
      <point x="800.0" y="260.0"/>
      <point x="857.0" y="508.0" type="curve" smooth="yes"/>
      <point x="946.0" y="893.0" type="line" smooth="yes"/>
      <point x="1003.0" y="1141.0"/>
      <point x="938.0" y="1295.0"/>
      <point x="754.0" y="1295.0" type="curve" smooth="yes"/>
      <point x="570.0" y="1295.0"/>
      <point x="433.0" y="1141.0"/>
      <point x="376.0" y="893.0" type="curve" smooth="yes"/>
    </contour>
  </outline>
</glyph>
<glyph name="one" format="2">
  <advance height="1920" width="600"/>
  <unicode hex="0031"/>
  <outline>
    <contour>
      <point x="443.0" y="1373.0" type="curve" smooth="yes"/>
      <point x="464.0" y="1386.0"/>
      <point x="480.0" y="1391.0"/>
      <point x="506.0" y="1415.0" type="curve" smooth="yes"/>
      <point x="521.0" y="1429.0"/>
      <point x="540.0" y="1450.0"/>
      <point x="567.0" y="1450.0" type="curve" smooth="yes"/>
      <point x="571.0" y="1450.0" type="line" smooth="yes"/>
      <point x="598.0" y="1450.0"/>
      <point x="604.0" y="1427.0"/>
      <point x="598.0" y="1400.0" type="curve" smooth="yes"/>
      <point x="293.0" y="80.0" type="line" smooth="yes"/>
      <point x="275.0" y="3.0"/>
      <point x="225.0" y="-30.0"/>
      <point x="178.0" y="-30.0" type="curve" smooth="yes"/>
      <point x="168.0" y="-30.0" type="line" smooth="yes"/>
      <point x="121.0" y="-30.0"/>
      <point x="85.0" y="3.0"/>
      <point x="103.0" y="80.0" type="curve" smooth="yes"/>
      <point x="381.0" y="1284.0" type="line" smooth="yes"/>
      <point x="394.0" y="1341.0"/>
      <point x="417.0" y="1357.0"/>
    </contour>
  </outline>
</glyph>
<glyph name="two" format="2">
  <advance height="1920" width="1080"/>
  <unicode hex="0032"/>
  <outline>
    <contour>
      <point x="17.0" y="160.0" type="line" smooth="yes"/>
      <point x="113.0" y="574.0"/>
      <point x="839.0" y="756.0"/>
      <point x="903.0" y="1033.0" type="curve" smooth="yes"/>
      <point x="914.0" y="1078.0" type="line" smooth="yes"/>
      <point x="939.0" y="1188.0"/>
      <point x="883.0" y="1285.0"/>
      <point x="726.0" y="1285.0" type="curve" smooth="yes"/>
      <point x="556.0" y="1285.0"/>
      <point x="436.0" y="1175.0"/>
      <point x="396.0" y="1002.0" type="curve" smooth="yes"/>
      <point x="392.0" y="982.0" type="line" smooth="yes"/>
      <point x="374.0" y="905.0"/>
      <point x="328.0" y="872.0"/>
      <point x="281.0" y="872.0" type="curve" smooth="yes"/>
      <point x="271.0" y="872.0" type="line" smooth="yes"/>
      <point x="224.0" y="872.0"/>
      <point x="194.0" y="905.0"/>
      <point x="212.0" y="982.0" type="curve" smooth="yes"/>
      <point x="216.0" y="1002.0" type="line" smooth="yes"/>
      <point x="279.0" y="1276.0"/>
      <point x="493.0" y="1435.0"/>
      <point x="770.0" y="1435.0" type="curve" smooth="yes"/>
      <point x="1017.0" y="1435.0"/>
      <point x="1146.0" y="1303.0"/>
      <point x="1093.0" y="1073.0" type="curve" smooth="yes"/>
      <point x="1082.0" y="1028.0" type="line" smooth="yes"/>
      <point x="991.0" y="632.0"/>
      <point x="286.0" y="501.0"/>
      <point x="212.0" y="180.0" type="curve" smooth="yes"/>
      <point x="209.0" y="170.0" type="line"/>
      <point x="809.0" y="170.0" type="line" smooth="yes"/>
      <point x="886.0" y="170.0"/>
      <point x="912.0" y="137.0"/>
      <point x="901.0" y="90.0" type="curve" smooth="yes"/>
      <point x="898.0" y="80.0" type="line" smooth="yes"/>
      <point x="887.0" y="33.0"/>
      <point x="847.0" y="0.0"/>
      <point x="770.0" y="0.0" type="curve" smooth="yes"/>
      <point x="160.0" y="0.0" type="line" smooth="yes"/>
      <point x="33.0" y="0.0"/>
      <point x="-9.0" y="48.0"/>
      <point x="16.0" y="155.0" type="curve" smooth="yes"/>
    </contour>
  </outline>
</glyph>
<glyph name="three" format="2">
  <advance height="1920" width="1100"/>
  <unicode hex="0033"/>
  <outline>
    <contour>
      <point x="151.0" y="437.0" type="curve" smooth="yes"/>
      <point x="161.0" y="437.0" type="line" smooth="yes"/>
      <point x="208.0" y="437.0"/>
      <point x="246.0" y="414.0"/>
      <point x="228.0" y="337.0" type="curve" smooth="yes"/>
      <point x="225.0" y="327.0" type="line" smooth="yes"/>
      <point x="197.0" y="207.0"/>
      <point x="288.0" y="115.0"/>
      <point x="447.0" y="115.0" type="curve" smooth="yes"/>
      <point x="614.0" y="115.0"/>
      <point x="756.0" y="222.0"/>
      <point x="786.0" y="352.0" type="curve" smooth="yes"/>
      <point x="808.0" y="447.0" type="line" smooth="yes"/>
      <point x="838.0" y="577.0"/>
      <point x="739.0" y="660.0"/>
      <point x="562.0" y="660.0" type="curve" smooth="yes"/>
      <point x="542.0" y="660.0" type="line" smooth="yes"/>
      <point x="475.0" y="660.0"/>
      <point x="448.0" y="683.0"/>
      <point x="459.0" y="730.0" type="curve" smooth="yes"/>
      <point x="461.0" y="740.0" type="line" smooth="yes"/>
      <point x="472.0" y="787.0"/>
      <point x="509.0" y="810.0"/>
      <point x="576.0" y="810.0" type="curve" smooth="yes"/>
      <point x="577.0" y="810.0" type="line" smooth="yes"/>
      <point x="744.0" y="810.0"/>
      <point x="858.0" y="903.0"/>
      <point x="886.0" y="1023.0" type="curve" smooth="yes"/>
      <point x="901.0" y="1088.0" type="line" smooth="yes"/>
      <point x="926.0" y="1198.0"/>
      <point x="883.0" y="1285.0"/>
      <point x="716.0" y="1285.0" type="curve" smooth="yes"/>
      <point x="566.0" y="1285.0"/>
      <point x="449.0" y="1185.0"/>
      <point x="418.0" y="1052.0" type="curve" smooth="yes"/>
      <point x="413.0" y="1032.0" type="line" smooth="yes"/>
      <point x="395.0" y="955.0"/>
      <point x="350.0" y="922.0"/>
      <point x="303.0" y="922.0" type="curve" smooth="yes"/>
      <point x="293.0" y="922.0" type="line" smooth="yes"/>
      <point x="246.0" y="922.0"/>
      <point x="215.0" y="955.0"/>
      <point x="233.0" y="1032.0" type="curve" smooth="yes"/>
      <point x="238.0" y="1052.0" type="line" smooth="yes"/>
      <point x="292.0" y="1286.0"/>
      <point x="508.0" y="1435.0"/>
      <point x="755.0" y="1435.0" type="curve" smooth="yes"/>
      <point x="1002.0" y="1435.0"/>
      <point x="1148.0" y="1313.0"/>
      <point x="1095.0" y="1083.0" type="curve" smooth="yes"/>
      <point x="1089.0" y="1058.0" type="line" smooth="yes"/>
      <point x="1031.0" y="808.0"/>
      <point x="813.0" y="720.0"/>
      <point x="556.0" y="720.0" type="curve"/>
      <point x="588.0" y="770.0" type="line"/>
      <point x="845.0" y="770.0"/>
      <point x="1050.0" y="672.0"/>
      <point x="992.0" y="422.0" type="curve" smooth="yes"/>
      <point x="975.0" y="347.0" type="line" smooth="yes"/>
      <point x="920.0" y="107.0"/>
      <point x="699.0" y="-35.0"/>
      <point x="402.0" y="-35.0" type="curve" smooth="yes"/>
      <point x="150.0" y="-35.0"/>
      <point x="-18.0" y="99.0"/>
      <point x="35.0" y="327.0" type="curve" smooth="yes"/>
      <point x="38.0" y="337.0" type="line" smooth="yes"/>
      <point x="56.0" y="414.0"/>
      <point x="104.0" y="437.0"/>
    </contour>
  </outline>
</glyph>
<glyph name="four" format="2">
  <advance height="1920" width="1045"/>
  <unicode hex="0034"/>
  <outline>
    <contour>
      <point x="1015.0" y="410.0" type="curve" smooth="yes"/>
      <point x="1012.0" y="400.0" type="line" smooth="yes"/>
      <point x="1001.0" y="353.0"/>
      <point x="963.0" y="330.0"/>
      <point x="886.0" y="330.0" type="curve" smooth="yes"/>
      <point x="776.0" y="330.0" type="line"/>
      <point x="718.0" y="80.0" type="line" smooth="yes"/>
      <point x="700.0" y="3.0"/>
      <point x="650.0" y="-30.0"/>
      <point x="603.0" y="-30.0" type="curve" smooth="yes"/>
      <point x="593.0" y="-30.0" type="line" smooth="yes"/>
      <point x="546.0" y="-30.0"/>
      <point x="510.0" y="3.0"/>
      <point x="528.0" y="80.0" type="curve" smooth="yes"/>
      <point x="586.0" y="330.0" type="line"/>
      <point x="86.0" y="330.0" type="line" smooth="yes"/>
      <point x="9.0" y="330.0"/>
      <point x="-16.0" y="363.0"/>
      <point x="-5.0" y="410.0" type="curve" smooth="yes"/>
      <point x="-5.0" y="412.0" type="line" smooth="yes"/>
      <point x="4.0" y="449.0"/>
      <point x="33.0" y="486.0"/>
      <point x="94.0" y="550.0" type="curve" smooth="yes"/>
      <point x="876.0" y="1377.0" type="line" smooth="yes"/>
      <point x="906.0" y="1408.0"/>
      <point x="931.0" y="1420.0"/>
      <point x="958.0" y="1420.0" type="curve" smooth="yes"/>
      <point x="968.0" y="1420.0" type="line" smooth="yes"/>
      <point x="1005.0" y="1420.0"/>
      <point x="1020.0" y="1387.0"/>
      <point x="1009.0" y="1340.0" type="curve" smooth="yes"/>
      <point x="811.0" y="480.0" type="line"/>
      <point x="921.0" y="480.0" type="line" smooth="yes"/>
      <point x="998.0" y="480.0"/>
      <point x="1026.0" y="457.0"/>
    </contour>
    <contour>
      <point x="631.0" y="480.0" type="line"/>
      <point x="770.0" y="1081.0" type="line"/>
      <point x="196.0" y="480.0" type="line"/>
    </contour>
  </outline>
</glyph>
<glyph name="five" format="2">
  <advance height="1920" width="1100"/>
  <unicode hex="0035"/>
  <outline>
    <contour>
      <point x="152.0" y="398.0" type="curve" smooth="yes"/>
      <point x="162.0" y="398.0" type="line" smooth="yes"/>
      <point x="219.0" y="398.0"/>
      <point x="228.0" y="361.0"/>
      <point x="237.0" y="289.0" type="curve" smooth="yes"/>
      <point x="248.0" y="201.0"/>
      <point x="292.0" y="105.0"/>
      <point x="439.0" y="105.0" type="curve" smooth="yes"/>
      <point x="588.0" y="105.0"/>
      <point x="737.0" y="205.0"/>
      <point x="782.0" y="398.0" type="curve" smooth="yes"/>
      <point x="811.0" y="523.0" type="line" smooth="yes"/>
      <point x="857.0" y="723.0"/>
      <point x="765.0" y="805.0"/>
      <point x="631.0" y="805.0" type="curve" smooth="yes"/>
      <point x="545.0" y="805.0"/>
      <point x="444.0" y="761.0"/>
      <point x="386.0" y="693.0" type="curve" smooth="yes"/>
      <point x="342.0" y="641.0"/>
      <point x="316.0" y="623.0"/>
      <point x="259.0" y="623.0" type="curve" smooth="yes"/>
      <point x="249.0" y="623.0" type="line" smooth="yes"/>
      <point x="192.0" y="623.0"/>
      <point x="165.0" y="666.0"/>
      <point x="194.0" y="743.0" type="curve" smooth="yes"/>
      <point x="384.0" y="1240.0" type="line" smooth="yes"/>
      <point x="431.0" y="1364.0"/>
      <point x="477.0" y="1400.0"/>
      <point x="604.0" y="1400.0" type="curve" smooth="yes"/>
      <point x="1064.0" y="1400.0" type="line" smooth="yes"/>
      <point x="1131.0" y="1400.0"/>
      <point x="1162.0" y="1387.0"/>
      <point x="1153.0" y="1350.0" type="curve" smooth="yes"/>
      <point x="1152.0" y="1345.0" type="line" smooth="yes"/>
      <point x="1136.0" y="1275.0"/>
      <point x="1060.0" y="1250.0"/>
      <point x="910.0" y="1250.0" type="curve" smooth="yes"/>
      <point x="555.0" y="1250.0" type="line"/>
      <point x="344.0" y="745.0" type="line"/>
      <point x="321.0" y="745.0" type="line"/>
      <point x="404.0" y="868.0"/>
      <point x="550.0" y="955.0"/>
      <point x="710.0" y="955.0" type="curve" smooth="yes"/>
      <point x="910.0" y="955.0"/>
      <point x="1063.0" y="790.0"/>
      <point x="994.0" y="493.0" type="curve" smooth="yes"/>
      <point x="979.0" y="428.0" type="line" smooth="yes"/>
      <point x="910.0" y="131.0"/>
      <point x="677.0" y="-35.0"/>
      <point x="407.0" y="-35.0" type="curve" smooth="yes"/>
      <point x="173.0" y="-35.0"/>
      <point x="55.0" y="101.0"/>
      <point x="67.0" y="288.0" type="curve" smooth="yes"/>
      <point x="72.0" y="364.0"/>
      <point x="115.0" y="398.0"/>
    </contour>
  </outline>
</glyph>
<glyph name="six" format="2">
  <advance height="1920" width="1229"/>
  <unicode hex="0036"/>
  <outline>
    <contour>
      <point x="681.0" y="740.0" type="curve" smooth="yes"/>
      <point x="531.0" y="740.0"/>
      <point x="346.0" y="675.0"/>
      <point x="304.0" y="492.0" type="curve" smooth="yes"/>
      <point x="287.0" y="422.0" type="line"/>
      <point x="251.0" y="522.0" type="line"/>
      <point x="312.0" y="786.0"/>
      <point x="548.0" y="890.0"/>
      <point x="755.0" y="890.0" type="curve" smooth="yes"/>
      <point x="1012.0" y="890.0"/>
      <point x="1168.0" y="731.0"/>
      <point x="1105.0" y="457.0" type="curve" smooth="yes"/>
      <point x="1093.0" y="407.0" type="line" smooth="yes"/>
      <point x="1029.0" y="129.0"/>
      <point x="793.0" y="-35.0"/>
      <point x="501.0" y="-35.0" type="curve" smooth="yes"/>
      <point x="124.0" y="-35.0"/>
      <point x="44.0" y="167.0"/>
      <point x="127.0" y="527.0" type="curve" smooth="yes"/>
      <point x="200.0" y="843.0" type="line" smooth="yes"/>
      <point x="288.0" y="1223.0"/>
      <point x="504.0" y="1435.0"/>
      <point x="831.0" y="1435.0" type="curve" smooth="yes"/>
      <point x="1138.0" y="1435.0"/>
      <point x="1231.0" y="1268.0"/>
      <point x="1198.0" y="1124.0" type="curve" smooth="yes"/>
      <point x="1198.0" y="1122.0" type="line" smooth="yes"/>
      <point x="1180.0" y="1045.0"/>
      <point x="1135.0" y="1012.0"/>
      <point x="1088.0" y="1012.0" type="curve" smooth="yes"/>
      <point x="1078.0" y="1012.0" type="line" smooth="yes"/>
      <point x="1031.0" y="1012.0"/>
      <point x="1010.0" y="1045.0"/>
      <point x="1023.0" y="1102.0" type="curve" smooth="yes"/>
      <point x="1026.0" y="1114.0" type="line" smooth="yes"/>
      <point x="1045.0" y="1197.0"/>
      <point x="987.0" y="1285.0"/>
      <point x="817.0" y="1285.0" type="curve" smooth="yes"/>
      <point x="590.0" y="1285.0"/>
      <point x="452.0" y="1138.0"/>
      <point x="383.0" y="838.0" type="curve" smooth="yes"/>
      <point x="287.0" y="422.0" type="line" smooth="yes"/>
      <point x="243.0" y="232.0"/>
      <point x="339.0" y="115.0"/>
      <point x="526.0" y="115.0" type="curve" smooth="yes"/>
      <point x="725.0" y="115.0"/>
      <point x="863.0" y="237.0"/>
      <point x="905.0" y="417.0" type="curve" smooth="yes"/>
      <point x="915.0" y="457.0" type="line" smooth="yes"/>
      <point x="957.0" y="640.0"/>
      <point x="871.0" y="740.0"/>
    </contour>
  </outline>
</glyph>
<glyph name="seven" format="2">
  <advance height="1920" width="1015"/>
  <unicode hex="0037"/>
  <outline>
    <contour>
      <point x="1128.0" y="1260.0" type="curve" smooth="yes"/>
      <point x="367.0" y="80.0" type="line" smooth="yes"/>
      <point x="324.0" y="13.0"/>
      <point x="270.0" y="-30.0"/>
      <point x="223.0" y="-30.0" type="curve" smooth="yes"/>
      <point x="213.0" y="-30.0" type="line" smooth="yes"/>
      <point x="156.0" y="-30.0"/>
      <point x="123.0" y="29.0"/>
      <point x="179.0" y="110.0" type="curve" smooth="yes"/>
      <point x="951.0" y="1240.0" type="line"/>
      <point x="321.0" y="1240.0" type="line" smooth="yes"/>
      <point x="244.0" y="1240.0"/>
      <point x="216.0" y="1263.0"/>
      <point x="227.0" y="1310.0" type="curve" smooth="yes"/>
      <point x="232.0" y="1330.0" type="line" smooth="yes"/>
      <point x="243.0" y="1377.0"/>
      <point x="281.0" y="1400.0"/>
      <point x="358.0" y="1400.0" type="curve" smooth="yes"/>
      <point x="1058.0" y="1400.0" type="line" smooth="yes"/>
      <point x="1165.0" y="1400.0"/>
      <point x="1187.0" y="1352.0"/>
    </contour>
  </outline>
</glyph>
<glyph name="eight" format="2">
  <advance height="1920" width="1182"/>
  <unicode hex="0038"/>
  <outline>
    <contour>
      <point x="496.0" y="110.0" type="curve" smooth="yes"/>
      <point x="676.0" y="110.0"/>
      <point x="802.0" y="196.0"/>
      <point x="836.0" y="342.0" type="curve" smooth="yes"/>
      <point x="856.0" y="427.0" type="line" smooth="yes"/>
      <point x="890.0" y="574.0"/>
      <point x="804.0" y="660.0"/>
      <point x="623.0" y="660.0" type="curve" smooth="yes"/>
      <point x="442.0" y="660.0"/>
      <point x="318.0" y="574.0"/>
      <point x="284.0" y="427.0" type="curve" smooth="yes"/>
      <point x="264.0" y="342.0" type="line" smooth="yes"/>
      <point x="230.0" y="196.0"/>
      <point x="316.0" y="110.0"/>
    </contour>
    <contour>
      <point x="658.0" y="810.0" type="curve" smooth="yes"/>
      <point x="808.0" y="810.0"/>
      <point x="912.0" y="887.0"/>
      <point x="943.0" y="1023.0" type="curve" smooth="yes"/>
      <point x="958.0" y="1088.0" type="line" smooth="yes"/>
      <point x="987.0" y="1215.0"/>
      <point x="917.0" y="1290.0"/>
      <point x="769.0" y="1290.0" type="curve" smooth="yes"/>
      <point x="621.0" y="1290.0"/>
      <point x="515.0" y="1215.0"/>
      <point x="486.0" y="1088.0" type="curve" smooth="yes"/>
      <point x="471.0" y="1023.0" type="line" smooth="yes"/>
      <point x="440.0" y="887.0"/>
      <point x="508.0" y="810.0"/>
    </contour>
    <contour>
      <point x="677.0" y="760.0" type="line"/>
      <point x="957.0" y="760.0"/>
      <point x="1091.0" y="624.0"/>
      <point x="1038.0" y="392.0" type="curve" smooth="yes"/>
      <point x="1027.0" y="347.0" type="line" smooth="yes"/>
      <point x="970.0" y="100.0"/>
      <point x="771.0" y="-35.0"/>
      <point x="463.0" y="-35.0" type="curve" smooth="yes"/>
      <point x="155.0" y="-35.0"/>
      <point x="18.0" y="100.0"/>
      <point x="75.0" y="347.0" type="curve" smooth="yes"/>
      <point x="86.0" y="392.0" type="line" smooth="yes"/>
      <point x="139.0" y="624.0"/>
      <point x="335.0" y="760.0"/>
      <point x="615.0" y="760.0" type="curve"/>
      <point x="608.0" y="720.0" type="line"/>
      <point x="343.0" y="725.0"/>
      <point x="238.0" y="837.0"/>
      <point x="289.0" y="1058.0" type="curve" smooth="yes"/>
      <point x="295.0" y="1083.0" type="line" smooth="yes"/>
      <point x="346.0" y="1304.0"/>
      <point x="534.0" y="1435.0"/>
      <point x="802.0" y="1435.0" type="curve" smooth="yes"/>
      <point x="1070.0" y="1435.0"/>
      <point x="1198.0" y="1304.0"/>
      <point x="1147.0" y="1083.0" type="curve" smooth="yes"/>
      <point x="1141.0" y="1058.0" type="line" smooth="yes"/>
      <point x="1090.0" y="837.0"/>
      <point x="933.0" y="725.0"/>
      <point x="666.0" y="720.0" type="curve"/>
    </contour>
  </outline>
</glyph>
<glyph name="nine" format="2">
  <advance height="1920" width="1169"/>
  <unicode hex="0039"/>
  <outline>
    <contour>
      <point x="601.0" y="660.0" type="curve" smooth="yes"/>
      <point x="751.0" y="660.0"/>
      <point x="913.0" y="755.0"/>
      <point x="958.0" y="948.0" type="curve" smooth="yes"/>
      <point x="974.0" y="1018.0" type="line"/>
      <point x="1011.0" y="918.0" type="line"/>
      <point x="948.0" y="644.0"/>
      <point x="734.0" y="510.0"/>
      <point x="527.0" y="510.0" type="curve" smooth="yes"/>
      <point x="290.0" y="510.0"/>
      <point x="145.0" y="669.0"/>
      <point x="208.0" y="943.0" type="curve" smooth="yes"/>
      <point x="219.0" y="993.0" type="line" smooth="yes"/>
      <point x="283.0" y="1271.0"/>
      <point x="509.0" y="1435.0"/>
      <point x="781.0" y="1435.0" type="curve" smooth="yes"/>
      <point x="1138.0" y="1435.0"/>
      <point x="1211.0" y="1243.0"/>
      <point x="1135.0" y="913.0" type="curve" smooth="yes"/>
      <point x="1053.0" y="557.0" type="line" smooth="yes"/>
      <point x="965.0" y="177.0"/>
      <point x="738.0" y="-35.0"/>
      <point x="432.0" y="-35.0" type="curve" smooth="yes"/>
      <point x="125.0" y="-35.0"/>
      <point x="32.0" y="132.0"/>
      <point x="65.0" y="276.0" type="curve" smooth="yes"/>
      <point x="65.0" y="278.0" type="line" smooth="yes"/>
      <point x="83.0" y="355.0"/>
      <point x="129.0" y="388.0"/>
      <point x="176.0" y="388.0" type="curve" smooth="yes"/>
      <point x="186.0" y="388.0" type="line" smooth="yes"/>
      <point x="233.0" y="388.0"/>
      <point x="253.0" y="355.0"/>
      <point x="240.0" y="298.0" type="curve" smooth="yes"/>
      <point x="237.0" y="286.0" type="line" smooth="yes"/>
      <point x="218.0" y="203.0"/>
      <point x="277.0" y="115.0"/>
      <point x="447.0" y="115.0" type="curve" smooth="yes"/>
      <point x="653.0" y="115.0"/>
      <point x="800.0" y="262.0"/>
      <point x="869.0" y="562.0" type="curve" smooth="yes"/>
      <point x="974.0" y="1018.0" type="line" smooth="yes"/>
      <point x="1009.0" y="1168.0"/>
      <point x="924.0" y="1285.0"/>
      <point x="757.0" y="1285.0" type="curve" smooth="yes"/>
      <point x="578.0" y="1285.0"/>
      <point x="449.0" y="1163.0"/>
      <point x="407.0" y="983.0" type="curve" smooth="yes"/>
      <point x="398.0" y="943.0" type="line" smooth="yes"/>
      <point x="356.0" y="760.0"/>
      <point x="431.0" y="660.0"/>
    </contour>
  </outline>
</glyph>
<glyph name="less" format="2">
  <advance height="1920" width="1010"/>
  <unicode hex="003C"/>
  <outline>
    <contour>
      <point x="689.0" y="126.0" type="curve" smooth="yes"/>
      <point x="129.0" y="514.0" type="line" smooth="yes"/>
      <point x="91.0" y="540.0"/>
      <point x="78.0" y="558.0"/>
      <point x="87.0" y="595.0" type="curve" smooth="yes"/>
      <point x="90.0" y="605.0" type="line" smooth="yes"/>
      <point x="99.0" y="642.0"/>
      <point x="118.0" y="660.0"/>
      <point x="168.0" y="686.0" type="curve" smooth="yes"/>
      <point x="908.0" y="1074.0" type="line" smooth="yes"/>
      <point x="975.0" y="1109.0"/>
      <point x="1014.0" y="1057.0"/>
      <point x="1003.0" y="1010.0" type="curve" smooth="yes"/>
      <point x="1001.0" y="1000.0" type="line" smooth="yes"/>
      <point x="990.0" y="953.0"/>
      <point x="935.0" y="918.0"/>
      <point x="866.0" y="884.0" type="curve" smooth="yes"/>
      <point x="278.0" y="590.0" type="line"/>
      <point x="731.0" y="296.0" type="line" smooth="yes"/>
      <point x="784.0" y="262.0"/>
      <point x="827.0" y="237.0"/>
      <point x="816.0" y="190.0" type="curve" smooth="yes"/>
      <point x="814.0" y="180.0" type="line" smooth="yes"/>
      <point x="803.0" y="133.0"/>
      <point x="740.0" y="91.0"/>
    </contour>
  </outline>
</glyph>
<glyph name="equal" format="2">
  <advance height="1920" width="1180"/>
  <unicode hex="003D"/>
  <outline>
    <contour>
      <point x="73.0" y="305.0" type="curve" smooth="yes"/>
      <point x="73.0" y="320.0" type="line" smooth="yes"/>
      <point x="73.0" y="357.0"/>
      <point x="106.0" y="390.0"/>
      <point x="173.0" y="390.0" type="curve" smooth="yes"/>
      <point x="913.0" y="390.0" type="line" smooth="yes"/>
      <point x="980.0" y="390.0"/>
      <point x="1013.0" y="357.0"/>
      <point x="1013.0" y="320.0" type="curve" smooth="yes"/>
      <point x="1013.0" y="305.0" type="line" smooth="yes"/>
      <point x="1013.0" y="268.0"/>
      <point x="980.0" y="235.0"/>
      <point x="913.0" y="235.0" type="curve" smooth="yes"/>
      <point x="173.0" y="235.0" type="line" smooth="yes"/>
      <point x="106.0" y="235.0"/>
      <point x="73.0" y="268.0"/>
    </contour>
    <contour>
      <point x="159.0" y="675.0" type="curve" smooth="yes"/>
      <point x="159.0" y="690.0" type="line" smooth="yes"/>
      <point x="159.0" y="727.0"/>
      <point x="192.0" y="760.0"/>
      <point x="259.0" y="760.0" type="curve" smooth="yes"/>
      <point x="999.0" y="760.0" type="line" smooth="yes"/>
      <point x="1066.0" y="760.0"/>
      <point x="1099.0" y="727.0"/>
      <point x="1099.0" y="690.0" type="curve" smooth="yes"/>
      <point x="1099.0" y="675.0" type="line" smooth="yes"/>
      <point x="1099.0" y="638.0"/>
      <point x="1066.0" y="605.0"/>
      <point x="999.0" y="605.0" type="curve" smooth="yes"/>
      <point x="259.0" y="605.0" type="line" smooth="yes"/>
      <point x="192.0" y="605.0"/>
      <point x="159.0" y="638.0"/>
    </contour>
  </outline>
</glyph>
<glyph name="greater" format="2">
  <advance height="1920" width="1010"/>
  <unicode hex="003E"/>
  <outline>
    <contour>
      <point x="358.0" y="1074.0" type="curve" smooth="yes"/>
      <point x="918.0" y="686.0" type="line" smooth="yes"/>
      <point x="956.0" y="660.0"/>
      <point x="969.0" y="642.0"/>
      <point x="960.0" y="605.0" type="curve" smooth="yes"/>
      <point x="957.0" y="595.0" type="line" smooth="yes"/>
      <point x="948.0" y="558.0"/>
      <point x="929.0" y="540.0"/>
      <point x="879.0" y="514.0" type="curve" smooth="yes"/>
      <point x="139.0" y="126.0" type="line" smooth="yes"/>
      <point x="72.0" y="91.0"/>
      <point x="33.0" y="153.0"/>
      <point x="44.0" y="200.0" type="curve" smooth="yes"/>
      <point x="46.0" y="210.0" type="line" smooth="yes"/>
      <point x="57.0" y="257.0"/>
      <point x="112.0" y="282.0"/>
      <point x="181.0" y="316.0" type="curve" smooth="yes"/>
      <point x="770.0" y="610.0" type="line"/>
      <point x="316.0" y="904.0" type="line" smooth="yes"/>
      <point x="263.0" y="938.0"/>
      <point x="220.0" y="963.0"/>
      <point x="231.0" y="1010.0" type="curve" smooth="yes"/>
      <point x="233.0" y="1020.0" type="line" smooth="yes"/>
      <point x="244.0" y="1067.0"/>
      <point x="307.0" y="1109.0"/>
    </contour>
  </outline>
</glyph>
<glyph name="question" format="2">
  <advance height="1920" width="1080"/>
  <unicode hex="003F"/>
  <outline>
    <contour>
      <point x="474.0" y="-30.0" type="curve" smooth="yes"/>
      <point x="464.0" y="-30.0" type="line" smooth="yes"/>
      <point x="387.0" y="-30.0"/>
      <point x="334.0" y="33.0"/>
      <point x="334.0" y="100.0" type="curve" smooth="yes"/>
      <point x="334.0" y="110.0" type="line" smooth="yes"/>
      <point x="334.0" y="177.0"/>
      <point x="387.0" y="240.0"/>
      <point x="464.0" y="240.0" type="curve" smooth="yes"/>
      <point x="474.0" y="240.0" type="line" smooth="yes"/>
      <point x="551.0" y="240.0"/>
      <point x="604.0" y="177.0"/>
      <point x="604.0" y="110.0" type="curve" smooth="yes"/>
      <point x="604.0" y="100.0" type="line" smooth="yes"/>
      <point x="604.0" y="33.0"/>
      <point x="551.0" y="-30.0"/>
    </contour>
    <contour>
      <point x="517.0" y="370.0" type="curve" smooth="yes"/>
      <point x="515.0" y="370.0" type="line" smooth="yes"/>
      <point x="488.0" y="370.0"/>
      <point x="468.0" y="398.0"/>
      <point x="476.0" y="439.0" type="curve" smooth="yes"/>
      <point x="537.0" y="742.0"/>
      <point x="859.0" y="754.0"/>
      <point x="921.0" y="1023.0" type="curve" smooth="yes"/>
      <point x="932.0" y="1068.0" type="line" smooth="yes"/>
      <point x="971.0" y="1238.0"/>
      <point x="924.0" y="1335.0"/>
      <point x="767.0" y="1335.0" type="curve" smooth="yes"/>
      <point x="597.0" y="1335.0"/>
      <point x="490.0" y="1235.0"/>
      <point x="448.0" y="1052.0" type="curve" smooth="yes"/>
      <point x="443.0" y="1032.0" type="line" smooth="yes"/>
      <point x="425.0" y="955.0"/>
      <point x="380.0" y="922.0"/>
      <point x="333.0" y="922.0" type="curve" smooth="yes"/>
      <point x="323.0" y="922.0" type="line" smooth="yes"/>
      <point x="276.0" y="922.0"/>
      <point x="245.0" y="955.0"/>
      <point x="263.0" y="1032.0" type="curve" smooth="yes"/>
      <point x="268.0" y="1052.0" type="line" smooth="yes"/>
      <point x="331.0" y="1326.0"/>
      <point x="535.0" y="1485.0"/>
      <point x="812.0" y="1485.0" type="curve" smooth="yes"/>
      <point x="1059.0" y="1485.0"/>
      <point x="1195.0" y="1343.0"/>
      <point x="1133.0" y="1073.0" type="curve" smooth="yes"/>
      <point x="1127.0" y="1048.0" type="line" smooth="yes"/>
      <point x="1055.0" y="735.0"/>
      <point x="743.0" y="729.0"/>
      <point x="598.0" y="438.0" type="curve" smooth="yes"/>
      <point x="579.0" y="399.0"/>
      <point x="544.0" y="370.0"/>
    </contour>
  </outline>
</glyph>
<glyph name="at" format="2">
  <advance height="1920" width="1990"/>
  <unicode hex="0040"/>
  <outline>
    <contour>
      <point x="1254.0" y="472.0" type="line"/>
      <point x="1187.0" y="182.0"/>
      <point x="1007.0" y="40.0"/>
      <point x="810.0" y="40.0" type="curve" smooth="yes"/>
      <point x="623.0" y="40.0"/>
      <point x="482.0" y="157.0"/>
      <point x="560.0" y="497.0" type="curve" smooth="yes"/>
      <point x="567.0" y="528.0" type="line" smooth="yes"/>
      <point x="641.0" y="848.0"/>
      <point x="831.0" y="985.0"/>
      <point x="1018.0" y="985.0" type="curve" smooth="yes"/>
      <point x="1225.0" y="985.0"/>
      <point x="1350.0" y="843.0"/>
      <point x="1283.0" y="553.0" type="curve"/>
      <point x="1178.0" y="533.0" type="line"/>
      <point x="1226.0" y="743.0"/>
      <point x="1173.0" y="845.0"/>
      <point x="1036.0" y="845.0" type="curve" smooth="yes"/>
      <point x="909.0" y="845.0"/>
      <point x="811.0" y="763.0"/>
      <point x="763.0" y="553.0" type="curve" smooth="yes"/>
      <point x="744.0" y="472.0" type="line" smooth="yes"/>
      <point x="696.0" y="262.0"/>
      <point x="756.0" y="180.0"/>
      <point x="883.0" y="180.0" type="curve" smooth="yes"/>
      <point x="1020.0" y="180.0"/>
      <point x="1121.0" y="282.0"/>
      <point x="1169.0" y="492.0" type="curve"/>
    </contour>
    <contour>
      <point x="1106.0" y="-285.0" type="curve" smooth="yes"/>
      <point x="1017.0" y="-328.0"/>
      <point x="932.0" y="-360.0"/>
      <point x="782.0" y="-360.0" type="curve" smooth="yes"/>
      <point x="225.0" y="-360.0"/>
      <point x="-17.0" y="13.0"/>
      <point x="94.0" y="493.0" type="curve" smooth="yes"/>
      <point x="115.0" y="583.0" type="line" smooth="yes"/>
      <point x="233.0" y="1093.0"/>
      <point x="699.0" y="1435.0"/>
      <point x="1236.0" y="1435.0" type="curve" smooth="yes"/>
      <point x="1843.0" y="1435.0"/>
      <point x="2006.0" y="1024.0"/>
      <point x="1916.0" y="633.0" type="curve" smooth="yes"/>
      <point x="1895.0" y="543.0" type="line" smooth="yes"/>
      <point x="1812.0" y="183.0"/>
      <point x="1586.0" y="40.0"/>
      <point x="1379.0" y="40.0" type="curve" smooth="yes"/>
      <point x="1172.0" y="40.0"/>
      <point x="1098.0" y="185.0"/>
      <point x="1149.0" y="405.0" type="curve" smooth="yes"/>
      <point x="1234.0" y="775.0" type="line"/>
      <point x="1319.0" y="895.0" type="line" smooth="yes"/>
      <point x="1361.0" y="954.0"/>
      <point x="1395.0" y="985.0"/>
      <point x="1422.0" y="985.0" type="curve" smooth="yes"/>
      <point x="1423.0" y="985.0" type="line" smooth="yes"/>
      <point x="1450.0" y="985.0"/>
      <point x="1470.0" y="972.0"/>
      <point x="1459.0" y="925.0" type="curve" smooth="yes"/>
      <point x="1348.0" y="445.0" type="line" smooth="yes"/>
      <point x="1303.0" y="250.0"/>
      <point x="1325.0" y="180.0"/>
      <point x="1432.0" y="180.0" type="curve" smooth="yes"/>
      <point x="1529.0" y="180.0"/>
      <point x="1660.0" y="303.0"/>
      <point x="1715.0" y="543.0" type="curve" smooth="yes"/>
      <point x="1736.0" y="633.0" type="line" smooth="yes"/>
      <point x="1814.0" y="973.0"/>
      <point x="1651.0" y="1295.0"/>
      <point x="1204.0" y="1295.0" type="curve" smooth="yes"/>
      <point x="797.0" y="1295.0"/>
      <point x="404.0" y="1013.0"/>
      <point x="307.0" y="593.0" type="curve" smooth="yes"/>
      <point x="282.0" y="483.0" type="line" smooth="yes"/>
      <point x="194.0" y="103.0"/>
      <point x="377.0" y="-220.0"/>
      <point x="814.0" y="-220.0" type="curve" smooth="yes"/>
      <point x="916.0" y="-220.0"/>
      <point x="1008.0" y="-191.0"/>
      <point x="1081.0" y="-154.0" type="curve" smooth="yes"/>
      <point x="1143.0" y="-123.0"/>
      <point x="1176.0" y="-147.0"/>
      <point x="1178.0" y="-172.0" type="curve" smooth="yes"/>
      <point x="1179.0" y="-178.0" type="line" smooth="yes"/>
      <point x="1183.0" y="-213.0"/>
      <point x="1162.0" y="-257.0"/>
    </contour>
  </outline>
</glyph>
<glyph name="A" format="2">
  <advance height="1872" width="1238"/>
  <unicode hex="0041"/>
  <anchor x="505.0" y="0.0" name="bottom"/>
  <anchor x="1010.0" y="0.0" name="ogonek"/>
  <anchor x="827.0" y="1400.0" name="top"/>
  <outline>
    <contour>
      <point x="277.0" y="566.0" type="line"/>
      <point x="886.0" y="566.0" type="line"/>
      <point x="886.0" y="420.0" type="line"/>
      <point x="277.0" y="420.0" type="line"/>
    </contour>
    <contour>
      <point x="777.0" y="1227.0" type="line"/>
      <point x="133.0" y="55.0" type="line" smooth="yes"/>
      <point x="111.790646486" y="16.4016113065"/>
      <point x="72.486328125" y="-35.0"/>
      <point x="25.0" y="-35.0" type="curve" smooth="yes"/>
      <point x="19.0" y="-35.0" type="line" smooth="yes"/>
      <point x="-37.40234375" y="-35.0"/>
      <point x="-66.6524297109" y="25.7959192594"/>
      <point x="-36.0" y="80.0" type="curve" smooth="yes"/>
      <point x="659.0" y="1309.0" type="line" smooth="yes"/>
      <point x="688.346742201" y="1360.89517434"/>
      <point x="732.0" y="1400.0"/>
      <point x="809.0" y="1400.0" type="curve" smooth="yes"/>
      <point x="816.0" y="1400.0" type="line" smooth="yes"/>
      <point x="903.0" y="1400.0"/>
      <point x="929.408845142" y="1361.48729386"/>
      <point x="935.0" y="1311.0" type="curve" smooth="yes"/>
      <point x="1069.0" y="101.0" type="line" smooth="yes"/>
      <point x="1078.21550848" y="17.7853338898"/>
      <point x="1049.875" y="-35.0"/>
      <point x="990.0" y="-35.0" type="curve" smooth="yes"/>
      <point x="984.0" y="-35.0" type="line" smooth="yes"/>
      <point x="923.797851562" y="-35.0"/>
      <point x="893.632003557" y="-0.262884275777"/>
      <point x="888.0" y="59.0" type="curve" smooth="yes"/>
    </contour>
  </outline>
</glyph>
<glyph name="B" format="2">
  <advance height="1872" width="1240"/>
  <unicode hex="0042"/>
  <anchor x="505.0" y="0.0" name="bottom"/>
  <anchor x="827.0" y="1400.0" name="top"/>
  <outline>
    <contour>
      <point x="414.0" y="788.0" type="line"/>
      <point x="730.0" y="788.0" type="line" smooth="yes"/>
      <point x="891.0" y="788.0"/>
      <point x="991.0" y="859.0"/>
      <point x="1019.0" y="980.0" type="curve" smooth="yes"/>
      <point x="1040.0" y="1071.0" type="line" smooth="yes"/>
      <point x="1068.0" y="1192.0"/>
      <point x="998.0" y="1253.0"/>
      <point x="837.0" y="1253.0" type="curve" smooth="yes"/>
      <point x="521.0" y="1253.0" type="line"/>
    </contour>
    <contour>
      <point x="741.0" y="749.0" type="line"/>
      <point x="990.0" y="749.0"/>
      <point x="1189.0" y="653.0"/>
      <point x="1132.0" y="406.0" type="curve" smooth="yes"/>
      <point x="1117.0" y="342.0" type="line" smooth="yes"/>
      <point x="1053.0" y="66.0"/>
      <point x="818.0" y="0.0"/>
      <point x="568.0" y="0.0" type="curve" smooth="yes"/>
      <point x="155.0" y="0.0" type="line" smooth="yes"/>
      <point x="68.5680663899" y="0.0"/>
      <point x="57.4299555284" y="54.5298072899"/>
      <point x="73.0" y="122.0" type="curve" smooth="yes"/>
      <point x="349.0" y="1318.0" type="line" smooth="yes"/>
      <point x="358.814578726" y="1360.52984115"/>
      <point x="386.183000794" y="1400.0"/>
      <point x="458.0" y="1400.0" type="curve" smooth="yes"/>
      <point x="871.0" y="1400.0" type="line" smooth="yes"/>
      <point x="1121.0" y="1400.0"/>
      <point x="1293.0" y="1315.0"/>
      <point x="1236.0" y="1068.0" type="curve" smooth="yes"/>
      <point x="1227.0" y="1033.0" type="line" smooth="yes"/>
      <point x="1170.0" y="786.0"/>
      <point x="959.0" y="700.0"/>
      <point x="710.0" y="700.0" type="curve"/>
    </contour>
    <contour>
      <point x="715.0" y="641.0" type="curve" smooth="yes"/>
      <point x="380.0" y="641.0" type="line"/>
      <point x="266.0" y="147.0" type="line"/>
      <point x="601.0" y="147.0" type="line" smooth="yes"/>
      <point x="772.0" y="147.0"/>
      <point x="892.0" y="217.0"/>
      <point x="920.0" y="338.0" type="curve" smooth="yes"/>
      <point x="943.0" y="439.0" type="line" smooth="yes"/>
      <point x="971.0" y="560.0"/>
      <point x="887.0" y="641.0"/>
    </contour>
  </outline>
</glyph>
<glyph name="C" format="2">
  <advance height="1872" width="1340"/>
  <unicode hex="0043"/>
  <anchor x="565.0" y="0.0" name="bottom"/>
  <anchor x="907.0" y="1400.0" name="top"/>
  <outline>
    <contour>
      <point x="1204.0" y="435.0" type="curve" smooth="yes"/>
      <point x="1193.76020245" y="403.075925289"/>
      <point x="1179.18413656" y="374.895282013"/>
      <point x="1145.0" y="315.0" type="curve" smooth="yes"/>
      <point x="1028.0" y="110.0"/>
      <point x="853.0" y="-34.0"/>
      <point x="574.0" y="-34.0" type="curve" smooth="yes"/>
      <point x="198.0" y="-34.0"/>
      <point x="31.0" y="232.0"/>
      <point x="117.0" y="605.0" type="curve" smooth="yes"/>
      <point x="161.0" y="796.0" type="line" smooth="yes"/>
      <point x="247.0" y="1169.0"/>
      <point x="488.0" y="1434.0"/>
      <point x="863.0" y="1434.0" type="curve" smooth="yes"/>
      <point x="1137.0" y="1434.0"/>
      <point x="1310.0" y="1312.0"/>
      <point x="1310.0" y="1134.0" type="curve" smooth="yes"/>
      <point x="1310.0" y="1082.0"/>
      <point x="1304.87114948" y="1023.50364379"/>
      <point x="1279.0" y="964.0" type="curve" smooth="yes"/>
      <point x="1259.0" y="918.0"/>
      <point x="1228.0" y="878.0"/>
      <point x="1181.0" y="878.0" type="curve" smooth="yes"/>
      <point x="1175.0" y="878.0" type="line" smooth="yes"/>
      <point x="1128.0" y="878.0"/>
      <point x="1101.67699166" y="913.573065514"/>
      <point x="1128.0" y="983.0" type="curve" smooth="yes"/>
      <point x="1208.0" y="1194.0"/>
      <point x="1071.0" y="1296.0"/>
      <point x="861.0" y="1296.0" type="curve" smooth="yes"/>
      <point x="593.0" y="1296.0"/>
      <point x="423.0" y="1081.0"/>
      <point x="359.0" y="806.0" type="curve" smooth="yes"/>
      <point x="310.0" y="595.0" type="line" smooth="yes"/>
      <point x="249.0" y="330.0"/>
      <point x="319.0" y="104.0"/>
      <point x="586.0" y="104.0" type="curve" smooth="yes"/>
      <point x="815.0" y="104.0"/>
      <point x="973.0" y="263.0"/>
      <point x="1041.0" y="437.0" type="curve" smooth="yes"/>
      <point x="1064.04986497" y="495.980536831"/>
      <point x="1105.0" y="543.0"/>
      <point x="1142.0" y="543.0" type="curve" smooth="yes"/>
      <point x="1144.0" y="543.0" type="line" smooth="yes"/>
      <point x="1206.01269531" y="543.0"/>
      <point x="1221.0" y="488.0"/>
    </contour>
  </outline>
</glyph>
<glyph name="D" format="2">
  <advance height="1872" width="1336"/>
  <unicode hex="0044"/>
  <anchor x="505.0" y="0.0" name="bottom"/>
  <anchor x="857.0" y="1400.0" name="top"/>
  <outline>
    <contour>
      <point x="591.0" y="0.0" type="curve" smooth="yes"/>
      <point x="155.0" y="0.0" type="line" smooth="yes"/>
      <point x="62.5129774407" y="0.0"/>
      <point x="56.2293504204" y="50.4106436375"/>
      <point x="70.0" y="110.0" type="curve" smooth="yes"/>
      <point x="345.0" y="1300.0" type="line" smooth="yes"/>
      <point x="360.308624345" y="1366.24459262"/>
      <point x="389.394122864" y="1400.0"/>
      <point x="478.0" y="1400.0" type="curve" smooth="yes"/>
      <point x="854.0" y="1400.0" type="line" smooth="yes"/>
      <point x="1161.0" y="1400.0"/>
      <point x="1390.0" y="1174.0"/>
      <point x="1303.0" y="795.0" type="curve" smooth="yes"/>
      <point x="1259.0" y="606.0" type="line" smooth="yes"/>
      <point x="1171.0" y="226.0"/>
      <point x="937.0" y="0.0"/>
    </contour>
    <contour>
      <point x="557.0" y="147.0" type="line" smooth="yes"/>
      <point x="803.0" y="147.0"/>
      <point x="993.0" y="302.0"/>
      <point x="1061.0" y="596.0" type="curve" smooth="yes"/>
      <point x="1109.0" y="804.0" type="line" smooth="yes"/>
      <point x="1177.0" y="1097.0"/>
      <point x="1058.0" y="1253.0"/>
      <point x="812.0" y="1253.0" type="curve" smooth="yes"/>
      <point x="521.0" y="1253.0" type="line"/>
      <point x="266.0" y="147.0" type="line"/>
    </contour>
  </outline>
</glyph>
<glyph name="E" format="2">
  <advance height="1872" width="1238"/>
  <unicode hex="0045"/>
  <anchor x="565.0" y="0.0" name="bottom"/>
  <anchor x="980.0" y="0.0" name="ogonek"/>
  <anchor x="887.0" y="1400.0" name="top"/>
  <outline>
    <contour>
      <point x="414.0" y="788.0" type="line"/>
      <point x="852.0" y="788.0" type="line" smooth="yes"/>
      <point x="909.0" y="788.0"/>
      <point x="945.0" y="765.0"/>
      <point x="945.0" y="718.0" type="curve" smooth="yes"/>
      <point x="945.0" y="711.0" type="line" smooth="yes"/>
      <point x="945.0" y="654.0"/>
      <point x="895.0" y="641.0"/>
      <point x="828.0" y="641.0" type="curve" smooth="yes"/>
      <point x="380.0" y="641.0" type="line"/>
      <point x="266.0" y="147.0" type="line"/>
      <point x="995.0" y="147.0" type="line" smooth="yes"/>
      <point x="1032.0" y="147.0"/>
      <point x="1058.0" y="124.0"/>
      <point x="1058.0" y="77.0" type="curve" smooth="yes"/>
      <point x="1058.0" y="70.0" type="line" smooth="yes"/>
      <point x="1058.0" y="33.0"/>
      <point x="1018.0" y="0.0"/>
      <point x="981.0" y="0.0" type="curve" smooth="yes"/>
      <point x="155.0" y="0.0" type="line" smooth="yes"/>
      <point x="68.0" y="0.0"/>
      <point x="50.7930458802" y="26.9809309108"/>
      <point x="70.0" y="110.0" type="curve" smooth="yes"/>
      <point x="343.0" y="1290.0" type="line" smooth="yes"/>
      <point x="362.20695412" y="1373.01906909"/>
      <point x="391.0" y="1400.0"/>
      <point x="478.0" y="1400.0" type="curve" smooth="yes"/>
      <point x="1235.0" y="1400.0" type="line" smooth="yes"/>
      <point x="1272.0" y="1400.0"/>
      <point x="1328.0" y="1377.0"/>
      <point x="1328.0" y="1330.0" type="curve" smooth="yes"/>
      <point x="1328.0" y="1323.0" type="line" smooth="yes"/>
      <point x="1328.0" y="1276.0"/>
      <point x="1288.0" y="1253.0"/>
      <point x="1221.0" y="1253.0" type="curve" smooth="yes"/>
      <point x="521.0" y="1253.0" type="line"/>
    </contour>
  </outline>
</glyph>
<glyph name="F" format="2">
  <advance height="1872" width="1131"/>
  <unicode hex="0046"/>
  <anchor x="525.0" y="0.0" name="bottom"/>
  <anchor x="847.0" y="1400.0" name="top"/>
  <outline>
    <contour>
      <point x="414.0" y="788.0" type="line"/>
      <point x="787.0" y="788.0" type="line" smooth="yes"/>
      <point x="835.0" y="788.0"/>
      <point x="860.0" y="766.0"/>
      <point x="860.0" y="718.0" type="curve" smooth="yes"/>
      <point x="860.0" y="711.0" type="line" smooth="yes"/>
      <point x="860.0" y="663.0"/>
      <point x="831.0" y="641.0"/>
      <point x="783.0" y="641.0" type="curve" smooth="yes"/>
      <point x="380.0" y="641.0" type="line"/>
      <point x="246.0" y="60.0" type="line" smooth="yes"/>
      <point x="235.387556713" y="13.9863466445"/>
      <point x="200.0" y="-30.0"/>
      <point x="142.0" y="-30.0" type="curve" smooth="yes"/>
      <point x="138.0" y="-30.0" type="line" smooth="yes"/>
      <point x="70.0" y="-30.0"/>
      <point x="48.3796051738" y="13.9898204599"/>
      <point x="59.0" y="60.0" type="curve" smooth="yes"/>
      <point x="366.0" y="1390.0" type="line" smooth="yes"/>
      <point x="368.0" y="1397.0"/>
      <point x="371.0" y="1400.0"/>
      <point x="378.0" y="1400.0" type="curve" smooth="yes"/>
      <point x="1196.0" y="1400.0" type="line" smooth="yes"/>
      <point x="1243.0" y="1400.0"/>
      <point x="1284.0" y="1387.0"/>
      <point x="1284.0" y="1330.0" type="curve" smooth="yes"/>
      <point x="1284.0" y="1323.0" type="line" smooth="yes"/>
      <point x="1284.0" y="1266.0"/>
      <point x="1239.0" y="1253.0"/>
      <point x="1202.0" y="1253.0" type="curve" smooth="yes"/>
      <point x="521.0" y="1253.0" type="line"/>
    </contour>
  </outline>
</glyph>
<glyph name="G" format="2">
  <advance height="1872" width="1340"/>
  <unicode hex="0047"/>
  <anchor x="575.0" y="0.0" name="bottom"/>
  <anchor x="897.0" y="1400.0" name="top"/>
  <outline>
    <contour>
      <point x="719.0" y="637.0" type="curve" smooth="yes"/>
      <point x="719.0" y="639.0" type="line" smooth="yes"/>
      <point x="719.0" y="696.0"/>
      <point x="755.0" y="709.0"/>
      <point x="812.0" y="709.0" type="curve" smooth="yes"/>
      <point x="1163.0" y="709.0" type="line" smooth="yes"/>
      <point x="1230.0" y="709.0"/>
      <point x="1261.78847454" y="663.047143401"/>
      <point x="1247.0" y="599.0" type="curve" smooth="yes"/>
      <point x="1125.0" y="70.0" type="line" smooth="yes"/>
      <point x="1110.22753753" y="5.94563406565"/>
      <point x="1090.0" y="-30.0"/>
      <point x="1053.0" y="-30.0" type="curve" smooth="yes"/>
      <point x="1051.0" y="-30.0" type="line" smooth="yes"/>
      <point x="1024.0" y="-30.0"/>
      <point x="1001.68349176" y="-6.99005830171"/>
      <point x="1001.0" y="40.0" type="curve" smooth="yes"/>
      <point x="997.0" y="315.0" type="line"/>
      <point x="1154.0" y="621.0" type="line"/>
      <point x="1043.0" y="227.0"/>
      <point x="873.0" y="-34.0"/>
      <point x="554.0" y="-34.0" type="curve" smooth="yes"/>
      <point x="188.0" y="-34.0"/>
      <point x="30.0" y="230.0"/>
      <point x="117.0" y="606.0" type="curve" smooth="yes"/>
      <point x="161.0" y="795.0" type="line" smooth="yes"/>
      <point x="247.0" y="1169.0"/>
      <point x="477.0" y="1434.0"/>
      <point x="853.0" y="1434.0" type="curve" smooth="yes"/>
      <point x="1130.0" y="1434.0"/>
      <point x="1268.0" y="1320.0"/>
      <point x="1302.0" y="1166.0" type="curve" smooth="yes"/>
      <point x="1316.0" y="1104.0"/>
      <point x="1314.37876787" y="1058.1736522"/>
      <point x="1310.0" y="1018.0" type="curve" smooth="yes"/>
      <point x="1303.60342547" y="959.313682734"/>
      <point x="1264.0" y="928.0"/>
      <point x="1227.0" y="928.0" type="curve" smooth="yes"/>
      <point x="1220.0" y="928.0" type="line" smooth="yes"/>
      <point x="1173.0" y="928.0"/>
      <point x="1148.01936867" y="959.269836976"/>
      <point x="1154.0" y="1018.0" type="curve" smooth="yes"/>
      <point x="1170.18399305" y="1176.92779488"/>
      <point x="1061.0" y="1297.0"/>
      <point x="851.0" y="1297.0" type="curve" smooth="yes"/>
      <point x="603.0" y="1297.0"/>
      <point x="427.0" y="1098.0"/>
      <point x="359.0" y="804.0" type="curve" smooth="yes"/>
      <point x="311.0" y="596.0" type="line" smooth="yes"/>
      <point x="249.0" y="328.0"/>
      <point x="329.0" y="103.0"/>
      <point x="596.0" y="103.0" type="curve" smooth="yes"/>
      <point x="805.0" y="103.0"/>
      <point x="985.0" y="267.0"/>
      <point x="1090.0" y="616.0" type="curve"/>
      <point x="1091.0" y="567.0" type="line"/>
      <point x="807.0" y="567.0" type="line" smooth="yes"/>
      <point x="750.0" y="567.0"/>
      <point x="719.0" y="580.0"/>
    </contour>
  </outline>
</glyph>
<glyph name="H" format="2">
  <advance height="1872" width="1336"/>
  <unicode hex="0048"/>
  <anchor x="535.0" y="0.0" name="bottom"/>
  <anchor x="857.0" y="1400.0" name="top"/>
  <outline>
    <contour>
      <point x="1304.0" y="1430.0" type="curve" smooth="yes"/>
      <point x="1314.0" y="1430.0" type="line" smooth="yes"/>
      <point x="1371.0" y="1430.0"/>
      <point x="1390.0" y="1387.0"/>
      <point x="1375.0" y="1320.0" type="curve" smooth="yes"/>
      <point x="1088.0" y="80.0" type="line" smooth="yes"/>
      <point x="1073.0" y="13.0"/>
      <point x="1034.0" y="-30.0"/>
      <point x="977.0" y="-30.0" type="curve" smooth="yes"/>
      <point x="967.0" y="-30.0" type="line" smooth="yes"/>
      <point x="910.0" y="-30.0"/>
      <point x="887.0" y="13.0"/>
      <point x="902.0" y="80.0" type="curve" smooth="yes"/>
      <point x="1032.0" y="640.0" type="line"/>
      <point x="360.0" y="640.0" type="line"/>
      <point x="230.0" y="80.0" type="line" smooth="yes"/>
      <point x="215.0" y="13.0"/>
      <point x="174.0" y="-30.0"/>
      <point x="117.0" y="-30.0" type="curve" smooth="yes"/>
      <point x="107.0" y="-30.0" type="line" smooth="yes"/>
      <point x="50.0" y="-30.0"/>
      <point x="29.0" y="13.0"/>
      <point x="44.0" y="80.0" type="curve" smooth="yes"/>
      <point x="331.0" y="1320.0" type="line" smooth="yes"/>
      <point x="346.0" y="1387.0"/>
      <point x="387.0" y="1430.0"/>
      <point x="444.0" y="1430.0" type="curve" smooth="yes"/>
      <point x="454.0" y="1430.0" type="line" smooth="yes"/>
      <point x="511.0" y="1430.0"/>
      <point x="532.0" y="1387.0"/>
      <point x="517.0" y="1320.0" type="curve" smooth="yes"/>
      <point x="394.0" y="790.0" type="line"/>
      <point x="1066.0" y="790.0" type="line"/>
      <point x="1189.0" y="1320.0" type="line" smooth="yes"/>
      <point x="1204.0" y="1387.0"/>
      <point x="1247.0" y="1430.0"/>
    </contour>
  </outline>
</glyph>
<glyph name="I" format="2">
  <advance height="1872" width="536"/>
  <unicode hex="0049"/>
  <anchor x="160.0" y="0.0" name="bottom"/>
  <anchor x="160.0" y="0.0" name="ogonek"/>
  <anchor x="482.0" y="1400.0" name="top"/>
  <outline>
    <contour>
      <point x="473.0" y="1430.0" type="curve" smooth="yes"/>
      <point x="483.0" y="1430.0" type="line" smooth="yes"/>
      <point x="530.0" y="1430.0"/>
      <point x="564.0" y="1397.0"/>
      <point x="546.0" y="1320.0" type="curve" smooth="yes"/>
      <point x="259.0" y="80.0" type="line" smooth="yes"/>
      <point x="241.0" y="3.0"/>
      <point x="193.0" y="-30.0"/>
      <point x="146.0" y="-30.0" type="curve" smooth="yes"/>
      <point x="136.0" y="-30.0" type="line" smooth="yes"/>
      <point x="89.0" y="-30.0"/>
      <point x="55.0" y="3.0"/>
      <point x="73.0" y="80.0" type="curve" smooth="yes"/>
      <point x="360.0" y="1320.0" type="line" smooth="yes"/>
      <point x="378.0" y="1397.0"/>
      <point x="426.0" y="1430.0"/>
    </contour>
  </outline>
</glyph>
<glyph name="J" format="2">
  <advance height="1872" width="923"/>
  <unicode hex="004A"/>
  <anchor x="290.0" y="0.0" name="bottom"/>
  <anchor x="912.0" y="1400.0" name="top"/>
  <outline>
    <contour>
      <point x="866.0" y="1430.0" type="curve" smooth="yes"/>
      <point x="872.0" y="1430.0" type="line" smooth="yes"/>
      <point x="939.0" y="1430.0"/>
      <point x="968.1484375" y="1383.04589844"/>
      <point x="949.0" y="1300.0" type="curve" smooth="yes"/>
      <point x="770.0" y="525.0" type="line" smooth="yes"/>
      <point x="683.0" y="148.0"/>
      <point x="537.0" y="-34.0"/>
      <point x="263.0" y="-34.0" type="curve" smooth="yes"/>
      <point x="26.0" y="-34.0"/>
      <point x="-40.6396611324" y="171.007216798"/>
      <point x="90.0" y="466.0" type="curve" smooth="yes"/>
      <point x="148.0" y="596.0" type="line" smooth="yes"/>
      <point x="169.431640625" y="644.39453125"/>
      <point x="187.0" y="693.0"/>
      <point x="244.0" y="693.0" type="curve" smooth="yes"/>
      <point x="248.0" y="693.0" type="line" smooth="yes"/>
      <point x="305.0" y="693.0"/>
      <point x="337.075195312" y="647.7109375"/>
      <point x="315.0" y="600.0" type="curve" smooth="yes"/>
      <point x="258.0" y="476.0" type="line" smooth="yes"/>
      <point x="160.50535812" y="265.285774002"/>
      <point x="170.0" y="122.0"/>
      <point x="287.0" y="122.0" type="curve" smooth="yes"/>
      <point x="393.0" y="122.0"/>
      <point x="508.0" y="241.0"/>
      <point x="567.0" y="495.0" type="curve" smooth="yes"/>
      <point x="753.0" y="1300.0" type="line" smooth="yes"/>
      <point x="772.15625" y="1383.04296875"/>
      <point x="799.0" y="1430.0"/>
    </contour>
  </outline>
</glyph>
<glyph name="K" format="2">
  <advance height="1872" width="1239"/>
  <unicode hex="004B"/>
  <anchor x="505.0" y="0.0" name="bottom"/>
  <anchor x="827.0" y="1400.0" name="top"/>
  <outline>
    <contour>
      <point x="444.0" y="1430.0" type="curve" smooth="yes"/>
      <point x="454.0" y="1430.0" type="line" smooth="yes"/>
      <point x="501.0" y="1430.0"/>
      <point x="535.0" y="1397.0"/>
      <point x="517.0" y="1320.0" type="curve" smooth="yes"/>
      <point x="230.0" y="80.0" type="line" smooth="yes"/>
      <point x="212.0" y="3.0"/>
      <point x="164.0" y="-30.0"/>
      <point x="117.0" y="-30.0" type="curve" smooth="yes"/>
      <point x="107.0" y="-30.0" type="line" smooth="yes"/>
      <point x="60.0" y="-30.0"/>
      <point x="26.0" y="3.0"/>
      <point x="44.0" y="80.0" type="curve" smooth="yes"/>
      <point x="331.0" y="1320.0" type="line" smooth="yes"/>
      <point x="349.0" y="1397.0"/>
      <point x="397.0" y="1430.0"/>
    </contour>
    <contour>
      <point x="544.0" y="816.0" type="line"/>
      <point x="726.0" y="849.0" type="line"/>
      <point x="1049.0" y="116.0" type="line" smooth="yes"/>
      <point x="1082.57273331" y="39.8117228631"/>
      <point x="1055.0" y="-30.0"/>
      <point x="978.0" y="-30.0" type="curve" smooth="yes"/>
      <point x="968.0" y="-30.0" type="line" smooth="yes"/>
      <point x="931.0" y="-30.0"/>
      <point x="895.0" y="1.0"/>
      <point x="873.0" y="50.0" type="curve" smooth="yes"/>
    </contour>
    <contour>
      <point x="1144.0" y="1370.0" type="line" smooth="yes"/>
      <point x="1193.0" y="1410.0"/>
      <point x="1228.0" y="1430.0"/>
      <point x="1263.0" y="1430.0" type="curve" smooth="yes"/>
      <point x="1267.0" y="1430.0" type="line" smooth="yes"/>
      <point x="1330.0" y="1430.0"/>
      <point x="1363.0" y="1356.0"/>
      <point x="1281.0" y="1290.0" type="curve" smooth="yes"/>
      <point x="689.0" y="795.0" type="line"/>
      <point x="629.0" y="748.0" type="line"/>
      <point x="245.0" y="432.0" type="line"/>
      <point x="215.0" y="568.0" type="line"/>
    </contour>
  </outline>
</glyph>
<glyph name="L" format="2">
  <advance height="1872" width="1031"/>
  <unicode hex="004C"/>
  <anchor x="505.0" y="0.0" name="bottom"/>
  <anchor x="467.0" y="1400.0" name="top"/>
  <outline>
    <contour>
      <point x="446.0" y="1430.0" type="curve" smooth="yes"/>
      <point x="456.0" y="1430.0" type="line" smooth="yes"/>
      <point x="503.0" y="1430.0"/>
      <point x="534.0" y="1397.0"/>
      <point x="514.0" y="1310.0" type="curve" smooth="yes"/>
      <point x="247.0" y="147.0" type="line"/>
      <point x="811.0" y="147.0" type="line" smooth="yes"/>
      <point x="888.0" y="147.0"/>
      <point x="903.0" y="117.0"/>
      <point x="894.0" y="80.0" type="curve" smooth="yes"/>
      <point x="892.0" y="70.0" type="line" smooth="yes"/>
      <point x="883.0" y="33.0"/>
      <point x="853.0" y="0.0"/>
      <point x="776.0" y="0.0" type="curve" smooth="yes"/>
      <point x="156.0" y="0.0" type="line" smooth="yes"/>
      <point x="69.0" y="0.0"/>
      <point x="36.0" y="43.0"/>
      <point x="56.0" y="130.0" type="curve" smooth="yes"/>
      <point x="328.0" y="1310.0" type="line" smooth="yes"/>
      <point x="348.0" y="1397.0"/>
      <point x="399.0" y="1430.0"/>
    </contour>
  </outline>
</glyph>
<glyph name="M" format="2">
  <advance height="1872" width="1551"/>
  <unicode hex="004D"/>
  <anchor x="685.0" y="0.0" name="bottom"/>
  <anchor x="1007.0" y="1400.0" name="top"/>
  <outline>
    <contour>
      <point x="454.0" y="1216.0" type="line"/>
      <point x="194.0" y="90.0" type="line" smooth="yes"/>
      <point x="176.0" y="13.0"/>
      <point x="146.0" y="-30.0"/>
      <point x="99.0" y="-30.0" type="curve" smooth="yes"/>
      <point x="89.0" y="-30.0" type="line" smooth="yes"/>
      <point x="42.0" y="-30.0"/>
      <point x="29.0" y="13.0"/>
      <point x="47.0" y="90.0" type="curve" smooth="yes"/>
      <point x="326.0" y="1300.0" type="line" smooth="yes"/>
      <point x="341.0" y="1367.0"/>
      <point x="405.0" y="1410.0"/>
      <point x="462.0" y="1410.0" type="curve" smooth="yes"/>
      <point x="497.0" y="1410.0" type="line" smooth="yes"/>
      <point x="564.0" y="1410.0"/>
      <point x="586.0" y="1387.0"/>
      <point x="597.0" y="1310.0" type="curve" smooth="yes"/>
      <point x="731.0" y="323.0" type="line"/>
      <point x="1299.0" y="1290.0" type="line" smooth="yes"/>
      <point x="1361.0" y="1394.0"/>
      <point x="1402.0" y="1415.0"/>
      <point x="1469.0" y="1415.0" type="curve" smooth="yes"/>
      <point x="1479.0" y="1415.0" type="line" smooth="yes"/>
      <point x="1566.0" y="1415.0"/>
      <point x="1603.23287671" y="1366.71232877"/>
      <point x="1590.0" y="1310.0" type="curve" smooth="yes"/>
      <point x="1303.0" y="80.0" type="line" smooth="yes"/>
      <point x="1288.0" y="13.0"/>
      <point x="1248.0" y="-30.0"/>
      <point x="1201.0" y="-30.0" type="curve" smooth="yes"/>
      <point x="1191.0" y="-30.0" type="line" smooth="yes"/>
      <point x="1144.0" y="-30.0"/>
      <point x="1121.0" y="13.0"/>
      <point x="1136.0" y="80.0" type="curve" smooth="yes"/>
      <point x="1388.0" y="1166.0" type="line"/>
      <point x="731.0" y="60.0" type="line" smooth="yes"/>
      <point x="705.0" y="18.0"/>
      <point x="678.0" y="9.0"/>
      <point x="661.0" y="9.0" type="curve" smooth="yes"/>
      <point x="659.0" y="9.0" type="line" smooth="yes"/>
      <point x="645.0" y="9.0"/>
      <point x="613.0" y="18.0"/>
      <point x="607.0" y="60.0" type="curve" smooth="yes"/>
    </contour>
  </outline>
</glyph>
<glyph name="N" format="2">
  <advance height="1872" width="1336"/>
  <unicode hex="004E"/>
  <anchor x="565.0" y="0.0" name="bottom"/>
  <anchor x="897.0" y="1400.0" name="top"/>
  <outline>
    <contour>
      <point x="1310.0" y="1430.0" type="curve" smooth="yes"/>
      <point x="1320.0" y="1430.0" type="line" smooth="yes"/>
      <point x="1367.0" y="1430.0"/>
      <point x="1392.1873257" y="1396.95601242"/>
      <point x="1379.0" y="1340.0" type="curve" smooth="yes"/>
      <point x="1100.0" y="135.0" type="line" smooth="yes"/>
      <point x="1075.92657396" y="31.0269592239"/>
      <point x="1060.0" y="-10.0"/>
      <point x="1038.0" y="-10.0" type="curve" smooth="yes"/>
      <point x="1034.0" y="-10.0" type="line" smooth="yes"/>
      <point x="1017.0" y="-10.0"/>
      <point x="987.715119756" y="26.3035946175"/>
      <point x="953.0" y="101.0" type="curve" smooth="yes"/>
      <point x="444.0" y="1179.0" type="line"/>
      <point x="464.0" y="1179.0" type="line"/>
      <point x="210.0" y="80.0" type="line" smooth="yes"/>
      <point x="195.0" y="13.0"/>
      <point x="156.0" y="-30.0"/>
      <point x="109.0" y="-30.0" type="curve" smooth="yes"/>
      <point x="99.0" y="-30.0" type="line" smooth="yes"/>
      <point x="52.0" y="-30.0"/>
      <point x="29.0" y="13.0"/>
      <point x="44.0" y="80.0" type="curve" smooth="yes"/>
      <point x="326.0" y="1300.0" type="line" smooth="yes"/>
      <point x="344.0" y="1377.0"/>
      <point x="391.0" y="1420.0"/>
      <point x="448.0" y="1420.0" type="curve" smooth="yes"/>
      <point x="458.0" y="1420.0" type="line" smooth="yes"/>
      <point x="511.0" y="1420.0"/>
      <point x="546.0" y="1378.0"/>
      <point x="578.0" y="1310.0" type="curve" smooth="yes"/>
      <point x="1013.0" y="384.0" type="line"/>
      <point x="993.0" y="384.0" type="line"/>
      <point x="1214.0" y="1340.0" type="line" smooth="yes"/>
      <point x="1227.0" y="1397.0"/>
      <point x="1263.0" y="1430.0"/>
    </contour>
  </outline>
</glyph>
<glyph name="O" format="2">
  <advance height="1872" width="1440"/>
  <unicode hex="004F"/>
  <anchor x="625.0" y="0.0" name="bottom"/>
  <anchor x="947.0" y="1400.0" name="top"/>
  <outline>
    <contour>
      <point x="116.0" y="603.0" type="curve" smooth="yes"/>
      <point x="161.0" y="798.0" type="line" smooth="yes"/>
      <point x="248.0" y="1176.0"/>
      <point x="531.0" y="1434.0"/>
      <point x="901.0" y="1434.0" type="curve" smooth="yes"/>
      <point x="1281.0" y="1434.0"/>
      <point x="1494.0" y="1176.0"/>
      <point x="1407.0" y="798.0" type="curve" smooth="yes"/>
      <point x="1362.0" y="603.0" type="line" smooth="yes"/>
      <point x="1275.0" y="224.0"/>
      <point x="992.0" y="-34.0"/>
      <point x="622.0" y="-34.0" type="curve" smooth="yes"/>
      <point x="252.0" y="-34.0"/>
      <point x="29.0" y="224.0"/>
    </contour>
    <contour>
      <point x="310.0" y="593.0" type="line" smooth="yes"/>
      <point x="242.0" y="300.0"/>
      <point x="400.0" y="103.0"/>
      <point x="624.0" y="103.0" type="curve" smooth="yes"/>
      <point x="878.0" y="103.0"/>
      <point x="1096.0" y="300.0"/>
      <point x="1164.0" y="593.0" type="curve" smooth="yes"/>
      <point x="1214.0" y="808.0" type="line" smooth="yes"/>
      <point x="1281.0" y="1100.0"/>
      <point x="1123.0" y="1297.0"/>
      <point x="899.0" y="1297.0" type="curve" smooth="yes"/>
      <point x="645.0" y="1297.0"/>
      <point x="427.0" y="1100.0"/>
      <point x="360.0" y="808.0" type="curve" smooth="yes"/>
    </contour>
  </outline>
</glyph>
<glyph name="P" format="2">
  <advance height="1872" width="1238"/>
  <unicode hex="0050"/>
  <anchor x="155.0" y="0.0" name="bottom"/>
  <anchor x="827.0" y="1400.0" name="top"/>
  <outline>
    <contour>
      <point x="521.0" y="1253.0" type="line"/>
      <point x="404.0" y="747.0" type="line"/>
      <point x="719.0" y="747.0" type="line" smooth="yes"/>
      <point x="900.0" y="747.0"/>
      <point x="1010.0" y="818.0"/>
      <point x="1038.0" y="938.0" type="curve" smooth="yes"/>
      <point x="1066.0" y="1062.0" type="line" smooth="yes"/>
      <point x="1094.0" y="1182.0"/>
      <point x="1012.0" y="1253.0"/>
      <point x="845.0" y="1253.0" type="curve" smooth="yes"/>
    </contour>
    <contour>
      <point x="839.0" y="1400.0" type="line" smooth="yes"/>
      <point x="1126.0" y="1400.0"/>
      <point x="1318.0" y="1302.0"/>
      <point x="1256.0" y="1032.0" type="curve" smooth="yes"/>
      <point x="1241.0" y="968.0" type="line" smooth="yes"/>
      <point x="1179.0" y="698.0"/>
      <point x="1012.0" y="601.0"/>
      <point x="725.0" y="601.0" type="curve" smooth="yes"/>
      <point x="371.0" y="601.0" type="line"/>
      <point x="250.0" y="80.0" type="line" smooth="yes"/>
      <point x="235.0" y="13.0"/>
      <point x="185.0" y="-30.0"/>
      <point x="138.0" y="-30.0" type="curve" smooth="yes"/>
      <point x="128.0" y="-30.0" type="line" smooth="yes"/>
      <point x="81.0" y="-30.0"/>
      <point x="48.0" y="13.0"/>
      <point x="63.0" y="80.0" type="curve" smooth="yes"/>
      <point x="336.0" y="1260.0" type="line" smooth="yes"/>
      <point x="356.0" y="1347.0"/>
      <point x="418.0" y="1400.0"/>
      <point x="505.0" y="1400.0" type="curve" smooth="yes"/>
    </contour>
  </outline>
</glyph>
<glyph name="Q" format="2">
  <advance height="1872" width="1550"/>
  <unicode hex="0051"/>
  <anchor x="625.0" y="0.0" name="bottom"/>
  <anchor x="947.0" y="1400.0" name="top"/>
  <outline>
    <contour>
      <point x="1403.0" y="59.0" type="curve" smooth="yes"/>
      <point x="1403.0" y="58.0" type="line" smooth="yes"/>
      <point x="1403.0" y="11.0"/>
      <point x="1357.03830903" y="-0.15762147864"/>
      <point x="1345.0" y="-3.0" type="curve" smooth="yes"/>
      <point x="1129.0" y="-54.0"/>
      <point x="1042.0" y="90.0"/>
      <point x="1102.0" y="349.0" type="curve"/>
      <point x="1210.0" y="573.0" type="line"/>
      <point x="1131.0" y="232.0"/>
      <point x="1008.0" y="-34.0"/>
      <point x="594.0" y="-34.0" type="curve" smooth="yes"/>
      <point x="161.0" y="-34.0"/>
      <point x="69.0" y="232.0"/>
      <point x="148.0" y="573.0" type="curve" smooth="yes"/>
      <point x="207.0" y="828.0" type="line" smooth="yes"/>
      <point x="286.0" y="1169.0"/>
      <point x="460.0" y="1434.0"/>
      <point x="903.0" y="1434.0" type="curve" smooth="yes"/>
      <point x="1346.0" y="1434.0"/>
      <point x="1457.0" y="1169.0"/>
      <point x="1378.0" y="828.0" type="curve" smooth="yes"/>
      <point x="1261.0" y="321.0" type="line" smooth="yes"/>
      <point x="1228.70786517" y="181.06741573"/>
      <point x="1283.0" y="138.0"/>
      <point x="1328.0" y="127.0" type="curve" smooth="yes"/>
      <point x="1381.43554688" y="113.9375"/>
      <point x="1403.0" y="110.083007812"/>
    </contour>
    <contour>
      <point x="1117.0" y="544.0" type="curve" smooth="yes"/>
      <point x="1189.0" y="857.0" type="line" smooth="yes"/>
      <point x="1250.0" y="1120.0"/>
      <point x="1158.0" y="1297.0"/>
      <point x="891.0" y="1297.0" type="curve" smooth="yes"/>
      <point x="624.0" y="1297.0"/>
      <point x="471.0" y="1120.0"/>
      <point x="410.0" y="857.0" type="curve" smooth="yes"/>
      <point x="338.0" y="544.0" type="line" smooth="yes"/>
      <point x="277.0" y="281.0"/>
      <point x="359.0" y="103.0"/>
      <point x="626.0" y="103.0" type="curve" smooth="yes"/>
      <point x="893.0" y="103.0"/>
      <point x="1056.0" y="281.0"/>
    </contour>
  </outline>
</glyph>
<glyph name="R" format="2">
  <advance height="1872" width="1336"/>
  <unicode hex="0052"/>
  <anchor x="555.0" y="0.0" name="bottom"/>
  <anchor x="877.0" y="1400.0" name="top"/>
  <outline>
    <contour>
      <point x="522.0" y="1250.0" type="line"/>
      <point x="415.0" y="790.0" type="line"/>
      <point x="775.0" y="790.0" type="line" smooth="yes"/>
      <point x="942.0" y="790.0"/>
      <point x="1058.0" y="858.0"/>
      <point x="1086.0" y="978.0" type="curve" smooth="yes"/>
      <point x="1105.0" y="1062.0" type="line" smooth="yes"/>
      <point x="1133.0" y="1182.0"/>
      <point x="1081.0" y="1250.0"/>
      <point x="914.0" y="1250.0" type="curve" smooth="yes"/>
    </contour>
    <contour>
      <point x="908.0" y="1400.0" type="line" smooth="yes"/>
      <point x="1165.0" y="1400.0"/>
      <point x="1353.0" y="1282.0"/>
      <point x="1298.0" y="1042.0" type="curve" smooth="yes"/>
      <point x="1292.0" y="1018.0" type="line" smooth="yes"/>
      <point x="1237.0" y="778.0"/>
      <point x="1017.0" y="680.0"/>
      <point x="760.0" y="680.0" type="curve"/>
      <point x="774.0" y="740.0" type="line"/>
      <point x="1031.0" y="740.0"/>
      <point x="1200.0" y="662.0"/>
      <point x="1145.0" y="422.0" type="curve" smooth="yes"/>
      <point x="1124.0" y="328.0" type="line" smooth="yes"/>
      <point x="1098.0" y="214.0"/>
      <point x="1104.0" y="150.0"/>
      <point x="1123.0" y="91.0" type="curve" smooth="yes"/>
      <point x="1131.0" y="66.0"/>
      <point x="1133.0" y="46.0"/>
      <point x="1130.0" y="33.0" type="curve" smooth="yes"/>
      <point x="1128.0" y="28.0" type="line" smooth="yes"/>
      <point x="1120.0" y="-8.0"/>
      <point x="1083.0" y="-30.0"/>
      <point x="1036.0" y="-30.0" type="curve" smooth="yes"/>
      <point x="1026.0" y="-30.0" type="line" smooth="yes"/>
      <point x="974.0" y="-30.0"/>
      <point x="945.0" y="1.0"/>
      <point x="934.0" y="39.0" type="curve" smooth="yes"/>
      <point x="908.0" y="128.0"/>
      <point x="914.0" y="241.0"/>
      <point x="934.0" y="328.0" type="curve" smooth="yes"/>
      <point x="962.0" y="452.0" type="line" smooth="yes"/>
      <point x="990.0" y="572.0"/>
      <point x="908.0" y="640.0"/>
      <point x="741.0" y="640.0" type="curve" smooth="yes"/>
      <point x="381.0" y="640.0" type="line"/>
      <point x="254.0" y="90.0" type="line" smooth="yes"/>
      <point x="236.0" y="13.0"/>
      <point x="195.0" y="-30.0"/>
      <point x="138.0" y="-30.0" type="curve" smooth="yes"/>
      <point x="128.0" y="-30.0" type="line" smooth="yes"/>
      <point x="71.0" y="-30.0"/>
      <point x="48.0" y="13.0"/>
      <point x="66.0" y="90.0" type="curve" smooth="yes"/>
      <point x="331.0" y="1240.0" type="line" smooth="yes"/>
      <point x="356.0" y="1347.0"/>
      <point x="419.0" y="1400.0"/>
      <point x="526.0" y="1400.0" type="curve" smooth="yes"/>
    </contour>
  </outline>
</glyph>
<glyph name="S" format="2">
  <advance height="1872" width="1238"/>
  <unicode hex="0053"/>
  <anchor x="525.0" y="0.0" name="bottom"/>
  <anchor x="827.0" y="1400.0" name="top"/>
  <outline>
    <contour>
      <point x="184.0" y="538.0" type="curve" smooth="yes"/>
      <point x="194.0" y="538.0" type="line" smooth="yes"/>
      <point x="237.0" y="538.0"/>
      <point x="261.0" y="497.0"/>
      <point x="245.0" y="420.0" type="curve" smooth="yes"/>
      <point x="242.0" y="404.0"/>
      <point x="242.0" y="396.0"/>
      <point x="240.0" y="384.0" type="curve" smooth="yes"/>
      <point x="220.0" y="248.0"/>
      <point x="302.0" y="115.0"/>
      <point x="557.0" y="115.0" type="curve" smooth="yes"/>
      <point x="785.0" y="115.0"/>
      <point x="917.265625" y="153.7734375"/>
      <point x="944.0" y="318.0" type="curve" smooth="yes"/>
      <point x="974.309570312" y="504.186523438"/>
      <point x="810.334809575" y="571.736167045"/>
      <point x="650.0" y="624.0" type="curve" smooth="yes"/>
      <point x="469.0" y="683.0"/>
      <point x="192.120117188" y="794.745117188"/>
      <point x="248.0" y="1073.0" type="curve" smooth="yes"/>
      <point x="302.692644675" y="1345.34300912"/>
      <point x="544.0" y="1435.0"/>
      <point x="791.0" y="1435.0" type="curve" smooth="yes"/>
      <point x="1115.0" y="1435.0"/>
      <point x="1261.0" y="1256.0"/>
      <point x="1211.0" y="1041.0" type="curve" smooth="yes"/>
      <point x="1210.0" y="1036.0" type="line" smooth="yes"/>
      <point x="1195.0" y="969.0"/>
      <point x="1164.0" y="933.0"/>
      <point x="1119.0" y="933.0" type="curve" smooth="yes"/>
      <point x="1109.0" y="933.0" type="line" smooth="yes"/>
      <point x="1064.0" y="933.0"/>
      <point x="1041.0" y="961.0"/>
      <point x="1046.0" y="1018.0" type="curve" smooth="yes"/>
      <point x="1047.0" y="1034.0"/>
      <point x="1048.0" y="1042.0"/>
      <point x="1049.0" y="1054.0" type="curve" smooth="yes"/>
      <point x="1064.0" y="1180.0"/>
      <point x="963.0" y="1285.0"/>
      <point x="779.0" y="1285.0" type="curve" smooth="yes"/>
      <point x="572.0" y="1285.0"/>
      <point x="470.0" y="1213.0"/>
      <point x="435.0" y="1063.0" type="curve" smooth="yes"/>
      <point x="400.0" y="912.0"/>
      <point x="548.008789062" y="827.65234375"/>
      <point x="711.0" y="780.0" type="curve" smooth="yes"/>
      <point x="1099.17285156" y="666.513671875"/>
      <point x="1171.90388015" y="535.55456149"/>
      <point x="1130.0" y="318.0" type="curve" smooth="yes"/>
      <point x="1091.69433545" y="119.126482247"/>
      <point x="931.0" y="-35.0"/>
      <point x="562.0" y="-35.0" type="curve" smooth="yes"/>
      <point x="214.0" y="-35.0"/>
      <point x="16.0" y="153.0"/>
      <point x="68.0" y="379.0" type="curve" smooth="yes"/>
      <point x="78.0" y="419.0" type="line" smooth="yes"/>
      <point x="96.0" y="496.0"/>
      <point x="141.0" y="538.0"/>
    </contour>
  </outline>
</glyph>
<glyph name="T" format="2">
  <advance height="1872" width="1131"/>
  <unicode hex="0054"/>
  <anchor x="425.0" y="0.0" name="bottom"/>
  <anchor x="787.0" y="1400.0" name="top"/>
  <outline>
    <contour>
      <point x="310.0" y="1400.0" type="curve" smooth="yes"/>
      <point x="1210.0" y="1400.0" type="line" smooth="yes"/>
      <point x="1287.0" y="1400.0"/>
      <point x="1310.0" y="1367.0"/>
      <point x="1310.0" y="1330.0" type="curve" smooth="yes"/>
      <point x="1310.0" y="1320.0" type="line" smooth="yes"/>
      <point x="1310.0" y="1283.0"/>
      <point x="1287.0" y="1250.0"/>
      <point x="1210.0" y="1250.0" type="curve" smooth="yes"/>
      <point x="828.0" y="1250.0" type="line"/>
      <point x="557.0" y="80.0" type="line" smooth="yes"/>
      <point x="539.0" y="3.0"/>
      <point x="493.0" y="-30.0"/>
      <point x="446.0" y="-30.0" type="curve" smooth="yes"/>
      <point x="436.0" y="-30.0" type="line" smooth="yes"/>
      <point x="389.0" y="-30.0"/>
      <point x="353.0" y="3.0"/>
      <point x="371.0" y="80.0" type="curve" smooth="yes"/>
      <point x="642.0" y="1250.0" type="line"/>
      <point x="310.0" y="1250.0" type="line" smooth="yes"/>
      <point x="233.0" y="1250.0"/>
      <point x="210.0" y="1283.0"/>
      <point x="210.0" y="1320.0" type="curve" smooth="yes"/>
      <point x="210.0" y="1330.0" type="line" smooth="yes"/>
      <point x="210.0" y="1367.0"/>
      <point x="233.0" y="1400.0"/>
    </contour>
  </outline>
</glyph>
<glyph name="U" format="2">
  <advance height="1872" width="1344"/>
  <unicode hex="0055"/>
  <anchor x="585.0" y="0.0" name="bottom"/>
  <anchor x="680.0" y="0.0" name="ogonek"/>
  <anchor x="907.0" y="1400.0" name="top"/>
  <outline>
    <contour>
      <point x="1012.0" y="488.0" type="curve" smooth="yes"/>
      <point x="1204.0" y="1320.0" type="line" smooth="yes"/>
      <point x="1222.0" y="1397.0"/>
      <point x="1262.0" y="1430.0"/>
      <point x="1309.0" y="1430.0" type="curve" smooth="yes"/>
      <point x="1311.0" y="1430.0" type="line" smooth="yes"/>
      <point x="1358.0" y="1430.0"/>
      <point x="1388.0" y="1397.0"/>
      <point x="1370.0" y="1320.0" type="curve" smooth="yes"/>
      <point x="1180.0" y="498.0" type="line" smooth="yes"/>
      <point x="1106.0" y="178.0"/>
      <point x="999.0" y="-35.0"/>
      <point x="612.0" y="-35.0" type="curve" smooth="yes"/>
      <point x="155.0" y="-35.0"/>
      <point x="88.0" y="208.0"/>
      <point x="176.0" y="588.0" type="curve" smooth="yes"/>
      <point x="345.0" y="1320.0" type="line" smooth="yes"/>
      <point x="363.0" y="1397.0"/>
      <point x="413.0" y="1430.0"/>
      <point x="460.0" y="1430.0" type="curve" smooth="yes"/>
      <point x="470.0" y="1430.0" type="line" smooth="yes"/>
      <point x="517.0" y="1430.0"/>
      <point x="558.0" y="1397.0"/>
      <point x="540.0" y="1320.0" type="curve" smooth="yes"/>
      <point x="364.0" y="558.0" type="line" smooth="yes"/>
      <point x="295.0" y="258.0"/>
      <point x="357.0" y="105.0"/>
      <point x="624.0" y="105.0" type="curve" smooth="yes"/>
      <point x="851.0" y="105.0"/>
      <point x="952.0" y="228.0"/>
    </contour>
  </outline>
</glyph>
<glyph name="V" format="2">
  <advance height="1872" width="1238"/>
  <unicode hex="0056"/>
  <anchor x="535.0" y="0.0" name="bottom"/>
  <anchor x="857.0" y="1400.0" name="top"/>
  <outline>
    <contour>
      <point x="540.0" y="173.0" type="line"/>
      <point x="1160.0" y="1305.0" type="line" smooth="yes"/>
      <point x="1200.0" y="1377.0"/>
      <point x="1220.0" y="1435.0"/>
      <point x="1280.0" y="1435.0" type="curve" smooth="yes"/>
      <point x="1290.0" y="1435.0" type="line" smooth="yes"/>
      <point x="1360.0" y="1435.0"/>
      <point x="1391.0" y="1376.0"/>
      <point x="1350.0" y="1305.0" type="curve" smooth="yes"/>
      <point x="678.0" y="110.0" type="line" smooth="yes"/>
      <point x="637.0" y="39.0"/>
      <point x="600.0" y="0.0"/>
      <point x="510.0" y="0.0" type="curve" smooth="yes"/>
      <point x="500.0" y="0.0" type="line" smooth="yes"/>
      <point x="410.0" y="0.0"/>
      <point x="391.0" y="39.0"/>
      <point x="382.0" y="110.0" type="curve" smooth="yes"/>
      <point x="254.0" y="1305.0" type="line" smooth="yes"/>
      <point x="245.0" y="1376.0"/>
      <point x="273.0" y="1435.0"/>
      <point x="343.0" y="1435.0" type="curve" smooth="yes"/>
      <point x="344.0" y="1435.0" type="line" smooth="yes"/>
      <point x="404.0" y="1435.0"/>
      <point x="424.0" y="1377.0"/>
      <point x="432.0" y="1305.0" type="curve" smooth="yes"/>
    </contour>
  </outline>
</glyph>
<glyph name="W" format="2">
  <advance height="1872" width="1755"/>
  <unicode hex="0057"/>
  <anchor x="805.0" y="0.0" name="bottom"/>
  <anchor x="1122.0" y="1400.0" name="top"/>
  <outline>
    <contour>
      <point x="428.0" y="210.0" type="line"/>
      <point x="1016.0" y="1370.0" type="line" smooth="yes"/>
      <point x="1037.83814056" y="1413.08204599"/>
      <point x="1067.0" y="1430.0"/>
      <point x="1094.0" y="1430.0" type="curve" smooth="yes"/>
      <point x="1104.0" y="1430.0" type="line" smooth="yes"/>
      <point x="1141.0" y="1430.0"/>
      <point x="1151.23447415" y="1395.00717778"/>
      <point x="1152.0" y="1370.0" type="curve" smooth="yes"/>
      <point x="1188.0" y="194.0" type="line"/>
      <point x="1711.0" y="1320.0" type="line" smooth="yes"/>
      <point x="1749.24904357" y="1402.34880126"/>
      <point x="1773.0" y="1430.0"/>
      <point x="1820.0" y="1430.0" type="curve" smooth="yes"/>
      <point x="1825.0" y="1430.0" type="line" smooth="yes"/>
      <point x="1872.0" y="1430.0"/>
      <point x="1934.90596938" y="1391.53545239"/>
      <point x="1895.0" y="1310.0" type="curve" smooth="yes"/>
      <point x="1293.0" y="80.0" type="line" smooth="yes"/>
      <point x="1257.61391646" y="7.69953031615"/>
      <point x="1218.0" y="-30.0"/>
      <point x="1161.0" y="-30.0" type="curve" smooth="yes"/>
      <point x="1121.0" y="-30.0" type="line" smooth="yes"/>
      <point x="1064.0" y="-30.0"/>
      <point x="1035.95745006" y="6.9720553625"/>
      <point x="1034.0" y="80.0" type="curve" smooth="yes"/>
      <point x="1008.0" y="1050.0" type="line"/>
      <point x="528.0" y="80.0" type="line" smooth="yes"/>
      <point x="496.662511739" y="16.6721591394"/>
      <point x="435.0" y="-30.0"/>
      <point x="388.0" y="-30.0" type="curve" smooth="yes"/>
      <point x="353.0" y="-30.0" type="line" smooth="yes"/>
      <point x="306.0" y="-30.0"/>
      <point x="276.48354008" y="7.00982805041"/>
      <point x="275.0" y="80.0" type="curve" smooth="yes"/>
      <point x="250.0" y="1310.0" type="line" smooth="yes"/>
      <point x="248.536363787" y="1382.0109017"/>
      <point x="288.0" y="1430.0"/>
      <point x="335.0" y="1430.0" type="curve" smooth="yes"/>
      <point x="340.0" y="1430.0" type="line" smooth="yes"/>
      <point x="397.0" y="1430.0"/>
      <point x="424.800910572" y="1382.99945703"/>
      <point x="425.0" y="1310.0" type="curve" smooth="yes"/>
    </contour>
  </outline>
</glyph>
<glyph name="X" format="2">
  <advance height="1872" width="1239"/>
  <unicode hex="0058"/>
  <anchor x="515.0" y="0.0" name="bottom"/>
  <anchor x="837.0" y="1400.0" name="top"/>
  <outline>
    <contour>
      <point x="1226.0" y="1430.0" type="curve" smooth="yes"/>
      <point x="1231.0" y="1430.0" type="line" smooth="yes"/>
      <point x="1292.0" y="1430.0"/>
      <point x="1338.0" y="1367.0"/>
      <point x="1250.0" y="1270.0" type="curve" smooth="yes"/>
      <point x="766.0" y="715.0" type="line"/>
      <point x="1015.0" y="130.0" type="line" smooth="yes"/>
      <point x="1047.80896825" y="52.9186890502"/>
      <point x="1017.0" y="-30.0"/>
      <point x="940.0" y="-30.0" type="curve" smooth="yes"/>
      <point x="935.0" y="-30.0" type="line" smooth="yes"/>
      <point x="888.0" y="-30.0"/>
      <point x="851.433084574" y="8.39964926204"/>
      <point x="824.0" y="80.0" type="curve" smooth="yes"/>
      <point x="624.0" y="602.0" type="line"/>
      <point x="187.0" y="80.0" type="line" smooth="yes"/>
      <point x="121.16047582" y="1.35416104761"/>
      <point x="85.0" y="-30.0"/>
      <point x="38.0" y="-30.0" type="curve" smooth="yes"/>
      <point x="33.0" y="-30.0" type="line" smooth="yes"/>
      <point x="-14.0" y="-30.0"/>
      <point x="-50.6825225312" y="24.9932253464"/>
      <point x="16.0" y="102.0" type="curve" smooth="yes"/>
      <point x="565.0" y="736.0" type="line"/>
      <point x="337.0" y="1271.0" type="line" smooth="yes"/>
      <point x="298.238334876" y="1361.9539072"/>
      <point x="363.0" y="1430.0"/>
      <point x="420.0" y="1430.0" type="curve" smooth="yes"/>
      <point x="425.0" y="1430.0" type="line" smooth="yes"/>
      <point x="468.0" y="1430.0"/>
      <point x="497.911855287" y="1398.73064533"/>
      <point x="528.0" y="1320.0" type="curve" smooth="yes"/>
      <point x="708.0" y="849.0" type="line"/>
      <point x="1123.0" y="1340.0" type="line" smooth="yes"/>
      <point x="1167.0" y="1390.0"/>
      <point x="1189.0" y="1430.0"/>
    </contour>
  </outline>
</glyph>
<glyph name="Y" format="2">
  <advance height="1872" width="1239"/>
  <unicode hex="0059"/>
  <anchor x="525.0" y="0.0" name="bottom"/>
  <anchor x="847.0" y="1400.0" name="top"/>
  <outline>
    <contour>
      <point x="1282.0" y="1430.0" type="curve" smooth="yes"/>
      <point x="1287.0" y="1430.0" type="line" smooth="yes"/>
      <point x="1354.0" y="1430.0"/>
      <point x="1382.0" y="1372.0"/>
      <point x="1339.0" y="1320.0" type="curve" smooth="yes"/>
      <point x="721.0" y="554.0" type="line"/>
      <point x="614.0" y="90.0" type="line" smooth="yes"/>
      <point x="596.281730578" y="13.1656354054"/>
      <point x="547.0" y="-30.0"/>
      <point x="500.0" y="-30.0" type="curve" smooth="yes"/>
      <point x="490.0" y="-30.0" type="line" smooth="yes"/>
      <point x="443.0" y="-30.0"/>
      <point x="410.281730578" y="13.1656354054"/>
      <point x="428.0" y="90.0" type="curve" smooth="yes"/>
      <point x="535.0" y="554.0" type="line"/>
      <point x="273.0" y="1312.0" type="line" smooth="yes"/>
      <point x="253.990572257" y="1366.99674133"/>
      <point x="298.0" y="1430.0"/>
      <point x="355.0" y="1430.0" type="curve" smooth="yes"/>
      <point x="360.0" y="1430.0" type="line" smooth="yes"/>
      <point x="407.0" y="1430.0"/>
      <point x="442.039088999" y="1402.01349792"/>
      <point x="460.0" y="1350.0" type="curve" smooth="yes"/>
      <point x="668.0" y="730.0" type="line"/>
      <point x="1171.0" y="1350.0" type="line" smooth="yes"/>
      <point x="1220.0" y="1409.0"/>
      <point x="1251.0" y="1430.0"/>
    </contour>
  </outline>
</glyph>
<glyph name="Z" format="2">
  <advance height="1872" width="1131"/>
  <unicode hex="005A"/>
  <anchor x="495.0" y="0.0" name="bottom"/>
  <anchor x="817.0" y="1400.0" name="top"/>
  <outline>
    <contour>
      <point x="-32.0" y="130.0" type="curve" smooth="yes"/>
      <point x="985.0" y="1253.0" type="line"/>
      <point x="329.0" y="1253.0" type="line" smooth="yes"/>
      <point x="282.0" y="1253.0"/>
      <point x="254.0" y="1273.0"/>
      <point x="265.0" y="1320.0" type="curve" smooth="yes"/>
      <point x="267.0" y="1330.0" type="line" smooth="yes"/>
      <point x="278.0" y="1377.0"/>
      <point x="316.0" y="1400.0"/>
      <point x="363.0" y="1400.0" type="curve" smooth="yes"/>
      <point x="1189.0" y="1400.0" type="line" smooth="yes"/>
      <point x="1276.0" y="1400.0"/>
      <point x="1259.0" y="1324.0"/>
      <point x="1189.0" y="1250.0" type="curve" smooth="yes"/>
      <point x="190.0" y="147.0" type="line"/>
      <point x="955.0" y="147.0" type="line" smooth="yes"/>
      <point x="1012.0" y="147.0"/>
      <point x="1039.0" y="127.0"/>
      <point x="1028.0" y="80.0" type="curve" smooth="yes"/>
      <point x="1026.0" y="70.0" type="line" smooth="yes"/>
      <point x="1015.0" y="23.0"/>
      <point x="977.0" y="0.0"/>
      <point x="920.0" y="0.0" type="curve" smooth="yes"/>
      <point x="-10.0" y="0.0" type="line" smooth="yes"/>
      <point x="-87.0" y="0.0"/>
      <point x="-91.0" y="67.0"/>
    </contour>
  </outline>
</glyph>
<glyph name="bracketleft" format="2">
  <advance height="1920" width="550"/>
  <unicode hex="005B"/>
  <outline>
    <contour>
      <point x="475.0" y="1450.0" type="line"/>
      <point x="92.0" y="-210.0" type="line"/>
      <point x="242.0" y="-210.0" type="line" smooth="yes"/>
      <point x="319.0" y="-210.0"/>
      <point x="346.0" y="-233.0"/>
      <point x="335.0" y="-280.0" type="curve" smooth="yes"/>
      <point x="333.0" y="-290.0" type="line" smooth="yes"/>
      <point x="322.0" y="-337.0"/>
      <point x="284.0" y="-360.0"/>
      <point x="207.0" y="-360.0" type="curve" smooth="yes"/>
      <point x="27.0" y="-360.0" type="line" smooth="yes"/>
      <point x="-80.0" y="-360.0"/>
      <point x="-121.0" y="-307.0"/>
      <point x="-96.0" y="-200.0" type="curve" smooth="yes"/>
      <point x="282.0" y="1440.0" type="line" smooth="yes"/>
      <point x="307.0" y="1547.0"/>
      <point x="372.0" y="1600.0"/>
      <point x="479.0" y="1600.0" type="curve" smooth="yes"/>
      <point x="659.0" y="1600.0" type="line" smooth="yes"/>
      <point x="736.0" y="1600.0"/>
      <point x="764.0" y="1577.0"/>
      <point x="753.0" y="1530.0" type="curve" smooth="yes"/>
      <point x="751.0" y="1520.0" type="line" smooth="yes"/>
      <point x="740.0" y="1473.0"/>
      <point x="702.0" y="1450.0"/>
      <point x="625.0" y="1450.0" type="curve" smooth="yes"/>
    </contour>
  </outline>
</glyph>
<glyph name="backslash" format="2">
  <advance height="2048" width="840"/>
  <unicode hex="005C"/>
  <outline>
    <contour>
      <point x="667.0" y="-18.0" type="line" smooth="yes"/>
      <point x="682.0" y="-103.0"/>
      <point x="656.0" y="-178.0"/>
      <point x="599.0" y="-178.0" type="curve" smooth="yes"/>
      <point x="589.0" y="-178.0" type="line" smooth="yes"/>
      <point x="543.0" y="-178.0"/>
      <point x="526.0" y="-128.0"/>
      <point x="515.0" y="-68.0" type="curve" smooth="yes"/>
      <point x="276.0" y="1222.0" type="line" smooth="yes"/>
      <point x="261.0" y="1307.0"/>
      <point x="287.0" y="1382.0"/>
      <point x="344.0" y="1382.0" type="curve" smooth="yes"/>
      <point x="354.0" y="1382.0" type="line" smooth="yes"/>
      <point x="401.0" y="1382.0"/>
      <point x="417.0" y="1332.0"/>
      <point x="428.0" y="1272.0" type="curve" smooth="yes"/>
    </contour>
  </outline>
</glyph>
<glyph name="bracketright" format="2">
  <advance height="1920" width="550"/>
  <unicode hex="005D"/>
  <outline>
    <contour>
      <point x="122.0" y="-210.0" type="line"/>
      <point x="505.0" y="1450.0" type="line"/>
      <point x="355.0" y="1450.0" type="line" smooth="yes"/>
      <point x="278.0" y="1450.0"/>
      <point x="250.0" y="1473.0"/>
      <point x="261.0" y="1520.0" type="curve" smooth="yes"/>
      <point x="263.0" y="1530.0" type="line" smooth="yes"/>
      <point x="274.0" y="1577.0"/>
      <point x="312.0" y="1600.0"/>
      <point x="389.0" y="1600.0" type="curve" smooth="yes"/>
      <point x="569.0" y="1600.0" type="line" smooth="yes"/>
      <point x="676.0" y="1600.0"/>
      <point x="717.0" y="1547.0"/>
      <point x="692.0" y="1440.0" type="curve" smooth="yes"/>
      <point x="314.0" y="-200.0" type="line" smooth="yes"/>
      <point x="289.0" y="-307.0"/>
      <point x="224.0" y="-360.0"/>
      <point x="117.0" y="-360.0" type="curve" smooth="yes"/>
      <point x="-63.0" y="-360.0" type="line" smooth="yes"/>
      <point x="-140.0" y="-360.0"/>
      <point x="-168.0" y="-337.0"/>
      <point x="-157.0" y="-290.0" type="curve" smooth="yes"/>
      <point x="-155.0" y="-280.0" type="line" smooth="yes"/>
      <point x="-144.0" y="-233.0"/>
      <point x="-105.0" y="-210.0"/>
      <point x="-28.0" y="-210.0" type="curve" smooth="yes"/>
    </contour>
  </outline>
</glyph>
<glyph name="asciicircum" format="2">
  <advance height="1920" width="820"/>
  <unicode hex="005E"/>
  <outline>
    <contour>
      <point x="565.0" y="1191.0" type="line"/>
      <point x="328.0" y="810.0" type="line" smooth="yes"/>
      <point x="292.0" y="752.0"/>
      <point x="259.0" y="700.0"/>
      <point x="212.0" y="700.0" type="curve" smooth="yes"/>
      <point x="202.0" y="700.0" type="line" smooth="yes"/>
      <point x="145.0" y="700.0"/>
      <point x="135.0" y="772.0"/>
      <point x="189.0" y="855.0" type="curve" smooth="yes"/>
      <point x="491.0" y="1320.0" type="line" smooth="yes"/>
      <point x="535.0" y="1388.0"/>
      <point x="566.0" y="1420.0"/>
      <point x="613.0" y="1420.0" type="curve" smooth="yes"/>
      <point x="623.0" y="1420.0" type="line" smooth="yes"/>
      <point x="670.0" y="1420.0"/>
      <point x="687.0" y="1388.0"/>
      <point x="699.0" y="1320.0" type="curve" smooth="yes"/>
      <point x="785.0" y="855.0" type="line" smooth="yes"/>
      <point x="801.0" y="772.0"/>
      <point x="764.0" y="700.0"/>
      <point x="702.0" y="700.0" type="curve" smooth="yes"/>
      <point x="692.0" y="700.0" type="line" smooth="yes"/>
      <point x="642.0" y="700.0"/>
      <point x="636.0" y="752.0"/>
      <point x="626.0" y="810.0" type="curve" smooth="yes"/>
    </contour>
  </outline>
</glyph>
<glyph name="underscore" format="2">
  <advance height="1920" width="900"/>
  <unicode hex="005F"/>
  <outline>
    <contour>
      <point x="-170.0" y="-85.0" type="curve" smooth="yes"/>
      <point x="-170.0" y="-70.0" type="line" smooth="yes"/>
      <point x="-170.0" y="-33.0"/>
      <point x="-137.0" y="0.0"/>
      <point x="-70.0" y="0.0" type="curve" smooth="yes"/>
      <point x="690.0" y="0.0" type="line" smooth="yes"/>
      <point x="757.0" y="0.0"/>
      <point x="790.0" y="-33.0"/>
      <point x="790.0" y="-70.0" type="curve" smooth="yes"/>
      <point x="790.0" y="-85.0" type="line" smooth="yes"/>
      <point x="790.0" y="-122.0"/>
      <point x="757.0" y="-155.0"/>
      <point x="690.0" y="-155.0" type="curve" smooth="yes"/>
      <point x="-70.0" y="-155.0" type="line" smooth="yes"/>
      <point x="-137.0" y="-155.0"/>
      <point x="-170.0" y="-122.0"/>
    </contour>
  </outline>
</glyph>
<glyph name="grave" format="2">
  <advance width="623"/>
  <unicode hex="0060"/>
  <outline>
    <contour>
      <point x="531.0" y="1084.0" type="curve" smooth="yes"/>
      <point x="526.0" y="1084.0" type="line" smooth="yes"/>
      <point x="499.0" y="1084.0"/>
      <point x="477.0" y="1106.0"/>
      <point x="433.0" y="1157.0" type="curve" smooth="yes"/>
      <point x="327.0" y="1280.0" type="line" smooth="yes"/>
      <point x="286.284581832" y="1327.24524938"/>
      <point x="319.0" y="1430.0"/>
      <point x="426.0" y="1430.0" type="curve" smooth="yes"/>
      <point x="431.0" y="1430.0" type="line" smooth="yes"/>
      <point x="478.0" y="1430.0"/>
      <point x="506.0" y="1412.0"/>
      <point x="521.0" y="1359.0" type="curve" smooth="yes"/>
      <point x="566.0" y="1194.0" type="line" smooth="yes"/>
      <point x="591.0" y="1130.0"/>
      <point x="558.0" y="1084.0"/>
    </contour>
  </outline>
</glyph>
<glyph name="a" format="2">
  <advance height="1872" width="1123"/>
  <unicode hex="0061"/>
  <anchor x="405.0" y="0.0" name="bottom"/>
  <anchor x="810.0" y="0.0" name="ogonek"/>
  <anchor x="676.0" y="1050.0" name="top"/>
  <outline>
    <contour>
      <point x="782.0" y="406.0" type="line"/>
      <point x="717.0" y="123.0"/>
      <point x="538.0" y="-35.0"/>
      <point x="347.0" y="-35.0" type="curve" smooth="yes"/>
      <point x="146.0" y="-35.0"/>
      <point x="-23.0" y="103.0"/>
      <point x="54.0" y="435.0" type="curve" smooth="yes"/>
      <point x="95.0" y="614.0" type="line" smooth="yes"/>
      <point x="167.0" y="926.0"/>
      <point x="396.0" y="1084.0"/>
      <point x="597.0" y="1084.0" type="curve" smooth="yes"/>
      <point x="817.0" y="1084.0"/>
      <point x="902.0" y="926.0"/>
      <point x="837.0" y="644.0" type="curve"/>
      <point x="795.0" y="625.0" type="line"/>
      <point x="842.0" y="830.0"/>
      <point x="765.0" y="947.0"/>
      <point x="614.0" y="947.0" type="curve" smooth="yes"/>
      <point x="472.0" y="947.0"/>
      <point x="335.0" y="847.0"/>
      <point x="288.0" y="643.0" type="curve" smooth="yes"/>
      <point x="233.0" y="406.0" type="line" smooth="yes"/>
      <point x="186.0" y="202.0"/>
      <point x="277.0" y="103.0"/>
      <point x="419.0" y="103.0" type="curve" smooth="yes"/>
      <point x="571.0" y="103.0"/>
      <point x="702.0" y="221.0"/>
      <point x="749.0" y="425.0" type="curve"/>
    </contour>
    <contour>
      <point x="1003.0" y="58.0" type="curve" smooth="yes"/>
      <point x="1003.0" y="50.0" type="line" smooth="yes"/>
      <point x="1003.0" y="13.0"/>
      <point x="976.143559716" y="-11.0"/>
      <point x="889.0" y="-11.0" type="curve" smooth="yes"/>
      <point x="717.0" y="-11.0"/>
      <point x="661.0" y="43.0"/>
      <point x="708.0" y="246.0" type="curve" smooth="yes"/>
      <point x="853.0" y="878.0" type="line"/>
      <point x="1010.0" y="1053.0" type="line" smooth="yes"/>
      <point x="1031.24331512" y="1076.67885443"/>
      <point x="1044.00097656" y="1084.0"/>
      <point x="1054.0" y="1084.0" type="curve" smooth="yes"/>
      <point x="1056.0" y="1084.0" type="line" smooth="yes"/>
      <point x="1073.0" y="1084.0"/>
      <point x="1084.00589323" y="1070.07740168"/>
      <point x="1078.0" y="1044.0" type="curve" smooth="yes"/>
      <point x="885.0" y="206.0" type="line" smooth="yes"/>
      <point x="863.0" y="112.0"/>
      <point x="881.552491432" y="98.9597914287"/>
      <point x="944.0" y="101.0" type="curve" smooth="yes"/>
      <point x="979.99468134" y="102.175974175"/>
      <point x="1003.0" y="95.0"/>
    </contour>
  </outline>
</glyph>
<glyph name="b" format="2">
  <advance height="1872" width="1100"/>
  <unicode hex="0062"/>
  <outline>
    <contour>
      <point x="411.0" y="1480.0" type="curve" smooth="yes"/>
      <point x="418.0" y="1480.0" type="line" smooth="yes"/>
      <point x="475.0" y="1480.0"/>
      <point x="514.006340367" y="1433.52923162"/>
      <point x="497.0" y="1360.0" type="curve" smooth="yes"/>
      <point x="222.0" y="171.0" type="line"/>
      <point x="68.0" y="0.0" type="line" smooth="yes"/>
      <point x="46.0153709613" y="-24.4115036728"/>
      <point x="37.0" y="-34.0"/>
      <point x="20.0" y="-34.0" type="curve" smooth="yes"/>
      <point x="18.0" y="-34.0" type="line" smooth="yes"/>
      <point x="1.0" y="-34.0"/>
      <point x="-7.40359791295" y="-19.0597390126"/>
      <point x="3.0" y="26.0" type="curve" smooth="yes"/>
      <point x="311.0" y="1360.0" type="line" smooth="yes"/>
      <point x="328.001953125" y="1433.53125"/>
      <point x="354.0" y="1480.0"/>
    </contour>
    <contour>
      <point x="304.0" y="644.0" type="line"/>
      <point x="369.0" y="927.0"/>
      <point x="515.0" y="1084.0"/>
      <point x="706.0" y="1084.0" type="curve" smooth="yes"/>
      <point x="907.0" y="1084.0"/>
      <point x="1126.0" y="946.0"/>
      <point x="1049.0" y="614.0" type="curve" smooth="yes"/>
      <point x="1008.0" y="436.0" type="line" smooth="yes"/>
      <point x="936.0" y="124.0"/>
      <point x="688.0" y="-34.0"/>
      <point x="487.0" y="-34.0" type="curve" smooth="yes"/>
      <point x="267.0" y="-34.0"/>
      <point x="164.0" y="123.0"/>
      <point x="229.0" y="405.0" type="curve"/>
      <point x="281.0" y="425.0" type="line"/>
      <point x="234.0" y="220.0"/>
      <point x="319.0" y="113.0"/>
      <point x="470.0" y="113.0" type="curve" smooth="yes"/>
      <point x="612.0" y="113.0"/>
      <point x="768.0" y="203.0"/>
      <point x="815.0" y="407.0" type="curve" smooth="yes"/>
      <point x="869.0" y="643.0" type="line" smooth="yes"/>
      <point x="916.0" y="847.0"/>
      <point x="807.0" y="947.0"/>
      <point x="665.0" y="947.0" type="curve" smooth="yes"/>
      <point x="513.0" y="947.0"/>
      <point x="374.0" y="829.0"/>
      <point x="327.0" y="625.0" type="curve"/>
    </contour>
  </outline>
</glyph>
<glyph name="c" format="2">
  <advance height="1872" width="968"/>
  <unicode hex="0063"/>
  <anchor x="410.0" y="0.0" name="bottom"/>
  <anchor x="646.0" y="1050.0" name="top"/>
  <outline>
    <contour>
      <point x="881.0" y="340.0" type="curve" smooth="yes"/>
      <point x="875.127071092" y="319.640513119"/>
      <point x="863.0" y="293.0"/>
      <point x="845.0" y="253.0" type="curve" smooth="yes"/>
      <point x="762.0" y="71.0"/>
      <point x="623.0" y="-34.0"/>
      <point x="425.0" y="-34.0" type="curve" smooth="yes"/>
      <point x="153.0" y="-34.0"/>
      <point x="-23.0" y="146.0"/>
      <point x="44.0" y="437.0" type="curve" smooth="yes"/>
      <point x="85.0" y="614.0" type="line" smooth="yes"/>
      <point x="152.0" y="904.0"/>
      <point x="337.0" y="1084.0"/>
      <point x="609.0" y="1084.0" type="curve" smooth="yes"/>
      <point x="810.0" y="1084.0"/>
      <point x="969.0" y="1023.0"/>
      <point x="969.0" y="823.0" type="curve" smooth="yes"/>
      <point x="969.0" y="772.0"/>
      <point x="952.225935085" y="730.594114374"/>
      <point x="946.0" y="710.0" type="curve" smooth="yes"/>
      <point x="932.942520464" y="666.80853987"/>
      <point x="915.0" y="633.0"/>
      <point x="868.0" y="633.0" type="curve" smooth="yes"/>
      <point x="862.0" y="633.0" type="line" smooth="yes"/>
      <point x="815.0" y="633.0"/>
      <point x="788.0" y="666.0"/>
      <point x="803.0" y="723.0" type="curve" smooth="yes"/>
      <point x="807.829248718" y="741.351145128"/>
      <point x="816.0" y="771.0"/>
      <point x="816.0" y="807.0" type="curve" smooth="yes"/>
      <point x="816.0" y="909.0"/>
      <point x="715.0" y="947.0"/>
      <point x="603.0" y="947.0" type="curve" smooth="yes"/>
      <point x="455.0" y="947.0"/>
      <point x="323.0" y="838.0"/>
      <point x="278.0" y="643.0" type="curve" smooth="yes"/>
      <point x="224.0" y="408.0" type="line" smooth="yes"/>
      <point x="180.0" y="220.0"/>
      <point x="280.0" y="104.0"/>
      <point x="433.0" y="104.0" type="curve" smooth="yes"/>
      <point x="543.0" y="104.0"/>
      <point x="633.0" y="159.0"/>
      <point x="683.0" y="253.0" type="curve" smooth="yes"/>
      <point x="704.0" y="292.0"/>
      <point x="709.068357714" y="304.72265219"/>
      <point x="720.0" y="331.0" type="curve" smooth="yes"/>
      <point x="738.259848618" y="374.892800417"/>
      <point x="751.0" y="418.0"/>
      <point x="808.0" y="418.0" type="curve" smooth="yes"/>
      <point x="815.0" y="418.0" type="line" smooth="yes"/>
      <point x="862.0" y="418.0"/>
      <point x="896.0" y="392.0"/>
    </contour>
  </outline>
</glyph>
<glyph name="d" format="2">
  <advance height="1872" width="1100"/>
  <unicode hex="0064"/>
  <outline>
    <contour>
      <point x="819.0" y="406.0" type="line"/>
      <point x="754.0" y="123.0"/>
      <point x="585.0" y="-34.0"/>
      <point x="394.0" y="-34.0" type="curve" smooth="yes"/>
      <point x="193.0" y="-34.0"/>
      <point x="-23.0" y="104.0"/>
      <point x="54.0" y="436.0" type="curve" smooth="yes"/>
      <point x="95.0" y="614.0" type="line" smooth="yes"/>
      <point x="172.0" y="946.0"/>
      <point x="421.0" y="1084.0"/>
      <point x="622.0" y="1084.0" type="curve" smooth="yes"/>
      <point x="813.0" y="1084.0"/>
      <point x="919.0" y="927.0"/>
      <point x="854.0" y="644.0" type="curve"/>
      <point x="822.0" y="625.0" type="line"/>
      <point x="869.0" y="829.0"/>
      <point x="783.0" y="947.0"/>
      <point x="631.0" y="947.0" type="curve" smooth="yes"/>
      <point x="489.0" y="947.0"/>
      <point x="335.0" y="847.0"/>
      <point x="288.0" y="643.0" type="curve" smooth="yes"/>
      <point x="234.0" y="407.0" type="line" smooth="yes"/>
      <point x="187.0" y="203.0"/>
      <point x="294.0" y="103.0"/>
      <point x="436.0" y="103.0" type="curve" smooth="yes"/>
      <point x="588.0" y="103.0"/>
      <point x="729.0" y="221.0"/>
      <point x="776.0" y="425.0" type="curve"/>
    </contour>
    <contour>
      <point x="1173.0" y="1340.0" type="curve" smooth="yes"/>
      <point x="882.0" y="80.0" type="line" smooth="yes"/>
      <point x="867.208477523" y="15.9542325722"/>
      <point x="856.0" y="-30.0"/>
      <point x="789.0" y="-30.0" type="curve" smooth="yes"/>
      <point x="787.0" y="-30.0" type="line" smooth="yes"/>
      <point x="730.0" y="-30.0"/>
      <point x="695.185811704" y="15.9644763969"/>
      <point x="710.0" y="80.0" type="curve" smooth="yes"/>
      <point x="741.0" y="214.0" type="line"/>
      <point x="735.0" y="246.0" type="line"/>
      <point x="987.0" y="1340.0" type="line" smooth="yes"/>
      <point x="1010.5060571" y="1442.04613676"/>
      <point x="1045.0" y="1480.0"/>
      <point x="1092.0" y="1480.0" type="curve" smooth="yes"/>
      <point x="1095.0" y="1480.0" type="line" smooth="yes"/>
      <point x="1162.0" y="1480.0"/>
      <point x="1192.1672636" y="1423.03733088"/>
    </contour>
  </outline>
</glyph>
<glyph name="e" format="2">
  <advance height="1872" width="1074"/>
  <unicode hex="0065"/>
  <anchor x="434.0" y="0.0" name="bottom"/>
  <anchor x="664.0" y="60.0" name="ogonek"/>
  <anchor x="687.0" y="1050.0" name="top"/>
  <outline>
    <contour>
      <point x="917.0" y="283.0" type="curve" smooth="yes"/>
      <point x="908.0" y="260.0"/>
      <point x="900.0" y="239.0"/>
      <point x="876.0" y="193.0" type="curve" smooth="yes"/>
      <point x="798.0" y="45.0"/>
      <point x="643.0" y="-34.0"/>
      <point x="466.0" y="-34.0" type="curve" smooth="yes"/>
      <point x="203.0" y="-34.0"/>
      <point x="14.0" y="134.0"/>
      <point x="84.0" y="437.0" type="curve" smooth="yes"/>
      <point x="125.0" y="614.0" type="line" smooth="yes"/>
      <point x="193.0" y="907.0"/>
      <point x="362.0" y="1084.0"/>
      <point x="632.0" y="1084.0" type="curve" smooth="yes"/>
      <point x="892.0" y="1084.0"/>
      <point x="1049.55393154" y="889.067036654"/>
      <point x="1022.0" y="683.0" type="curve" smooth="yes"/>
      <point x="1018.463555" y="656.552059499"/>
      <point x="1014.9179041" y="627.236568212"/>
      <point x="1008.0" y="593.0" type="curve" smooth="yes"/>
      <point x="990.832123968" y="508.036526864"/>
      <point x="961.0" y="485.0"/>
      <point x="874.0" y="485.0" type="curve" smooth="yes"/>
      <point x="216.0" y="485.0" type="line"/>
      <point x="243.0" y="592.0" type="line"/>
      <point x="830.0" y="592.0" type="line"/>
      <point x="909.0" y="837.0"/>
      <point x="781.0" y="967.0"/>
      <point x="623.0" y="967.0" type="curve" smooth="yes"/>
      <point x="472.0" y="967.0"/>
      <point x="364.0" y="847.0"/>
      <point x="317.0" y="643.0" type="curve" smooth="yes"/>
      <point x="263.0" y="408.0" type="line" smooth="yes"/>
      <point x="214.0" y="194.0"/>
      <point x="312.0" y="83.0"/>
      <point x="473.0" y="83.0" type="curve" smooth="yes"/>
      <point x="631.0" y="83.0"/>
      <point x="713.0" y="180.0"/>
      <point x="756.0" y="286.0" type="curve" smooth="yes"/>
      <point x="776.30251344" y="336.048056386"/>
      <point x="801.0" y="372.0"/>
      <point x="848.0" y="372.0" type="curve" smooth="yes"/>
      <point x="855.0" y="372.0" type="line" smooth="yes"/>
      <point x="902.0" y="372.0"/>
      <point x="937.418945312" y="335.182617188"/>
    </contour>
  </outline>
</glyph>
<glyph name="h" format="2">
  <advance height="1872" width="1075"/>
  <unicode hex="0068"/>
  <anchor x="434.0" y="0.0" name="bottom"/>
  <anchor x="438.0" y="1450.0" name="top"/>
  <outline>
    <contour>
      <point x="420.0" y="1480.0" type="curve" smooth="yes"/>
      <point x="430.0" y="1480.0" type="line" smooth="yes"/>
      <point x="477.0" y="1480.0"/>
      <point x="522.0" y="1447.0"/>
      <point x="504.0" y="1370.0" type="curve" smooth="yes"/>
      <point x="206.0" y="80.0" type="line" smooth="yes"/>
      <point x="188.0" y="3.0"/>
      <point x="148.0" y="-30.0"/>
      <point x="101.0" y="-30.0" type="curve" smooth="yes"/>
      <point x="91.0" y="-30.0" type="line" smooth="yes"/>
      <point x="44.0" y="-30.0"/>
      <point x="2.0" y="3.0"/>
      <point x="20.0" y="80.0" type="curve" smooth="yes"/>
      <point x="318.0" y="1370.0" type="line" smooth="yes"/>
      <point x="336.0" y="1447.0"/>
      <point x="373.0" y="1480.0"/>
    </contour>
    <contour>
      <point x="331.0" y="703.0" type="line"/>
      <point x="382.0" y="923.0"/>
      <point x="515.0" y="1084.0"/>
      <point x="722.0" y="1084.0" type="curve" smooth="yes"/>
      <point x="929.0" y="1084.0"/>
      <point x="1057.0" y="963.0"/>
      <point x="1011.0" y="763.0" type="curve" smooth="yes"/>
      <point x="853.0" y="80.0" type="line" smooth="yes"/>
      <point x="835.0" y="3.0"/>
      <point x="798.0" y="-30.0"/>
      <point x="751.0" y="-30.0" type="curve" smooth="yes"/>
      <point x="741.0" y="-30.0" type="line" smooth="yes"/>
      <point x="694.0" y="-30.0"/>
      <point x="648.0" y="3.0"/>
      <point x="666.0" y="80.0" type="curve" smooth="yes"/>
      <point x="824.0" y="763.0" type="line" smooth="yes"/>
      <point x="852.0" y="883.0"/>
      <point x="810.0" y="955.0"/>
      <point x="673.0" y="955.0" type="curve" smooth="yes"/>
      <point x="506.0" y="955.0"/>
      <point x="380.0" y="833.0"/>
      <point x="332.0" y="623.0" type="curve"/>
    </contour>
  </outline>
</glyph>
<glyph name="i" format="2">
  <advance height="1872" width="434"/>
  <unicode hex="0069"/>
  <anchor x="104.0" y="0.0" name="bottom"/>
  <anchor x="104.0" y="0.0" name="ogonek"/>
  <outline>
    <contour>
      <point x="531.0" y="1335.0" type="curve" smooth="yes"/>
      <point x="531.0" y="1325.0" type="line" smooth="yes"/>
      <point x="531.0" y="1261.0"/>
      <point x="481.0" y="1210.0"/>
      <point x="411.0" y="1210.0" type="curve" smooth="yes"/>
      <point x="401.0" y="1210.0" type="line" smooth="yes"/>
      <point x="331.0" y="1210.0"/>
      <point x="281.0" y="1261.0"/>
      <point x="281.0" y="1325.0" type="curve" smooth="yes"/>
      <point x="281.0" y="1335.0" type="line" smooth="yes"/>
      <point x="281.0" y="1399.0"/>
      <point x="331.0" y="1450.0"/>
      <point x="401.0" y="1450.0" type="curve" smooth="yes"/>
      <point x="411.0" y="1450.0" type="line" smooth="yes"/>
      <point x="481.0" y="1450.0"/>
      <point x="531.0" y="1399.0"/>
    </contour>
    <contour>
      <point x="415.0" y="970.0" type="curve" smooth="yes"/>
      <point x="209.0" y="80.0" type="line" smooth="yes"/>
      <point x="191.0" y="3.0"/>
      <point x="153.0" y="-30.0"/>
      <point x="106.0" y="-30.0" type="curve" smooth="yes"/>
      <point x="96.0" y="-30.0" type="line" smooth="yes"/>
      <point x="49.0" y="-30.0"/>
      <point x="5.0" y="3.0"/>
      <point x="23.0" y="80.0" type="curve" smooth="yes"/>
      <point x="229.0" y="970.0" type="line" smooth="yes"/>
      <point x="247.0" y="1047.0"/>
      <point x="287.0" y="1080.0"/>
      <point x="334.0" y="1080.0" type="curve" smooth="yes"/>
      <point x="344.0" y="1080.0" type="line" smooth="yes"/>
      <point x="391.0" y="1080.0"/>
      <point x="433.0" y="1047.0"/>
    </contour>
  </outline>
</glyph>
<glyph name="k" format="2">
  <advance height="1872" width="970"/>
  <unicode hex="006B"/>
  <outline>
    <contour>
      <point x="432.0" y="1480.0" type="curve" smooth="yes"/>
      <point x="442.0" y="1480.0" type="line" smooth="yes"/>
      <point x="489.0" y="1480.0"/>
      <point x="517.0" y="1447.0"/>
      <point x="499.0" y="1370.0" type="curve" smooth="yes"/>
      <point x="201.0" y="80.0" type="line" smooth="yes"/>
      <point x="183.0" y="3.0"/>
      <point x="140.0" y="-30.0"/>
      <point x="93.0" y="-30.0" type="curve" smooth="yes"/>
      <point x="83.0" y="-30.0" type="line" smooth="yes"/>
      <point x="36.0" y="-30.0"/>
      <point x="-3.0" y="3.0"/>
      <point x="15.0" y="80.0" type="curve" smooth="yes"/>
      <point x="313.0" y="1370.0" type="line" smooth="yes"/>
      <point x="331.0" y="1447.0"/>
      <point x="385.0" y="1480.0"/>
    </contour>
    <contour>
      <point x="203.0" y="501.0" type="line"/>
      <point x="764.0" y="1000.0" type="line" smooth="yes"/>
      <point x="836.0" y="1061.0"/>
      <point x="879.0" y="1080.0"/>
      <point x="907.0" y="1080.0" type="curve" smooth="yes"/>
      <point x="911.0" y="1080.0" type="line" smooth="yes"/>
      <point x="978.0" y="1080.0"/>
      <point x="1005.48351278" y="1010.65130922"/>
      <point x="929.0" y="950.0" type="curve" smooth="yes"/>
      <point x="272.0" y="429.0" type="line"/>
    </contour>
    <contour>
      <point x="460.0" y="650.0" type="line"/>
      <point x="600.0" y="713.0" type="line"/>
      <point x="818.0" y="137.0" type="line" smooth="yes"/>
      <point x="861.0" y="30.0"/>
      <point x="803.0" y="-30.0"/>
      <point x="756.0" y="-30.0" type="curve" smooth="yes"/>
      <point x="746.0" y="-30.0" type="line" smooth="yes"/>
      <point x="698.0" y="-30.0"/>
      <point x="660.0" y="-7.0"/>
      <point x="636.0" y="60.0" type="curve" smooth="yes"/>
    </contour>
  </outline>
</glyph>
<glyph name="l" format="2">
  <advance height="1872" width="434"/>
  <unicode hex="006C"/>
  <outline>
    <contour>
      <point x="427.0" y="1480.0" type="curve" smooth="yes"/>
      <point x="437.0" y="1480.0" type="line" smooth="yes"/>
      <point x="484.0" y="1480.0"/>
      <point x="525.0" y="1447.0"/>
      <point x="507.0" y="1370.0" type="curve" smooth="yes"/>
      <point x="209.0" y="80.0" type="line" smooth="yes"/>
      <point x="191.0" y="3.0"/>
      <point x="155.0" y="-30.0"/>
      <point x="108.0" y="-30.0" type="curve" smooth="yes"/>
      <point x="98.0" y="-30.0" type="line" smooth="yes"/>
      <point x="51.0" y="-30.0"/>
      <point x="5.0" y="3.0"/>
      <point x="23.0" y="80.0" type="curve" smooth="yes"/>
      <point x="321.0" y="1370.0" type="line" smooth="yes"/>
      <point x="339.0" y="1447.0"/>
      <point x="380.0" y="1480.0"/>
    </contour>
  </outline>
</glyph>
<glyph name="m" format="2">
  <advance height="1872" width="1609"/>
  <unicode hex="006D"/>
  <outline>
    <contour>
      <point x="884.0" y="708.0" type="line"/>
      <point x="935.0" y="928.0"/>
      <point x="1094.0" y="1085.0"/>
      <point x="1281.0" y="1085.0" type="curve" smooth="yes"/>
      <point x="1468.0" y="1085.0"/>
      <point x="1589.20213937" y="962.721906266"/>
      <point x="1543.0" y="763.0" type="curve" smooth="yes"/>
      <point x="1385.0" y="80.0" type="line" smooth="yes"/>
      <point x="1367.0" y="3.0"/>
      <point x="1317.0" y="-30.0"/>
      <point x="1270.0" y="-30.0" type="curve" smooth="yes"/>
      <point x="1260.0" y="-30.0" type="line" smooth="yes"/>
      <point x="1213.0" y="-30.0"/>
      <point x="1181.0" y="3.0"/>
      <point x="1199.0" y="80.0" type="curve" smooth="yes"/>
      <point x="1357.0" y="763.0" type="line" smooth="yes"/>
      <point x="1385.0" y="883.0"/>
      <point x="1350.0" y="957.0"/>
      <point x="1233.0" y="957.0" type="curve" smooth="yes"/>
      <point x="1086.0" y="957.0"/>
      <point x="970.0" y="836.0"/>
      <point x="922.0" y="626.0" type="curve"/>
    </contour>
    <contour>
      <point x="335.0" y="1080.0" type="curve" smooth="yes"/>
      <point x="345.0" y="1080.0" type="line" smooth="yes"/>
      <point x="392.0" y="1080.0"/>
      <point x="423.0" y="1047.0"/>
      <point x="405.0" y="970.0" type="curve" smooth="yes"/>
      <point x="378.0" y="852.0" type="line"/>
      <point x="381.0" y="825.0" type="line"/>
      <point x="209.0" y="80.0" type="line" smooth="yes"/>
      <point x="191.0" y="3.0"/>
      <point x="141.0" y="-30.0"/>
      <point x="94.0" y="-30.0" type="curve" smooth="yes"/>
      <point x="84.0" y="-30.0" type="line" smooth="yes"/>
      <point x="37.0" y="-30.0"/>
      <point x="4.0" y="3.0"/>
      <point x="22.0" y="80.0" type="curve" smooth="yes"/>
      <point x="228.0" y="970.0" type="line" smooth="yes"/>
      <point x="246.0" y="1047.0"/>
      <point x="288.0" y="1080.0"/>
    </contour>
    <contour>
      <point x="315.0" y="713.0" type="line"/>
      <point x="366.0" y="933.0"/>
      <point x="525.0" y="1085.0"/>
      <point x="692.0" y="1085.0" type="curve" smooth="yes"/>
      <point x="879.0" y="1085.0"/>
      <point x="1000.0" y="963.0"/>
      <point x="954.0" y="763.0" type="curve" smooth="yes"/>
      <point x="796.0" y="80.0" type="line" smooth="yes"/>
      <point x="778.0" y="3.0"/>
      <point x="728.0" y="-30.0"/>
      <point x="681.0" y="-30.0" type="curve" smooth="yes"/>
      <point x="671.0" y="-30.0" type="line" smooth="yes"/>
      <point x="624.0" y="-30.0"/>
      <point x="593.0" y="3.0"/>
      <point x="611.0" y="80.0" type="curve" smooth="yes"/>
      <point x="769.0" y="763.0" type="line" smooth="yes"/>
      <point x="797.0" y="883.0"/>
      <point x="759.0" y="955.0"/>
      <point x="642.0" y="955.0" type="curve" smooth="yes"/>
      <point x="495.0" y="955.0"/>
      <point x="382.0" y="833.0"/>
      <point x="334.0" y="623.0" type="curve"/>
    </contour>
  </outline>
</glyph>
<glyph name="n" format="2">
  <advance height="1872" width="1074"/>
  <unicode hex="006E"/>
  <anchor x="434.0" y="0.0" name="bottom"/>
  <anchor x="677.0" y="1050.0" name="top"/>
  <outline>
    <contour>
      <point x="332.0" y="1080.0" type="curve" smooth="yes"/>
      <point x="342.0" y="1080.0" type="line" smooth="yes"/>
      <point x="389.0" y="1080.0"/>
      <point x="420.0" y="1047.0"/>
      <point x="402.0" y="970.0" type="curve" smooth="yes"/>
      <point x="371.0" y="837.0" type="line"/>
      <point x="375.0" y="810.0" type="line"/>
      <point x="206.0" y="80.0" type="line" smooth="yes"/>
      <point x="188.0" y="3.0"/>
      <point x="138.0" y="-30.0"/>
      <point x="91.0" y="-30.0" type="curve" smooth="yes"/>
      <point x="81.0" y="-30.0" type="line" smooth="yes"/>
      <point x="34.0" y="-30.0"/>
      <point x="1.0" y="3.0"/>
      <point x="19.0" y="80.0" type="curve" smooth="yes"/>
      <point x="225.0" y="970.0" type="line" smooth="yes"/>
      <point x="243.0" y="1047.0"/>
      <point x="285.0" y="1080.0"/>
    </contour>
    <contour>
      <point x="310.0" y="703.0" type="line"/>
      <point x="361.0" y="923.0"/>
      <point x="506.0" y="1085.0"/>
      <point x="713.0" y="1085.0" type="curve" smooth="yes"/>
      <point x="920.0" y="1085.0"/>
      <point x="1056.0" y="963.0"/>
      <point x="1010.0" y="763.0" type="curve" smooth="yes"/>
      <point x="852.0" y="80.0" type="line" smooth="yes"/>
      <point x="834.0" y="3.0"/>
      <point x="788.0" y="-30.0"/>
      <point x="741.0" y="-30.0" type="curve" smooth="yes"/>
      <point x="731.0" y="-30.0" type="line" smooth="yes"/>
      <point x="684.0" y="-30.0"/>
      <point x="648.0" y="3.0"/>
      <point x="666.0" y="80.0" type="curve" smooth="yes"/>
      <point x="824.0" y="763.0" type="line" smooth="yes"/>
      <point x="852.0" y="883.0"/>
      <point x="808.0" y="957.0"/>
      <point x="671.0" y="957.0" type="curve" smooth="yes"/>
      <point x="504.0" y="957.0"/>
      <point x="380.0" y="833.0"/>
      <point x="332.0" y="623.0" type="curve"/>
    </contour>
  </outline>
</glyph>
<glyph name="p" format="2">
  <advance height="1872" width="1100"/>
  <unicode hex="0070"/>
  <outline>
    <contour>
      <point x="284.0" y="644.0" type="line"/>
      <point x="349.0" y="927.0"/>
      <point x="534.0" y="1084.0"/>
      <point x="725.0" y="1084.0" type="curve" smooth="yes"/>
      <point x="926.0" y="1084.0"/>
      <point x="1126.0" y="946.0"/>
      <point x="1049.0" y="614.0" type="curve" smooth="yes"/>
      <point x="1008.0" y="436.0" type="line" smooth="yes"/>
      <point x="932.0" y="106.0"/>
      <point x="748.0" y="-34.0"/>
      <point x="517.0" y="-34.0" type="curve" smooth="yes"/>
      <point x="326.0" y="-34.0"/>
      <point x="174.0" y="123.0"/>
      <point x="239.0" y="406.0" type="curve"/>
      <point x="281.0" y="425.0" type="line"/>
      <point x="234.0" y="221.0"/>
      <point x="337.0" y="103.0"/>
      <point x="489.0" y="103.0" type="curve" smooth="yes"/>
      <point x="631.0" y="103.0"/>
      <point x="768.0" y="203.0"/>
      <point x="815.0" y="407.0" type="curve" smooth="yes"/>
      <point x="869.0" y="643.0" type="line" smooth="yes"/>
      <point x="916.0" y="847.0"/>
      <point x="826.0" y="947.0"/>
      <point x="684.0" y="947.0" type="curve" smooth="yes"/>
      <point x="532.0" y="947.0"/>
      <point x="374.0" y="829.0"/>
      <point x="327.0" y="625.0" type="curve"/>
    </contour>
    <contour>
      <point x="-68.0" y="-280.0" type="curve" smooth="yes"/>
      <point x="221.0" y="970.0" type="line" smooth="yes"/>
      <point x="236.0" y="1037.0"/>
      <point x="274.0" y="1080.0"/>
      <point x="321.0" y="1080.0" type="curve" smooth="yes"/>
      <point x="326.0" y="1080.0" type="line" smooth="yes"/>
      <point x="373.0" y="1080.0"/>
      <point x="407.0" y="1037.0"/>
      <point x="392.0" y="970.0" type="curve" smooth="yes"/>
      <point x="360.0" y="830.0" type="line"/>
      <point x="367.0" y="798.0" type="line"/>
      <point x="118.0" y="-280.0" type="line" smooth="yes"/>
      <point x="103.0" y="-347.0"/>
      <point x="54.0" y="-390.0"/>
      <point x="7.0" y="-390.0" type="curve" smooth="yes"/>
      <point x="-3.0" y="-390.0" type="line" smooth="yes"/>
      <point x="-50.0" y="-390.0"/>
      <point x="-83.0" y="-347.0"/>
    </contour>
  </outline>
</glyph>
<glyph name="q" format="2">
  <advance height="1872" width="1100"/>
  <unicode hex="0071"/>
  <outline>
    <contour>
      <point x="698.0" y="-390.0" type="curve" smooth="yes"/>
      <point x="688.0" y="-390.0" type="line" smooth="yes"/>
      <point x="641.0" y="-390.0"/>
      <point x="596.0" y="-357.0"/>
      <point x="611.0" y="-290.0" type="curve" smooth="yes"/>
      <point x="878.0" y="865.0" type="line"/>
      <point x="962.0" y="985.0" type="line" smooth="yes"/>
      <point x="1004.0" y="1044.0"/>
      <point x="1039.0" y="1075.0"/>
      <point x="1066.0" y="1075.0" type="curve" smooth="yes"/>
      <point x="1067.0" y="1075.0" type="line" smooth="yes"/>
      <point x="1094.0" y="1075.0"/>
      <point x="1109.0" y="1062.0"/>
      <point x="1098.0" y="1015.0" type="curve" smooth="yes"/>
      <point x="797.0" y="-290.0" type="line" smooth="yes"/>
      <point x="782.0" y="-357.0"/>
      <point x="745.0" y="-390.0"/>
    </contour>
    <contour>
      <point x="799.0" y="406.0" type="line"/>
      <point x="734.0" y="123.0"/>
      <point x="568.0" y="-35.0"/>
      <point x="377.0" y="-35.0" type="curve" smooth="yes"/>
      <point x="176.0" y="-35.0"/>
      <point x="-24.0" y="103.0"/>
      <point x="53.0" y="435.0" type="curve" smooth="yes"/>
      <point x="95.0" y="614.0" type="line" smooth="yes"/>
      <point x="167.0" y="926.0"/>
      <point x="375.0" y="1084.0"/>
      <point x="576.0" y="1084.0" type="curve" smooth="yes"/>
      <point x="796.0" y="1084.0"/>
      <point x="949.0" y="926.0"/>
      <point x="884.0" y="644.0" type="curve"/>
      <point x="822.0" y="625.0" type="line"/>
      <point x="869.0" y="830.0"/>
      <point x="765.0" y="947.0"/>
      <point x="614.0" y="947.0" type="curve" smooth="yes"/>
      <point x="472.0" y="947.0"/>
      <point x="335.0" y="847.0"/>
      <point x="288.0" y="643.0" type="curve" smooth="yes"/>
      <point x="234.0" y="406.0" type="line" smooth="yes"/>
      <point x="187.0" y="202.0"/>
      <point x="277.0" y="103.0"/>
      <point x="419.0" y="103.0" type="curve" smooth="yes"/>
      <point x="571.0" y="103.0"/>
      <point x="729.0" y="221.0"/>
      <point x="776.0" y="425.0" type="curve"/>
    </contour>
  </outline>
</glyph>
<glyph name="r" format="2">
  <advance height="1872" width="834"/>
  <unicode hex="0072"/>
  <anchor x="104.0" y="0.0" name="bottom"/>
  <anchor x="577.0" y="1050.0" name="top"/>
  <outline>
    <contour>
      <point x="348.0" y="713.0" type="curve"/>
      <point x="332.0" y="770.0" type="line"/>
      <point x="369.0" y="930.0"/>
      <point x="520.0" y="1084.0"/>
      <point x="682.0" y="1084.0" type="curve" smooth="yes"/>
      <point x="891.0" y="1084.0"/>
      <point x="891.8359375" y="869.041015625"/>
      <point x="790.0" y="720.0" type="curve" smooth="yes"/>
      <point x="759.488254671" y="675.344825963"/>
      <point x="719.0" y="633.0"/>
      <point x="672.0" y="633.0" type="curve" smooth="yes"/>
      <point x="670.0" y="633.0" type="line" smooth="yes"/>
      <point x="623.0" y="633.0"/>
      <point x="586.685424519" y="675.799822802"/>
      <point x="616.0" y="720.0" type="curve" smooth="yes"/>
      <point x="741.279028985" y="908.894268104"/>
      <point x="692.0" y="957.0"/>
      <point x="613.0" y="957.0" type="curve" smooth="yes"/>
      <point x="515.0" y="957.0"/>
      <point x="381.0" y="858.0"/>
    </contour>
    <contour>
      <point x="319.0" y="1080.0" type="curve" smooth="yes"/>
      <point x="324.0" y="1080.0" type="line" smooth="yes"/>
      <point x="371.0" y="1080.0"/>
      <point x="410.0" y="1047.0"/>
      <point x="392.0" y="970.0" type="curve" smooth="yes"/>
      <point x="347.0" y="774.0" type="line"/>
      <point x="360.0" y="765.0" type="line"/>
      <point x="201.0" y="80.0" type="line" smooth="yes"/>
      <point x="183.0" y="3.0"/>
      <point x="143.0" y="-30.0"/>
      <point x="96.0" y="-30.0" type="curve" smooth="yes"/>
      <point x="86.0" y="-30.0" type="line" smooth="yes"/>
      <point x="39.0" y="-30.0"/>
      <point x="-3.0" y="3.0"/>
      <point x="15.0" y="80.0" type="curve" smooth="yes"/>
      <point x="221.0" y="970.0" type="line" smooth="yes"/>
      <point x="239.0" y="1047.0"/>
      <point x="272.0" y="1080.0"/>
    </contour>
  </outline>
</glyph>
<glyph name="s" format="2">
  <advance height="1872" width="968"/>
  <unicode hex="0073"/>
  <anchor x="364.0" y="0.0" name="bottom"/>
  <anchor x="587.0" y="1050.0" name="top"/>
  <outline>
    <contour>
      <point x="111.0" y="388.0" type="curve" smooth="yes"/>
      <point x="121.0" y="388.0" type="line" smooth="yes"/>
      <point x="158.0" y="388.0"/>
      <point x="172.0" y="359.0"/>
      <point x="167.0" y="312.0" type="curve" smooth="yes"/>
      <point x="165.0" y="291.0"/>
      <point x="165.0" y="280.0"/>
      <point x="165.0" y="271.0" type="curve" smooth="yes"/>
      <point x="161.0" y="175.0"/>
      <point x="182.0" y="93.0"/>
      <point x="362.0" y="93.0" type="curve" smooth="yes"/>
      <point x="547.0" y="93.0"/>
      <point x="644.249277873" y="169.179229207"/>
      <point x="668.0" y="267.0" type="curve" smooth="yes"/>
      <point x="727.0" y="510.0"/>
      <point x="90.0" y="412.0"/>
      <point x="166.0" y="778.0" type="curve" smooth="yes"/>
      <point x="203.975516688" y="960.882093525"/>
      <point x="381.0" y="1085.0"/>
      <point x="608.0" y="1085.0" type="curve" smooth="yes"/>
      <point x="808.0" y="1085.0"/>
      <point x="945.0" y="980.0"/>
      <point x="928.0" y="834.0" type="curve" smooth="yes"/>
      <point x="926.0" y="821.0"/>
      <point x="924.0" y="812.0"/>
      <point x="922.0" y="802.0" type="curve" smooth="yes"/>
      <point x="904.0" y="725.0"/>
      <point x="870.0" y="698.0"/>
      <point x="823.0" y="698.0" type="curve" smooth="yes"/>
      <point x="814.0" y="698.0" type="line" smooth="yes"/>
      <point x="777.0" y="698.0"/>
      <point x="757.0" y="721.0"/>
      <point x="765.0" y="783.0" type="curve" smooth="yes"/>
      <point x="768.0" y="805.0"/>
      <point x="768.0" y="817.0"/>
      <point x="768.0" y="826.0" type="curve" smooth="yes"/>
      <point x="768.0" y="901.0"/>
      <point x="693.0" y="952.0"/>
      <point x="597.0" y="952.0" type="curve" smooth="yes"/>
      <point x="469.0" y="952.0"/>
      <point x="361.601169688" y="895.090894335"/>
      <point x="339.0" y="795.0" type="curve" smooth="yes"/>
      <point x="283.0" y="547.0"/>
      <point x="944.0" y="649.0"/>
      <point x="846.0" y="252.0" type="curve" smooth="yes"/>
      <point x="793.853145513" y="40.7520282532"/>
      <point x="603.0" y="-35.0"/>
      <point x="339.0" y="-35.0" type="curve" smooth="yes"/>
      <point x="111.0" y="-35.0"/>
      <point x="-21.0" y="73.0"/>
      <point x="0.0" y="236.0" type="curve" smooth="yes"/>
      <point x="1.0" y="243.0"/>
      <point x="1.0" y="250.0"/>
      <point x="6.0" y="270.0" type="curve" smooth="yes"/>
      <point x="24.0" y="347.0"/>
      <point x="64.0" y="388.0"/>
    </contour>
  </outline>
</glyph>
<glyph name="t" format="2">
  <advance height="1872" width="608"/>
  <unicode hex="0074"/>
  <anchor x="234.0" y="0.0" name="bottom"/>
  <outline>
    <contour>
      <point x="590.0" y="933.0" type="curve" smooth="yes"/>
      <point x="230.0" y="933.0" type="line" smooth="yes"/>
      <point x="153.0" y="933.0"/>
      <point x="120.0" y="938.0"/>
      <point x="120.0" y="985.0" type="curve" smooth="yes"/>
      <point x="120.0" y="995.0" type="line" smooth="yes"/>
      <point x="120.0" y="1042.0"/>
      <point x="153.0" y="1050.0"/>
      <point x="230.0" y="1050.0" type="curve" smooth="yes"/>
      <point x="590.0" y="1050.0" type="line" smooth="yes"/>
      <point x="667.0" y="1050.0"/>
      <point x="700.0" y="1042.0"/>
      <point x="700.0" y="995.0" type="curve" smooth="yes"/>
      <point x="700.0" y="985.0" type="line" smooth="yes"/>
      <point x="700.0" y="938.0"/>
      <point x="667.0" y="933.0"/>
    </contour>
    <contour>
      <point x="515.0" y="80.0" type="curve" smooth="yes"/>
      <point x="515.0" y="70.0" type="line" smooth="yes"/>
      <point x="515.0" y="22.8583984375"/>
      <point x="457.000001045" y="-1.64609819608"/>
      <point x="379.0" y="-8.0" type="curve" smooth="yes"/>
      <point x="156.358874638" y="-26.1364080655"/>
      <point x="46.0" y="44.0"/>
      <point x="94.0" y="252.0" type="curve" smooth="yes"/>
      <point x="343.0" y="1330.0" type="line" smooth="yes"/>
      <point x="361.0" y="1407.0"/>
      <point x="396.0" y="1450.0"/>
      <point x="443.0" y="1450.0" type="curve" smooth="yes"/>
      <point x="448.0" y="1450.0" type="line" smooth="yes"/>
      <point x="495.0" y="1450.0"/>
      <point x="532.0" y="1407.0"/>
      <point x="514.0" y="1330.0" type="curve" smooth="yes"/>
      <point x="270.0" y="272.0" type="line" smooth="yes"/>
      <point x="234.156070914" y="116.57837306"/>
      <point x="320.000838792" y="114.934221563"/>
      <point x="401.0" y="116.0" type="curve" smooth="yes"/>
      <point x="477.0" y="117.0"/>
      <point x="515.0" y="127.0"/>
    </contour>
  </outline>
</glyph>
<glyph name="u" format="2">
  <advance height="1872" width="1074"/>
  <unicode hex="0075"/>
  <anchor x="414.0" y="0.0" name="bottom"/>
  <anchor x="750.0" y="0.0" name="ogonek"/>
  <anchor x="657.0" y="1050.0" name="top"/>
  <outline>
    <contour>
      <point x="758.0" y="-30.0" type="curve" smooth="yes"/>
      <point x="753.0" y="-30.0" type="line" smooth="yes"/>
      <point x="706.0" y="-30.0"/>
      <point x="660.0" y="3.0"/>
      <point x="678.0" y="80.0" type="curve" smooth="yes"/>
      <point x="705.0" y="193.0" type="line"/>
      <point x="703.0" y="250.0" type="line"/>
      <point x="869.0" y="970.0" type="line" smooth="yes"/>
      <point x="887.0" y="1047.0"/>
      <point x="927.0" y="1080.0"/>
      <point x="974.0" y="1080.0" type="curve" smooth="yes"/>
      <point x="984.0" y="1080.0" type="line" smooth="yes"/>
      <point x="1031.0" y="1080.0"/>
      <point x="1073.0" y="1047.0"/>
      <point x="1055.0" y="970.0" type="curve" smooth="yes"/>
      <point x="849.0" y="80.0" type="line" smooth="yes"/>
      <point x="831.117651006" y="2.74130774466"/>
      <point x="805.0" y="-30.0"/>
    </contour>
    <contour>
      <point x="764.0" y="347.0" type="line"/>
      <point x="713.0" y="127.0"/>
      <point x="533.0" y="-35.0"/>
      <point x="326.0" y="-35.0" type="curve" smooth="yes"/>
      <point x="119.0" y="-35.0"/>
      <point x="18.0" y="87.0"/>
      <point x="64.0" y="287.0" type="curve" smooth="yes"/>
      <point x="222.0" y="970.0" type="line" smooth="yes"/>
      <point x="240.0" y="1047.0"/>
      <point x="280.0" y="1080.0"/>
      <point x="327.0" y="1080.0" type="curve" smooth="yes"/>
      <point x="337.0" y="1080.0" type="line" smooth="yes"/>
      <point x="384.0" y="1080.0"/>
      <point x="426.0" y="1047.0"/>
      <point x="408.0" y="970.0" type="curve" smooth="yes"/>
      <point x="250.0" y="287.0" type="line" smooth="yes"/>
      <point x="224.0" y="167.0"/>
      <point x="263.0" y="95.0"/>
      <point x="400.0" y="95.0" type="curve" smooth="yes"/>
      <point x="567.0" y="95.0"/>
      <point x="696.0" y="217.0"/>
      <point x="744.0" y="427.0" type="curve"/>
    </contour>
  </outline>
</glyph>
<glyph name="v" format="2">
  <advance height="1872" width="969"/>
  <unicode hex="0076"/>
  <outline>
    <contour>
      <point x="397.0" y="162.0" type="line"/>
      <point x="847.0" y="970.0" type="line" smooth="yes"/>
      <point x="887.0" y="1040.0"/>
      <point x="914.0" y="1080.0"/>
      <point x="961.0" y="1080.0" type="curve" smooth="yes"/>
      <point x="962.0" y="1080.0" type="line" smooth="yes"/>
      <point x="1019.0" y="1080.0"/>
      <point x="1068.0" y="1039.0"/>
      <point x="1027.0" y="970.0" type="curve" smooth="yes"/>
      <point x="502.0" y="80.0" type="line" smooth="yes"/>
      <point x="450.0" y="-7.0"/>
      <point x="410.0" y="-30.0"/>
      <point x="363.0" y="-30.0" type="curve" smooth="yes"/>
      <point x="349.0" y="-30.0" type="line" smooth="yes"/>
      <point x="302.0" y="-30.0"/>
      <point x="266.0" y="-7.0"/>
      <point x="255.0" y="80.0" type="curve" smooth="yes"/>
      <point x="151.0" y="970.0" type="line" smooth="yes"/>
      <point x="142.0" y="1039.0"/>
      <point x="190.0" y="1080.0"/>
      <point x="237.0" y="1080.0" type="curve" smooth="yes"/>
      <point x="247.0" y="1080.0" type="line" smooth="yes"/>
      <point x="294.0" y="1080.0"/>
      <point x="321.0" y="1040.0"/>
      <point x="328.0" y="970.0" type="curve" smooth="yes"/>
    </contour>
  </outline>
</glyph>
<glyph name="w" format="2">
  <advance height="1872" width="1401"/>
  <unicode hex="0077"/>
  <outline>
    <contour>
      <point x="923.0" y="211.0" type="line"/>
      <point x="1282.0" y="970.0" type="line" smooth="yes"/>
      <point x="1317.0" y="1043.0"/>
      <point x="1336.0" y="1080.0"/>
      <point x="1383.0" y="1080.0" type="curve" smooth="yes"/>
      <point x="1393.0" y="1080.0" type="line" smooth="yes"/>
      <point x="1440.0" y="1080.0"/>
      <point x="1486.0" y="1041.0"/>
      <point x="1449.0" y="970.0" type="curve" smooth="yes"/>
      <point x="999.0" y="80.0" type="line" smooth="yes"/>
      <point x="962.0" y="9.0"/>
      <point x="923.0" y="-30.0"/>
      <point x="876.0" y="-30.0" type="curve" smooth="yes"/>
      <point x="871.0" y="-30.0" type="line" smooth="yes"/>
      <point x="824.0" y="-30.0"/>
      <point x="796.0" y="7.0"/>
      <point x="793.0" y="80.0" type="curve" smooth="yes"/>
      <point x="767.0" y="796.0" type="line"/>
      <point x="416.0" y="80.0" type="line" smooth="yes"/>
      <point x="379.0" y="7.0"/>
      <point x="340.0" y="-30.0"/>
      <point x="293.0" y="-30.0" type="curve" smooth="yes"/>
      <point x="278.0" y="-30.0" type="line" smooth="yes"/>
      <point x="231.0" y="-30.0"/>
      <point x="204.0" y="7.0"/>
      <point x="200.0" y="80.0" type="curve" smooth="yes"/>
      <point x="162.0" y="930.0" type="line" smooth="yes"/>
      <point x="157.0" y="1030.0"/>
      <point x="187.0" y="1080.0"/>
      <point x="244.0" y="1080.0" type="curve" smooth="yes"/>
      <point x="247.0" y="1080.0" type="line" smooth="yes"/>
      <point x="294.0" y="1080.0"/>
      <point x="328.0" y="1043.0"/>
      <point x="329.0" y="970.0" type="curve" smooth="yes"/>
      <point x="332.0" y="211.0" type="line"/>
      <point x="707.0" y="970.0" type="line" smooth="yes"/>
      <point x="743.0" y="1042.0"/>
      <point x="783.0" y="1080.0"/>
      <point x="830.0" y="1080.0" type="curve" smooth="yes"/>
      <point x="835.0" y="1080.0" type="line" smooth="yes"/>
      <point x="882.0" y="1080.0"/>
      <point x="900.0" y="1043.0"/>
      <point x="902.0" y="970.0" type="curve" smooth="yes"/>
    </contour>
  </outline>
</glyph>
<glyph name="x" format="2">
  <advance height="1872" width="966"/>
  <unicode hex="0078"/>
  <outline>
    <contour>
      <point x="38.0" y="-30.0" type="curve" smooth="yes"/>
      <point x="33.0" y="-30.0" type="line" smooth="yes"/>
      <point x="-34.0" y="-30.0"/>
      <point x="-39.6623113741" y="48.1770392586"/>
      <point x="38.0" y="140.0" type="curve" smooth="yes"/>
      <point x="389.0" y="555.0" type="line"/>
      <point x="222.0" y="940.0" type="line" smooth="yes"/>
      <point x="188.870061437" y="1016.37740327"/>
      <point x="237.0" y="1080.0"/>
      <point x="294.0" y="1080.0" type="curve" smooth="yes"/>
      <point x="299.0" y="1080.0" type="line" smooth="yes"/>
      <point x="346.0" y="1080.0"/>
      <point x="370.939271483" y="1048.97611592"/>
      <point x="402.0" y="970.0" type="curve" smooth="yes"/>
      <point x="531.0" y="642.0" type="line"/>
      <point x="784.0" y="970.0" type="line" smooth="yes"/>
      <point x="848.165245669" y="1053.18656355"/>
      <point x="875.0" y="1080.0"/>
      <point x="912.0" y="1080.0" type="curve" smooth="yes"/>
      <point x="917.0" y="1080.0" type="line" smooth="yes"/>
      <point x="974.0" y="1080.0"/>
      <point x="998.688570547" y="1010.8322562"/>
      <point x="921.0" y="920.0" type="curve" smooth="yes"/>
      <point x="590.0" y="533.0" type="line"/>
      <point x="743.0" y="150.0" type="line" smooth="yes"/>
      <point x="783.023327729" y="49.8108854895"/>
      <point x="763.0" y="-30.0"/>
      <point x="696.0" y="-30.0" type="curve" smooth="yes"/>
      <point x="686.0" y="-30.0" type="line" smooth="yes"/>
      <point x="638.0" y="-30.0"/>
      <point x="612.895744202" y="14.2670569692"/>
      <point x="590.0" y="80.0" type="curve" smooth="yes"/>
      <point x="466.0" y="436.0" type="line"/>
      <point x="170.0" y="80.0" type="line" smooth="yes"/>
      <point x="109.588116743" y="7.34246473091"/>
      <point x="85.0" y="-30.0"/>
    </contour>
  </outline>
</glyph>
<glyph name="y" format="2">
  <advance height="1872" width="969"/>
  <unicode hex="0079"/>
  <anchor x="607.0" y="1050.0" name="top"/>
  <outline>
    <contour>
      <point x="389.0" y="211.0" type="line"/>
      <point x="833.0" y="970.0" type="line" smooth="yes"/>
      <point x="876.295938915" y="1044.01265233"/>
      <point x="891.0" y="1080.0"/>
      <point x="948.0" y="1080.0" type="curve" smooth="yes"/>
      <point x="949.0" y="1080.0" type="line" smooth="yes"/>
      <point x="1006.0" y="1080.0"/>
      <point x="1036.73382209" y="1023.3382614"/>
      <point x="987.0" y="939.0" type="curve" smooth="yes"/>
      <point x="369.0" y="-109.0" type="line" smooth="yes"/>
      <point x="253.288065926" y="-305.166423082"/>
      <point x="147.0" y="-371.0"/>
      <point x="0.0" y="-371.0" type="curve" smooth="yes"/>
      <point x="-199.0" y="-371.0"/>
      <point x="-206.0" y="-244.0"/>
      <point x="-177.0" y="-167.0" type="curve" smooth="yes"/>
      <point x="-157.938081922" y="-116.387320964"/>
      <point x="-120.0" y="-70.0"/>
      <point x="-63.0" y="-70.0" type="curve" smooth="yes"/>
      <point x="-61.0" y="-70.0" type="line" smooth="yes"/>
      <point x="-4.0" y="-70.0"/>
      <point x="-1.36066906957" y="-117.295117519"/>
      <point x="-20.0" y="-167.0" type="curve" smooth="yes"/>
      <point x="-35.0" y="-207.0"/>
      <point x="-37.0" y="-253.0"/>
      <point x="18.0" y="-253.0" type="curve" smooth="yes"/>
      <point x="90.0" y="-253.0"/>
      <point x="152.0" y="-194.0"/>
      <point x="252.0" y="-12.0" type="curve"/>
      <point x="168.0" y="940.0" type="line" smooth="yes"/>
      <point x="160.462660944" y="1025.42317597"/>
      <point x="184.0" y="1080.0"/>
      <point x="241.0" y="1080.0" type="curve" smooth="yes"/>
      <point x="245.0" y="1080.0" type="line" smooth="yes"/>
      <point x="292.0" y="1080.0"/>
      <point x="320.818308184" y="1044.57616769"/>
      <point x="327.0" y="969.0" type="curve" smooth="yes"/>
    </contour>
  </outline>
</glyph>
<glyph name="z" format="2">
  <advance height="1872" width="967"/>
  <unicode hex="007A"/>
  <anchor x="637.0" y="1050.0" name="top"/>
  <outline>
    <contour>
      <point x="72.0" y="160.0" type="curve" smooth="yes"/>
      <point x="733.0" y="903.0" type="line"/>
      <point x="320.0" y="903.0" type="line" smooth="yes"/>
      <point x="241.0" y="903.0"/>
      <point x="206.0" y="921.0"/>
      <point x="206.0" y="970.0" type="curve" smooth="yes"/>
      <point x="206.0" y="980.0" type="line" smooth="yes"/>
      <point x="206.0" y="1029.0"/>
      <point x="245.0" y="1050.0"/>
      <point x="324.0" y="1050.0" type="curve" smooth="yes"/>
      <point x="908.0" y="1050.0" type="line" smooth="yes"/>
      <point x="1005.0" y="1050.0"/>
      <point x="1001.79129477" y="971.84283714"/>
      <point x="947.0" y="910.0" type="curve" smooth="yes"/>
      <point x="271.0" y="147.0" type="line"/>
      <point x="747.0" y="147.0" type="line" smooth="yes"/>
      <point x="824.0" y="147.0"/>
      <point x="870.0" y="127.0"/>
      <point x="870.0" y="80.0" type="curve" smooth="yes"/>
      <point x="870.0" y="70.0" type="line" smooth="yes"/>
      <point x="870.0" y="23.0"/>
      <point x="819.0" y="0.0"/>
      <point x="742.0" y="0.0" type="curve" smooth="yes"/>
      <point x="92.0" y="0.0" type="line" smooth="yes"/>
      <point x="6.0" y="0.0"/>
      <point x="3.93899612728" y="83.495724845"/>
    </contour>
  </outline>
</glyph>
<glyph name="braceleft" format="2">
  <advance height="2048" width="575"/>
  <unicode hex="007B"/>
  <outline>
    <contour>
      <point x="330.0" y="1278.0" type="line" smooth="yes"/>
      <point x="382.0" y="1505.0"/>
      <point x="466.0" y="1600.0"/>
      <point x="644.0" y="1600.0" type="curve" smooth="yes"/>
      <point x="721.0" y="1600.0"/>
      <point x="749.0" y="1577.0"/>
      <point x="743.0" y="1550.0" type="curve" smooth="yes"/>
      <point x="741.0" y="1540.0" type="line" smooth="yes"/>
      <point x="732.0" y="1503.0"/>
      <point x="679.0" y="1510.0"/>
      <point x="640.0" y="1500.0" type="curve" smooth="yes"/>
      <point x="598.0" y="1489.0"/>
      <point x="545.0" y="1452.0"/>
      <point x="505.0" y="1278.0" type="curve" smooth="yes"/>
      <point x="431.0" y="956.0" type="line" smooth="yes"/>
      <point x="388.0" y="771.0"/>
      <point x="336.0" y="668.0"/>
      <point x="169.0" y="620.0" type="curve"/>
      <point x="314.0" y="572.0"/>
      <point x="319.0" y="469.0"/>
      <point x="276.0" y="284.0" type="curve" smooth="yes"/>
      <point x="201.0" y="-38.0" type="line" smooth="yes"/>
      <point x="161.0" y="-212.0"/>
      <point x="198.0" y="-249.0"/>
      <point x="234.0" y="-260.0" type="curve" smooth="yes"/>
      <point x="269.0" y="-270.0"/>
      <point x="325.0" y="-263.0"/>
      <point x="316.0" y="-300.0" type="curve" smooth="yes"/>
      <point x="313.0" y="-310.0" type="line" smooth="yes"/>
      <point x="307.0" y="-337.0"/>
      <point x="269.0" y="-360.0"/>
      <point x="192.0" y="-360.0" type="curve" smooth="yes"/>
      <point x="14.0" y="-360.0"/>
      <point x="-26.0" y="-265.0"/>
      <point x="26.0" y="-38.0" type="curve" smooth="yes"/>
      <point x="101.0" y="284.0" type="line" smooth="yes"/>
      <point x="141.0" y="457.0"/>
      <point x="121.0" y="504.0"/>
      <point x="57.0" y="542.0" type="curve" smooth="yes"/>
      <point x="26.0" y="560.0"/>
      <point x="13.0" y="579.0"/>
      <point x="22.0" y="616.0" type="curve" smooth="yes"/>
      <point x="24.0" y="624.0" type="line" smooth="yes"/>
      <point x="33.0" y="661.0"/>
      <point x="54.0" y="681.0"/>
      <point x="91.0" y="697.0" type="curve" smooth="yes"/>
      <point x="178.0" y="734.0"/>
      <point x="216.0" y="782.0"/>
      <point x="256.0" y="956.0" type="curve" smooth="yes"/>
    </contour>
  </outline>
</glyph>
<glyph name="bar" format="2">
  <advance height="1920" width="415"/>
  <unicode hex="007C"/>
  <outline>
    <contour>
      <point x="459.0" y="1630.0" type="curve" smooth="yes"/>
      <point x="469.0" y="1630.0" type="line" smooth="yes"/>
      <point x="516.0" y="1630.0"/>
      <point x="537.0" y="1597.0"/>
      <point x="519.0" y="1520.0" type="curve" smooth="yes"/>
      <point x="103.0" y="-280.0" type="line" smooth="yes"/>
      <point x="85.0" y="-357.0"/>
      <point x="50.0" y="-390.0"/>
      <point x="3.0" y="-390.0" type="curve" smooth="yes"/>
      <point x="-7.0" y="-390.0" type="line" smooth="yes"/>
      <point x="-54.0" y="-390.0"/>
      <point x="-75.0" y="-357.0"/>
      <point x="-57.0" y="-280.0" type="curve" smooth="yes"/>
      <point x="359.0" y="1520.0" type="line" smooth="yes"/>
      <point x="377.0" y="1597.0"/>
      <point x="412.0" y="1630.0"/>
    </contour>
  </outline>
</glyph>
<glyph name="braceright" format="2">
  <advance height="2048" width="575"/>
  <unicode hex="007D"/>
  <outline>
    <contour>
      <point x="291.0" y="-38.0" type="line" smooth="yes"/>
      <point x="239.0" y="-265.0"/>
      <point x="155.0" y="-360.0"/>
      <point x="-23.0" y="-360.0" type="curve" smooth="yes"/>
      <point x="-100.0" y="-360.0"/>
      <point x="-128.0" y="-337.0"/>
      <point x="-122.0" y="-310.0" type="curve" smooth="yes"/>
      <point x="-119.0" y="-300.0" type="line" smooth="yes"/>
      <point x="-110.0" y="-263.0"/>
      <point x="-58.0" y="-270.0"/>
      <point x="-19.0" y="-260.0" type="curve" smooth="yes"/>
      <point x="23.0" y="-249.0"/>
      <point x="76.0" y="-212.0"/>
      <point x="116.0" y="-38.0" type="curve" smooth="yes"/>
      <point x="191.0" y="284.0" type="line" smooth="yes"/>
      <point x="234.0" y="469.0"/>
      <point x="285.0" y="572.0"/>
      <point x="452.0" y="620.0" type="curve"/>
      <point x="307.0" y="668.0"/>
      <point x="303.0" y="771.0"/>
      <point x="346.0" y="956.0" type="curve" smooth="yes"/>
      <point x="420.0" y="1278.0" type="line" smooth="yes"/>
      <point x="460.0" y="1452.0"/>
      <point x="423.0" y="1489.0"/>
      <point x="387.0" y="1500.0" type="curve" smooth="yes"/>
      <point x="352.0" y="1510.0"/>
      <point x="297.0" y="1503.0"/>
      <point x="306.0" y="1540.0" type="curve" smooth="yes"/>
      <point x="308.0" y="1550.0" type="line" smooth="yes"/>
      <point x="314.0" y="1577.0"/>
      <point x="352.0" y="1600.0"/>
      <point x="429.0" y="1600.0" type="curve" smooth="yes"/>
      <point x="607.0" y="1600.0"/>
      <point x="647.0" y="1505.0"/>
      <point x="595.0" y="1278.0" type="curve" smooth="yes"/>
      <point x="521.0" y="956.0" type="line" smooth="yes"/>
      <point x="481.0" y="783.0"/>
      <point x="500.0" y="736.0"/>
      <point x="564.0" y="698.0" type="curve" smooth="yes"/>
      <point x="595.0" y="680.0"/>
      <point x="608.0" y="661.0"/>
      <point x="599.0" y="624.0" type="curve" smooth="yes"/>
      <point x="597.0" y="616.0" type="line" smooth="yes"/>
      <point x="588.0" y="579.0"/>
      <point x="567.0" y="559.0"/>
      <point x="530.0" y="543.0" type="curve" smooth="yes"/>
      <point x="443.0" y="506.0"/>
      <point x="406.0" y="458.0"/>
      <point x="366.0" y="284.0" type="curve" smooth="yes"/>
    </contour>
  </outline>
</glyph>
<glyph name="asciitilde" format="2">
  <advance height="2048" width="1330"/>
  <unicode hex="007E"/>
  <outline>
    <contour>
      <point x="454.0" y="659.0" type="curve" smooth="yes"/>
      <point x="362.0" y="659.0"/>
      <point x="296.0" y="590.0"/>
      <point x="269.0" y="517.0" type="curve" smooth="yes"/>
      <point x="241.0" y="442.0"/>
      <point x="211.0" y="408.0"/>
      <point x="154.0" y="408.0" type="curve" smooth="yes"/>
      <point x="144.0" y="408.0" type="line" smooth="yes"/>
      <point x="97.0" y="408.0"/>
      <point x="83.0" y="441.0"/>
      <point x="109.0" y="517.0" type="curve" smooth="yes"/>
      <point x="155.0" y="655.0"/>
      <point x="288.0" y="809.0"/>
      <point x="459.0" y="809.0" type="curve" smooth="yes"/>
      <point x="698.0" y="809.0"/>
      <point x="764.0" y="552.0"/>
      <point x="916.0" y="552.0" type="curve" smooth="yes"/>
      <point x="1008.0" y="552.0"/>
      <point x="1072.0" y="611.0"/>
      <point x="1101.0" y="693.0" type="curve" smooth="yes"/>
      <point x="1129.0" y="769.0"/>
      <point x="1154.0" y="803.0"/>
      <point x="1211.0" y="803.0" type="curve" smooth="yes"/>
      <point x="1220.0" y="803.0" type="line" smooth="yes"/>
      <point x="1267.0" y="803.0"/>
      <point x="1284.0" y="770.0"/>
      <point x="1260.0" y="693.0" type="curve" smooth="yes"/>
      <point x="1218.0" y="555.0"/>
      <point x="1082.0" y="402.0"/>
      <point x="912.0" y="402.0" type="curve" smooth="yes"/>
      <point x="673.0" y="402.0"/>
      <point x="606.0" y="659.0"/>
    </contour>
  </outline>
</glyph>
<glyph name="exclamdown" format="2">
  <advance height="1920" width="540"/>
  <unicode hex="00A1"/>
  <outline>
    <contour>
      <point x="365.0" y="1085.0" type="curve" smooth="yes"/>
      <point x="375.0" y="1085.0" type="line" smooth="yes"/>
      <point x="452.0" y="1085.0"/>
      <point x="505.0" y="1022.0"/>
      <point x="505.0" y="955.0" type="curve" smooth="yes"/>
      <point x="505.0" y="945.0" type="line" smooth="yes"/>
      <point x="505.0" y="878.0"/>
      <point x="452.0" y="815.0"/>
      <point x="375.0" y="815.0" type="curve" smooth="yes"/>
      <point x="365.0" y="815.0" type="line" smooth="yes"/>
      <point x="288.0" y="815.0"/>
      <point x="235.0" y="878.0"/>
      <point x="235.0" y="945.0" type="curve" smooth="yes"/>
      <point x="235.0" y="955.0" type="line" smooth="yes"/>
      <point x="235.0" y="1022.0"/>
      <point x="288.0" y="1085.0"/>
    </contour>
    <contour>
      <point x="252.0" y="25.0" type="curve" smooth="yes"/>
      <point x="173.0" y="-315.0" type="line" smooth="yes"/>
      <point x="155.0" y="-392.0"/>
      <point x="105.0" y="-425.0"/>
      <point x="58.0" y="-425.0" type="curve" smooth="yes"/>
      <point x="48.0" y="-425.0" type="line" smooth="yes"/>
      <point x="1.0" y="-425.0"/>
      <point x="-35.0" y="-392.0"/>
      <point x="-17.0" y="-315.0" type="curve" smooth="yes"/>
      <point x="62.0" y="25.0" type="line" smooth="yes"/>
      <point x="73.0" y="72.0"/>
      <point x="93.0" y="149.0"/>
      <point x="110.0" y="195.0" type="curve" smooth="yes"/>
      <point x="243.0" y="575.0" type="line" smooth="yes"/>
      <point x="263.0" y="631.0"/>
      <point x="282.0" y="645.0"/>
      <point x="299.0" y="645.0" type="curve" smooth="yes"/>
      <point x="301.0" y="645.0" type="line" smooth="yes"/>
      <point x="318.0" y="645.0"/>
      <point x="331.0" y="631.0"/>
      <point x="325.0" y="575.0" type="curve" smooth="yes"/>
      <point x="282.0" y="195.0" type="line" smooth="yes"/>
      <point x="277.0" y="149.0"/>
      <point x="263.0" y="72.0"/>
    </contour>
  </outline>
</glyph>
<glyph name="cent" format="2">
  <advance height="1920" width="968"/>
  <unicode hex="00A2"/>
  <outline>
    <contour>
      <point x="681.0" y="1240.0" type="curve" smooth="yes"/>
      <point x="691.0" y="1240.0" type="line" smooth="yes"/>
      <point x="708.0" y="1240.0"/>
      <point x="724.0" y="1227.0"/>
      <point x="715.0" y="1190.0" type="curve" smooth="yes"/>
      <point x="408.0" y="-140.0" type="line" smooth="yes"/>
      <point x="399.0" y="-177.0"/>
      <point x="378.0" y="-190.0"/>
      <point x="361.0" y="-190.0" type="curve" smooth="yes"/>
      <point x="351.0" y="-190.0" type="line" smooth="yes"/>
      <point x="334.0" y="-190.0"/>
      <point x="319.0" y="-177.0"/>
      <point x="328.0" y="-140.0" type="curve" smooth="yes"/>
      <point x="635.0" y="1190.0" type="line" smooth="yes"/>
      <point x="644.0" y="1227.0"/>
      <point x="664.0" y="1240.0"/>
    </contour>
    <component base="c"/>
  </outline>
</glyph>
<glyph name="sterling" format="2">
  <advance height="1920" width="1280"/>
  <unicode hex="00A3"/>
  <outline>
    <contour>
      <point x="59.0" y="690.0" type="curve" smooth="yes"/>
      <point x="60.0" y="695.0" type="line" smooth="yes"/>
      <point x="69.0" y="732.0"/>
      <point x="96.0" y="750.0"/>
      <point x="173.0" y="750.0" type="curve" smooth="yes"/>
      <point x="713.0" y="750.0" type="line" smooth="yes"/>
      <point x="790.0" y="750.0"/>
      <point x="809.0" y="732.0"/>
      <point x="800.0" y="695.0" type="curve" smooth="yes"/>
      <point x="799.0" y="690.0" type="line" smooth="yes"/>
      <point x="790.0" y="653.0"/>
      <point x="764.0" y="635.0"/>
      <point x="687.0" y="635.0" type="curve" smooth="yes"/>
      <point x="147.0" y="635.0" type="line" smooth="yes"/>
      <point x="70.0" y="635.0"/>
      <point x="50.0" y="653.0"/>
    </contour>
    <contour>
      <point x="60.0" y="199.0" type="curve" smooth="yes"/>
      <point x="197.0" y="291.0"/>
      <point x="288.0" y="345.0"/>
      <point x="327.0" y="514.0" type="curve" smooth="yes"/>
      <point x="373.0" y="712.0"/>
      <point x="204.0" y="795.0"/>
      <point x="261.0" y="1043.0" type="curve" smooth="yes"/>
      <point x="314.0" y="1273.0"/>
      <point x="499.0" y="1435.0"/>
      <point x="786.0" y="1435.0" type="curve" smooth="yes"/>
      <point x="1080.0" y="1435.0"/>
      <point x="1166.0" y="1266.0"/>
      <point x="1145.0" y="1041.0" type="curve" smooth="yes"/>
      <point x="1138.0" y="964.0"/>
      <point x="1095.0" y="923.0"/>
      <point x="1048.0" y="923.0" type="curve" smooth="yes"/>
      <point x="1038.0" y="923.0" type="line" smooth="yes"/>
      <point x="991.0" y="923.0"/>
      <point x="969.0" y="964.0"/>
      <point x="975.0" y="1041.0" type="curve" smooth="yes"/>
      <point x="986.0" y="1176.0"/>
      <point x="939.0" y="1295.0"/>
      <point x="764.0" y="1295.0" type="curve" smooth="yes"/>
      <point x="587.0" y="1295.0"/>
      <point x="482.0" y="1223.0"/>
      <point x="445.0" y="1063.0" type="curve" smooth="yes"/>
      <point x="401.0" y="872.0"/>
      <point x="539.0" y="740.0"/>
      <point x="487.0" y="514.0" type="curve" smooth="yes"/>
      <point x="445.0" y="332.0"/>
      <point x="294.0" y="241.0"/>
      <point x="155.0" y="155.0" type="curve"/>
      <point x="876.0" y="155.0" type="line" smooth="yes"/>
      <point x="953.0" y="155.0"/>
      <point x="981.0" y="132.0"/>
      <point x="970.0" y="85.0" type="curve" smooth="yes"/>
      <point x="966.0" y="70.0" type="line" smooth="yes"/>
      <point x="955.0" y="23.0"/>
      <point x="917.0" y="0.0"/>
      <point x="840.0" y="0.0" type="curve" smooth="yes"/>
      <point x="40.0" y="0.0" type="line" smooth="yes"/>
      <point x="-37.0" y="0.0"/>
      <point x="-64.0" y="28.0"/>
      <point x="-53.0" y="75.0" type="curve" smooth="yes"/>
      <point x="-50.0" y="85.0" type="line" smooth="yes"/>
      <point x="-40.0" y="129.0"/>
      <point x="-12.0" y="151.0"/>
    </contour>
  </outline>
</glyph>
<glyph name="currency" format="2">
  <advance width="1112"/>
  <unicode hex="00A4"/>
  <outline>
    <contour>
      <point x="1175.0" y="1183.0" type="curve" smooth="yes"/>
      <point x="1178.0" y="1179.0" type="line" smooth="yes"/>
      <point x="1203.0" y="1146.0"/>
      <point x="1186.0" y="1106.0"/>
      <point x="1120.0" y="1052.0" type="curve" smooth="yes"/>
      <point x="981.0" y="939.0" type="line" smooth="yes"/>
      <point x="975.0" y="934.0"/>
      <point x="971.0" y="934.0"/>
      <point x="967.0" y="939.0" type="curve" smooth="yes"/>
      <point x="899.0" y="1027.0" type="line" smooth="yes"/>
      <point x="895.0" y="1032.0"/>
      <point x="897.0" y="1037.0"/>
      <point x="903.0" y="1042.0" type="curve" smooth="yes"/>
      <point x="1042.0" y="1155.0" type="line" smooth="yes"/>
      <point x="1108.0" y="1209.0"/>
      <point x="1150.0" y="1216.0"/>
    </contour>
    <contour>
      <point x="220.0" y="476.0" type="curve" smooth="yes"/>
      <point x="288.0" y="388.0" type="line" smooth="yes"/>
      <point x="292.0" y="383.0"/>
      <point x="290.0" y="378.0"/>
      <point x="284.0" y="373.0" type="curve" smooth="yes"/>
      <point x="145.0" y="260.0" type="line" smooth="yes"/>
      <point x="79.0" y="206.0"/>
      <point x="37.0" y="199.0"/>
      <point x="12.0" y="232.0" type="curve" smooth="yes"/>
      <point x="8.0" y="236.0" type="line" smooth="yes"/>
      <point x="-17.0" y="269.0"/>
      <point x="1.0" y="309.0"/>
      <point x="67.0" y="363.0" type="curve" smooth="yes"/>
      <point x="206.0" y="476.0" type="line" smooth="yes"/>
      <point x="212.0" y="481.0"/>
      <point x="216.0" y="481.0"/>
    </contour>
    <contour>
      <point x="226.0" y="1179.0" type="curve" smooth="yes"/>
      <point x="231.0" y="1183.0" type="line" smooth="yes"/>
      <point x="272.0" y="1216.0"/>
      <point x="310.0" y="1209.0"/>
      <point x="352.0" y="1155.0" type="curve" smooth="yes"/>
      <point x="439.0" y="1042.0" type="line" smooth="yes"/>
      <point x="443.0" y="1037.0"/>
      <point x="441.0" y="1032.0"/>
      <point x="435.0" y="1027.0" type="curve" smooth="yes"/>
      <point x="327.0" y="939.0" type="line" smooth="yes"/>
      <point x="321.0" y="934.0"/>
      <point x="317.0" y="934.0"/>
      <point x="313.0" y="939.0" type="curve" smooth="yes"/>
      <point x="226.0" y="1052.0" type="line" smooth="yes"/>
      <point x="184.0" y="1106.0"/>
      <point x="185.0" y="1146.0"/>
    </contour>
    <contour>
      <point x="752.0" y="388.0" type="curve" smooth="yes"/>
      <point x="860.0" y="476.0" type="line" smooth="yes"/>
      <point x="866.0" y="481.0"/>
      <point x="870.0" y="481.0"/>
      <point x="874.0" y="476.0" type="curve" smooth="yes"/>
      <point x="961.0" y="363.0" type="line" smooth="yes"/>
      <point x="1003.0" y="309.0"/>
      <point x="1001.0" y="269.0"/>
      <point x="960.0" y="236.0" type="curve" smooth="yes"/>
      <point x="956.0" y="232.0" type="line" smooth="yes"/>
      <point x="915.0" y="199.0"/>
      <point x="877.0" y="206.0"/>
      <point x="835.0" y="260.0" type="curve" smooth="yes"/>
      <point x="748.0" y="373.0" type="line" smooth="yes"/>
      <point x="744.0" y="378.0"/>
      <point x="746.0" y="383.0"/>
    </contour>
    <contour>
      <point x="107.0" y="710.0" type="curve" smooth="yes"/>
      <point x="169.0" y="979.0"/>
      <point x="441.0" y="1200.0"/>
      <point x="710.0" y="1200.0" type="curve" smooth="yes"/>
      <point x="979.0" y="1200.0"/>
      <point x="1149.0" y="979.0"/>
      <point x="1087.0" y="710.0" type="curve" smooth="yes"/>
      <point x="1025.0" y="441.0"/>
      <point x="753.0" y="220.0"/>
      <point x="484.0" y="220.0" type="curve" smooth="yes"/>
      <point x="215.0" y="220.0"/>
      <point x="45.0" y="441.0"/>
    </contour>
    <contour>
      <point x="267.0" y="710.0" type="curve" smooth="yes"/>
      <point x="223.0" y="521.0"/>
      <point x="329.0" y="370.0"/>
      <point x="518.0" y="370.0" type="curve" smooth="yes"/>
      <point x="707.0" y="370.0"/>
      <point x="883.0" y="521.0"/>
      <point x="927.0" y="710.0" type="curve" smooth="yes"/>
      <point x="971.0" y="899.0"/>
      <point x="864.0" y="1050.0"/>
      <point x="675.0" y="1050.0" type="curve" smooth="yes"/>
      <point x="486.0" y="1050.0"/>
      <point x="311.0" y="899.0"/>
    </contour>
  </outline>
</glyph>
<glyph name="brokenbar" format="2">
  <advance height="1920" width="415"/>
  <unicode hex="00A6"/>
  <outline>
    <contour>
      <point x="189.0" y="460.0" type="curve" smooth="yes"/>
      <point x="199.0" y="460.0" type="line" smooth="yes"/>
      <point x="246.0" y="460.0"/>
      <point x="267.0" y="427.0"/>
      <point x="249.0" y="350.0" type="curve" smooth="yes"/>
      <point x="103.0" y="-280.0" type="line" smooth="yes"/>
      <point x="85.0" y="-357.0"/>
      <point x="50.0" y="-390.0"/>
      <point x="3.0" y="-390.0" type="curve" smooth="yes"/>
      <point x="-7.0" y="-390.0" type="line" smooth="yes"/>
      <point x="-54.0" y="-390.0"/>
      <point x="-75.0" y="-357.0"/>
      <point x="-57.0" y="-280.0" type="curve" smooth="yes"/>
      <point x="89.0" y="350.0" type="line" smooth="yes"/>
      <point x="107.0" y="427.0"/>
      <point x="142.0" y="460.0"/>
    </contour>
    <contour>
      <point x="459.0" y="1630.0" type="curve" smooth="yes"/>
      <point x="469.0" y="1630.0" type="line" smooth="yes"/>
      <point x="516.0" y="1630.0"/>
      <point x="537.0" y="1597.0"/>
      <point x="519.0" y="1520.0" type="curve" smooth="yes"/>
      <point x="373.0" y="890.0" type="line" smooth="yes"/>
      <point x="355.0" y="813.0"/>
      <point x="320.0" y="780.0"/>
      <point x="273.0" y="780.0" type="curve" smooth="yes"/>
      <point x="263.0" y="780.0" type="line" smooth="yes"/>
      <point x="216.0" y="780.0"/>
      <point x="195.0" y="813.0"/>
      <point x="213.0" y="890.0" type="curve" smooth="yes"/>
      <point x="359.0" y="1520.0" type="line" smooth="yes"/>
      <point x="377.0" y="1597.0"/>
      <point x="412.0" y="1630.0"/>
    </contour>
  </outline>
</glyph>
<glyph name="section" format="2">
  <advance height="1920" width="1086"/>
  <unicode hex="00A7"/>
  <outline>
    <contour>
      <point x="559.0" y="850.0" type="line"/>
      <point x="414.0" y="850.0"/>
      <point x="295.0" y="736.0"/>
      <point x="268.0" y="618.0" type="curve" smooth="yes"/>
      <point x="243.0" y="511.0"/>
      <point x="286.0" y="424.0"/>
      <point x="444.0" y="321.0" type="curve" smooth="yes"/>
      <point x="653.0" y="185.0"/>
      <point x="771.0" y="67.0"/>
      <point x="734.0" y="-93.0" type="curve" smooth="yes"/>
      <point x="692.0" y="-275.0"/>
      <point x="528.0" y="-400.0"/>
      <point x="301.0" y="-400.0" type="curve" smooth="yes"/>
      <point x="67.0" y="-400.0"/>
      <point x="9.0" y="-267.0"/>
      <point x="21.0" y="-127.0" type="curve" smooth="yes"/>
      <point x="27.0" y="-52.0"/>
      <point x="64.0" y="-18.0"/>
      <point x="111.0" y="-18.0" type="curve" smooth="yes"/>
      <point x="120.0" y="-18.0" type="line" smooth="yes"/>
      <point x="167.0" y="-18.0"/>
      <point x="177.0" y="-54.0"/>
      <point x="180.0" y="-128.0" type="curve" smooth="yes"/>
      <point x="183.0" y="-209.0"/>
      <point x="211.0" y="-265.0"/>
      <point x="334.0" y="-265.0" type="curve" smooth="yes"/>
      <point x="462.0" y="-265.0"/>
      <point x="537.0" y="-210.0"/>
      <point x="560.0" y="-110.0" type="curve" smooth="yes"/>
      <point x="578.0" y="-32.0"/>
      <point x="501.0" y="71.0"/>
      <point x="357.0" y="162.0" type="curve" smooth="yes"/>
      <point x="110.0" y="318.0"/>
      <point x="49.0" y="406.0"/>
      <point x="85.0" y="563.0" type="curve" smooth="yes"/>
      <point x="136.0" y="785.0"/>
      <point x="325.0" y="930.0"/>
      <point x="589.0" y="930.0" type="curve"/>
    </contour>
    <contour>
      <point x="526.0" y="185.0" type="line"/>
      <point x="671.0" y="185.0"/>
      <point x="790.0" y="299.0"/>
      <point x="817.0" y="417.0" type="curve" smooth="yes"/>
      <point x="842.0" y="524.0"/>
      <point x="799.0" y="611.0"/>
      <point x="641.0" y="714.0" type="curve" smooth="yes"/>
      <point x="432.0" y="850.0"/>
      <point x="314.0" y="968.0"/>
      <point x="351.0" y="1128.0" type="curve" smooth="yes"/>
      <point x="393.0" y="1310.0"/>
      <point x="557.0" y="1435.0"/>
      <point x="784.0" y="1435.0" type="curve" smooth="yes"/>
      <point x="1018.0" y="1435.0"/>
      <point x="1076.0" y="1302.0"/>
      <point x="1064.0" y="1162.0" type="curve" smooth="yes"/>
      <point x="1058.0" y="1087.0"/>
      <point x="1021.0" y="1053.0"/>
      <point x="974.0" y="1053.0" type="curve" smooth="yes"/>
      <point x="965.0" y="1053.0" type="line" smooth="yes"/>
      <point x="918.0" y="1053.0"/>
      <point x="907.0" y="1089.0"/>
      <point x="904.0" y="1163.0" type="curve" smooth="yes"/>
      <point x="901.0" y="1244.0"/>
      <point x="874.0" y="1300.0"/>
      <point x="751.0" y="1300.0" type="curve" smooth="yes"/>
      <point x="623.0" y="1300.0"/>
      <point x="548.0" y="1245.0"/>
      <point x="525.0" y="1145.0" type="curve" smooth="yes"/>
      <point x="507.0" y="1067.0"/>
      <point x="584.0" y="964.0"/>
      <point x="728.0" y="873.0" type="curve" smooth="yes"/>
      <point x="975.0" y="717.0"/>
      <point x="1036.0" y="629.0"/>
      <point x="1000.0" y="472.0" type="curve" smooth="yes"/>
      <point x="949.0" y="250.0"/>
      <point x="760.0" y="105.0"/>
      <point x="496.0" y="105.0" type="curve"/>
    </contour>
  </outline>
</glyph>
<glyph name="copyright" format="2">
  <advance width="1484"/>
  <unicode hex="00A9"/>
  <outline>
    <contour>
      <point x="1069.0" y="501.0" type="curve" smooth="yes"/>
      <point x="1002.0" y="349.0"/>
      <point x="869.0" y="229.0"/>
      <point x="667.0" y="229.0" type="curve" smooth="yes"/>
      <point x="435.0" y="229.0"/>
      <point x="347.0" y="393.0"/>
      <point x="400.0" y="621.0" type="curve" smooth="yes"/>
      <point x="423.0" y="720.0" type="line" smooth="yes"/>
      <point x="476.0" y="948.0"/>
      <point x="638.0" y="1111.0"/>
      <point x="870.0" y="1111.0" type="curve" smooth="yes"/>
      <point x="1066.0" y="1111.0"/>
      <point x="1137.0" y="1009.0"/>
      <point x="1140.0" y="888.0" type="curve" smooth="yes"/>
      <point x="1141.0" y="848.0"/>
      <point x="1109.0" y="816.0"/>
      <point x="1081.0" y="816.0" type="curve" smooth="yes"/>
      <point x="1075.0" y="816.0" type="line" smooth="yes"/>
      <point x="1041.0" y="816.0"/>
      <point x="1040.0" y="848.0"/>
      <point x="1037.0" y="888.0" type="curve" smooth="yes"/>
      <point x="1032.0" y="969.0"/>
      <point x="963.0" y="1027.0"/>
      <point x="857.0" y="1027.0" type="curve" smooth="yes"/>
      <point x="703.0" y="1027.0"/>
      <point x="582.0" y="888.0"/>
      <point x="545.0" y="726.0" type="curve" smooth="yes"/>
      <point x="519.0" y="615.0" type="line" smooth="yes"/>
      <point x="482.0" y="453.0"/>
      <point x="526.0" y="313.0"/>
      <point x="692.0" y="313.0" type="curve" smooth="yes"/>
      <point x="822.0" y="313.0"/>
      <point x="918.0" y="391.0"/>
      <point x="967.0" y="501.0" type="curve" smooth="yes"/>
      <point x="982.0" y="535.0"/>
      <point x="1002.0" y="567.0"/>
      <point x="1036.0" y="567.0" type="curve" smooth="yes"/>
      <point x="1042.0" y="567.0" type="line" smooth="yes"/>
      <point x="1076.0" y="567.0"/>
      <point x="1084.0" y="535.0"/>
    </contour>
    <contour>
      <point x="1473.0" y="668.0" type="curve" smooth="yes"/>
      <point x="1384.0" y="284.0"/>
      <point x="999.0" y="-28.0"/>
      <point x="615.0" y="-28.0" type="curve" smooth="yes"/>
      <point x="231.0" y="-28.0"/>
      <point x="-10.0" y="284.0"/>
      <point x="79.0" y="668.0" type="curve" smooth="yes"/>
      <point x="168.0" y="1052.0"/>
      <point x="552.0" y="1366.0"/>
      <point x="936.0" y="1366.0" type="curve" smooth="yes"/>
      <point x="1320.0" y="1366.0"/>
      <point x="1562.0" y="1052.0"/>
    </contour>
    <contour>
      <point x="1387.0" y="668.0" type="curve" smooth="yes"/>
      <point x="1465.0" y="1006.0"/>
      <point x="1255.0" y="1280.0"/>
      <point x="917.0" y="1280.0" type="curve" smooth="yes"/>
      <point x="579.0" y="1280.0"/>
      <point x="243.0" y="1006.0"/>
      <point x="165.0" y="668.0" type="curve" smooth="yes"/>
      <point x="87.0" y="330.0"/>
      <point x="296.0" y="58.0"/>
      <point x="634.0" y="58.0" type="curve" smooth="yes"/>
      <point x="972.0" y="58.0"/>
      <point x="1309.0" y="330.0"/>
    </contour>
  </outline>
</glyph>
<glyph name="logicalnot" format="2">
  <advance height="2048" width="1150"/>
  <unicode hex="00AC"/>
  <outline>
    <contour>
      <point x="135.0" y="670.0" type="curve" smooth="yes"/>
      <point x="136.0" y="675.0" type="line" smooth="yes"/>
      <point x="147.0" y="722.0"/>
      <point x="186.0" y="750.0"/>
      <point x="263.0" y="750.0" type="curve" smooth="yes"/>
      <point x="933.0" y="750.0" type="line" smooth="yes"/>
      <point x="1040.0" y="750.0"/>
      <point x="1074.0" y="707.0"/>
      <point x="1049.0" y="600.0" type="curve" smooth="yes"/>
      <point x="1001.0" y="395.0" type="line" smooth="yes"/>
      <point x="983.0" y="318.0"/>
      <point x="948.0" y="285.0"/>
      <point x="911.0" y="285.0" type="curve" smooth="yes"/>
      <point x="901.0" y="285.0" type="line" smooth="yes"/>
      <point x="864.0" y="285.0"/>
      <point x="843.0" y="318.0"/>
      <point x="861.0" y="395.0" type="curve" smooth="yes"/>
      <point x="907.0" y="595.0" type="line"/>
      <point x="227.0" y="595.0" type="line" smooth="yes"/>
      <point x="150.0" y="595.0"/>
      <point x="124.0" y="623.0"/>
    </contour>
  </outline>
</glyph>
<glyph name="registered" format="2">
  <advance width="1484"/>
  <unicode hex="00AE"/>
  <outline>
    <contour>
      <point x="656.0" y="1030.0" type="line"/>
      <point x="592.0" y="754.0" type="line"/>
      <point x="832.0" y="754.0" type="line" smooth="yes"/>
      <point x="932.0" y="754.0"/>
      <point x="994.0" y="795.0"/>
      <point x="1011.0" y="867.0" type="curve" smooth="yes"/>
      <point x="1023.0" y="917.0" type="line" smooth="yes"/>
      <point x="1040.0" y="989.0"/>
      <point x="996.0" y="1030.0"/>
      <point x="896.0" y="1030.0" type="curve" smooth="yes"/>
    </contour>
    <contour>
      <point x="917.0" y="1120.0" type="line" smooth="yes"/>
      <point x="1071.0" y="1120.0"/>
      <point x="1173.0" y="1049.0"/>
      <point x="1140.0" y="905.0" type="curve" smooth="yes"/>
      <point x="1137.0" y="891.0" type="line" smooth="yes"/>
      <point x="1104.0" y="747.0"/>
      <point x="971.0" y="688.0"/>
      <point x="817.0" y="688.0" type="curve"/>
      <point x="825.0" y="724.0" type="line"/>
      <point x="979.0" y="724.0"/>
      <point x="1081.0" y="677.0"/>
      <point x="1048.0" y="533.0" type="curve" smooth="yes"/>
      <point x="1035.0" y="477.0" type="line" smooth="yes"/>
      <point x="1019.0" y="409.0"/>
      <point x="1026.0" y="370.0"/>
      <point x="1037.0" y="335.0" type="curve" smooth="yes"/>
      <point x="1042.0" y="320.0"/>
      <point x="1042.0" y="308.0"/>
      <point x="1040.0" y="300.0" type="curve" smooth="yes"/>
      <point x="1040.0" y="297.0" type="line" smooth="yes"/>
      <point x="1035.0" y="275.0"/>
      <point x="1010.0" y="262.0"/>
      <point x="982.0" y="262.0" type="curve" smooth="yes"/>
      <point x="976.0" y="262.0" type="line" smooth="yes"/>
      <point x="945.0" y="262.0"/>
      <point x="923.0" y="280.0"/>
      <point x="916.0" y="303.0" type="curve" smooth="yes"/>
      <point x="900.0" y="356.0"/>
      <point x="909.0" y="425.0"/>
      <point x="921.0" y="477.0" type="curve" smooth="yes"/>
      <point x="938.0" y="551.0" type="line" smooth="yes"/>
      <point x="955.0" y="623.0"/>
      <point x="911.0" y="664.0"/>
      <point x="811.0" y="664.0" type="curve" smooth="yes"/>
      <point x="571.0" y="664.0" type="line"/>
      <point x="495.0" y="334.0" type="line" smooth="yes"/>
      <point x="484.0" y="288.0"/>
      <point x="458.0" y="262.0"/>
      <point x="424.0" y="262.0" type="curve" smooth="yes"/>
      <point x="418.0" y="262.0" type="line" smooth="yes"/>
      <point x="384.0" y="262.0"/>
      <point x="370.0" y="288.0"/>
      <point x="381.0" y="334.0" type="curve" smooth="yes"/>
      <point x="540.0" y="1024.0" type="line" smooth="yes"/>
      <point x="555.0" y="1088.0"/>
      <point x="595.0" y="1120.0"/>
      <point x="659.0" y="1120.0" type="curve" smooth="yes"/>
    </contour>
    <contour>
      <point x="1473.0" y="668.0" type="curve" smooth="yes"/>
      <point x="1384.0" y="284.0"/>
      <point x="999.0" y="-28.0"/>
      <point x="615.0" y="-28.0" type="curve" smooth="yes"/>
      <point x="231.0" y="-28.0"/>
      <point x="-10.0" y="284.0"/>
      <point x="79.0" y="668.0" type="curve" smooth="yes"/>
      <point x="168.0" y="1052.0"/>
      <point x="552.0" y="1366.0"/>
      <point x="936.0" y="1366.0" type="curve" smooth="yes"/>
      <point x="1320.0" y="1366.0"/>
      <point x="1562.0" y="1052.0"/>
    </contour>
    <contour>
      <point x="1387.0" y="668.0" type="curve" smooth="yes"/>
      <point x="1465.0" y="1006.0"/>
      <point x="1255.0" y="1280.0"/>
      <point x="917.0" y="1280.0" type="curve" smooth="yes"/>
      <point x="579.0" y="1280.0"/>
      <point x="243.0" y="1006.0"/>
      <point x="165.0" y="668.0" type="curve" smooth="yes"/>
      <point x="87.0" y="330.0"/>
      <point x="296.0" y="58.0"/>
      <point x="634.0" y="58.0" type="curve" smooth="yes"/>
      <point x="972.0" y="58.0"/>
      <point x="1309.0" y="330.0"/>
    </contour>
  </outline>
</glyph>
<glyph name="plusminus" format="2">
  <advance width="1168"/>
  <unicode hex="00B1"/>
  <outline>
    <contour>
      <point x="17.0" y="270.0" type="curve" smooth="yes"/>
      <point x="21.0" y="285.0" type="line" smooth="yes"/>
      <point x="30.0" y="322.0"/>
      <point x="70.0" y="355.0"/>
      <point x="137.0" y="355.0" type="curve" smooth="yes"/>
      <point x="947.0" y="355.0" type="line" smooth="yes"/>
      <point x="1014.0" y="355.0"/>
      <point x="1040.0" y="322.0"/>
      <point x="1031.0" y="285.0" type="curve" smooth="yes"/>
      <point x="1027.0" y="270.0" type="line" smooth="yes"/>
      <point x="1018.0" y="233.0"/>
      <point x="978.0" y="200.0"/>
      <point x="911.0" y="200.0" type="curve" smooth="yes"/>
      <point x="101.0" y="200.0" type="line" smooth="yes"/>
      <point x="34.0" y="200.0"/>
      <point x="8.0" y="233.0"/>
    </contour>
    <contour>
      <point x="194.0" y="1035.0" type="curve" smooth="yes"/>
      <point x="197.0" y="1050.0" type="line" smooth="yes"/>
      <point x="206.0" y="1087.0"/>
      <point x="247.0" y="1120.0"/>
      <point x="314.0" y="1120.0" type="curve" smooth="yes"/>
      <point x="1124.0" y="1120.0" type="line" smooth="yes"/>
      <point x="1191.0" y="1120.0"/>
      <point x="1216.0" y="1087.0"/>
      <point x="1207.0" y="1050.0" type="curve" smooth="yes"/>
      <point x="1204.0" y="1035.0" type="line" smooth="yes"/>
      <point x="1195.0" y="998.0"/>
      <point x="1155.0" y="965.0"/>
      <point x="1088.0" y="965.0" type="curve" smooth="yes"/>
      <point x="278.0" y="965.0" type="line" smooth="yes"/>
      <point x="211.0" y="965.0"/>
      <point x="185.0" y="998.0"/>
    </contour>
    <contour>
      <point x="817.0" y="1570.0" type="curve" smooth="yes"/>
      <point x="827.0" y="1570.0" type="line" smooth="yes"/>
      <point x="864.0" y="1570.0"/>
      <point x="889.0" y="1537.0"/>
      <point x="874.0" y="1470.0" type="curve" smooth="yes"/>
      <point x="671.0" y="590.0" type="line" smooth="yes"/>
      <point x="656.0" y="523.0"/>
      <point x="615.0" y="490.0"/>
      <point x="578.0" y="490.0" type="curve" smooth="yes"/>
      <point x="568.0" y="490.0" type="line" smooth="yes"/>
      <point x="531.0" y="490.0"/>
      <point x="506.0" y="523.0"/>
      <point x="521.0" y="590.0" type="curve" smooth="yes"/>
      <point x="724.0" y="1470.0" type="line" smooth="yes"/>
      <point x="739.0" y="1537.0"/>
      <point x="780.0" y="1570.0"/>
    </contour>
  </outline>
</glyph>
